<?xml version="1.0" encoding="utf-8"?>
<!-- Generator: Adobe Illustrator 27.5.0, SVG Export Plug-In . SVG Version: 6.00 Build 0)  -->
<svg version="1.1" id="Layer_1" xmlns="http://www.w3.org/2000/svg" xmlns:xlink="http://www.w3.org/1999/xlink" x="0px" y="0px"
	 viewBox="0 0 800 800" style="enable-background:new 0 0 800 800;" xml:space="preserve">
<g>
	<path d="M28.211,604.414l3.342-2.228l13.368-6.684l10.583-4.456l5.013-3.342l5.57-2.785l5.013-1.671l6.127-3.342l10.026-3.899
		l6.684-1.114l1.114,5.57l3.342,2.785l2.228,3.342l1.114,5.57l1.114,1.114h7.241l1.671,0.557l2.228,2.228v3.342l-4.456,3.342
		l-1.114,2.228h-1.114l-2.228,1.671l-6.684,2.785l-2.785,3.899l-6.127,3.342l-5.57,3.899l-10.026,4.456l-6.684,2.785l-6.684,3.899
		l0.557,1.114h6.684l9.469-1.114l20.052-5.013l15.039-3.899l5.57-0.557l-0.557,1.671l-1.671,1.114l-4.456,2.785l0.557,3.342
		l-2.228,1.114l-9.469,2.785l-14.482,4.456l-0.557,1.671l1.114,0.557h5.57l7.798-1.114h5.57l1.114,0.557l-0.557,1.671l-4.456,3.342
		l-0.557,2.228l3.342,1.671v1.114l-1.114,0.557l-11.14,3.899l-9.469,2.785l-8.355,2.785l0.557,2.228h8.912l10.583-0.557h10.026
		l-0.557,1.671l-4.456,2.785l1.114,1.114l5.013-0.557l7.241-1.671l8.912-1.114l-0.557,2.228l1.671,1.114l15.039-1.671l13.925-2.785
		l6.127-1.671h4.456l2.228,1.114l0.557,1.671l0.557,2.228l-8.912,4.456l-4.456,2.785l-1.114,2.228l12.254,1.114l-0.557,3.342
		l-3.899,2.785l-2.785,2.785l0.557,1.671l4.456-0.557l11.697-3.899l5.57-1.114l1.114,1.671l2.785,1.114l-0.557,2.785l-2.785,2.785
		l-8.912,3.899l-6.127,4.456l-13.925,7.798l-2.228,2.228h3.899l2.228-0.557l13.368-4.456l9.469-1.114l5.013-1.114l10.583-2.785
		l3.899,0.557v1.671l-1.114,0.557l-17.267,7.241l-7.798,3.342l-1.114,2.228l2.228,0.557l-0.557,1.671l-3.899,3.342l-2.785,2.785
		h5.57l2.785,0.557l12.254-3.899l10.583-2.785l3.342,0.557l-0.557,1.671l-9.469,6.127l-0.557,1.671h3.342l13.368-5.013l12.254-3.899
		h4.456l-1.671,2.228l-10.026,5.57l-5.013,3.899l-8.912,5.57l-1.671,1.671h3.342l4.456-1.114l13.925-5.57l15.596-6.127l5.57-1.114
		l-0.557,1.671l-2.785,2.785l-6.127,5.013l-5.013,2.228l-8.912,5.57h-3.342l-10.026,5.013l-0.557,2.228l1.114,0.557l6.127-0.557
		l6.127-3.342l10.026-2.785l4.456-0.557l3.342,1.114l0.557,1.114l3.342,1.114l0.557,1.671l1.671,0.557l0.557,6.684l0.557,0.557
		h2.785l1.114-0.557l1.671-2.785l4.456-1.114l5.57,0.557l1.114-1.114l1.114-5.57l1.114-1.671l10.583-2.228l5.013-2.785l6.127-1.671
		l5.013-2.785l7.798-3.899l12.254-5.013l17.824-3.899l-0.557,1.671l0.557,2.785l3.899-0.557l2.228-3.342l2.785-4.456l8.355-2.228
		h5.013l1.114,0.557l5.57,0.557h5.013l12.811-6.127l8.912-0.557l3.342-1.671l5.013-3.899l5.013-1.114l5.013-2.785l5.013-2.228
		l3.342-2.228l1.114-2.228l-2.785-1.671l0.557-2.228l3.211-2.294l0.131,0.066l4.221-2.462l10.26-5.335l6.684-2.785l13.925-0.557
		l3.899,0.557h4.456l1.671-0.557l8.912-4.456l5.57-3.342l5.57-3.342l8.355-5.57l8.912-5.57l3.899-3.899h0l0.557-0.557v-0.557
		l1.114-2.228l2.228-2.228l7.241-2.228l7.798-5.013l5.57-3.899l3.241-2.228h0.101l1.114-0.836l4.456-3.063l6.127-5.013l3.899-3.899
		l10.026-6.684l9.469-5.013l15.039-2.785l1.81-0.557h0.975l3.899-1.5l0.557-0.171l8.355-2.785l11.14-4.456l10.583-6.127l8.912-4.456
		l2.785-1.671l0.557-0.557l1.671-1.114l10.583-7.241l3.862-1.69l0.037,0.019l5.013-2.228l1.299-0.743l2.042-0.928l4.456-2.785
		l1.81-1.392l2.089-1.393l1.638-1.474l1.704-1.31l0.557-0.557l3.342-2.924l2.785-2.089l2.785-2.228l1.238-0.928l0.433-0.186
		l1.114-1.114l1.671-1.81l6.684-7.102l8.355-5.57l5.013-3.899l5.57-4.456l6.127-3.899l10.026-7.241l6.127-5.013l6.684-5.57
		l3.899-4.456l6.684-6.684l2.228-4.456l3.899-6.684l1.65-3.961l0.021,0.062l1.114-2.785l1.671-2.785l5.013-3.342l2.785-2.228
		l-0.027-0.136l1.141-0.978l1.114-6.684l6.127-4.456l6.684-5.013l6.127-5.57v-2.228l-4.456,1.114v-1.114l1.114-2.228l1.114-2.785
		h-1.671l-3.899,1.671l-5.57,0.557l-2.785-1.671l-0.557-2.785l1.671-3.342l1.671-8.912l2.785-3.342l-0.557-3.342l-2.228-1.114
		v-2.785l1.114-1.671l0.223-1.337l0.891-2.005l2.785-2.785L767.89,400l-0.557-6.127l-0.557-0.557l-9.469,1.114l-6.684,2.228
		l-8.355,3.899l-3.899,0.557l-0.557-0.557v-2.785l2.228-2.785l6.127-3.899l4.744-2.919l0.269,0.134l2.228-1.671l0.557-2.785
		l-3.342-2.228l-7.241-0.557v-3.342l1.671-2.228v-3.899l-2.228,0.557l-4.456,0.557v-5.013l-0.557-5.013l-1.671-2.228l-1.671-5.57
		l-1.671-1.671l-0.477-0.239l-2.864-2.546h-5.57l-6.684,1.114l-2.785,0.557l-0.348,0.139l-1.88,0.418l-8.912,1.671l-3.342-1.114
		l-0.557-2.228l1.114-2.785l1.114-5.013l-1.114-3.342h-5.57l-1.671,0.557v0.279l-5.013,2.506l-6.684,2.785h-6.127l-8.355,2.228
		l-5.57,0.557l-3.899-2.228v-8.355l-1.671-0.557l-1.114-3.342l-3.342-1.114l-4.456,0.557l-4.456,2.228l-5.57,2.228l0.557-2.228
		l3.342-2.785l14.482-7.241l15.596-10.026L681,309.768l10.583-7.241l3.899-3.899l7.241-8.355l3.244-3.964l0.655-0.491l0.398-0.796
		l0.716-0.875l0.557-1.671l0.557-1.114l0.975-2.924l1.253-2.089l4.456-4.456l4.456-3.899l2.785-3.342l1.671-4.456v-3.899
		l-1.114-4.456l-0.557-5.013l2.785-4.456l4.456-3.899l7.241-6.684l2.228-3.899l2.228-4.456l3.899-4.456l4.456-3.899l3.899-5.013
		l-0.557-4.456l-3.342-1.114l-0.557-4.456l2.228-7.241l1.671-6.684l-0.557-1.671l-5.013-0.557l-3.899-2.785l-1.671-5.013
		l-4.456-1.671l-1.114-5.013H732.8l-2.785-0.557v-3.899l0.557-0.557l3.342-3.899l-2.785-0.557l0.557-2.228l3.342-6.127l-2.785-0.557
		l1.114-3.342l-0.557-3.899l2.228-3.342l0.557-2.228l-2.785,0.557l-8.912,1.671l1.114-4.456l3.899-5.57l-0.557-2.228l0.557-3.899
		l-2.228-1.671v-3.342l-3.342-2.785l-2.228-1.114l1.671-3.342l3.342-2.785l3.342-3.899l-3.899,0.557l1.114-2.228l8.355-8.912
		l1.114-2.228l-2.228-0.557l-6.127,2.228l-5.013,1.114l-0.557-2.785l-7.241,0.557v-2.785l-1.671-1.671v-2.228l-0.557-3.899
		l1.671-2.228l9.469-7.798l2.785-2.785h-2.785l0.557-3.899l-2.785-1.114l-0.557-5.57l-9.469,0.557l-10.583,3.899h-6.127
		l-10.026,3.342l-8.355,1.671l-1.671-0.557l1.114-2.785l3.899-2.785l0.557-2.785h-1.114l2.785-5.57l5.013-4.456V46.87h-2.228
		l-3.342,1.671l-5.57,1.114l-5.013,1.671l-7.798,0.557l-2.228,0.557h-6.127v-1.114l-1.671-1.114l-2.785-2.228l-6.127-2.228h-10.583
		l-9.469,1.114l-2.924,0.557h-0.975l-7.798,1.671l-8.355,1.114l-13.925,3.899l-1.782,0.668l-1.56,0.446l-0.867,0.464l-0.247,0.093
		l-0.027,0.054l-14.454,7.743l-7.241,4.456l-8.912,5.013l-6.127,2.785h-3.342l-0.557-0.557l-2.785-0.557l-5.013,2.228l-16.71,5.013
		l-12.254,2.785l-2.785,1.114l-5.317,1.063l-2.481-1.063l-4.456,0.557l-8.355,3.899l-11.697,5.013l-10.026,2.228l-9.469,3.342
		l-5.013,0.557l-1.671-1.671l-6.684,0.557l-5.013,1.671l-16.71,7.241l-7.241,1.671l-12.254,5.013l-5.57,1.114l0.557-2.228
		l4.456-2.785l3.787-2.228h0.111l5.57-3.342l-1.671-0.557l-4.456,2.228l-0.101,0.304l-0.456,0.253l-9.469,4.456l-6.684,3.899
		l-11.14,4.456l-14.482,6.684l-15.039,6.684l-11.697,4.456l-15.039,5.57l-8.912,3.342l-26.178,10.026l-16.71,7.798l-16.153,6.684
		l-13.368,6.127l-31.191,11.14l-6.684,3.342v1.671h6.684l7.798-1.114l7.798-2.228l15.039-5.57l8.912-3.342l18.381-6.684
		l10.583-5.013l13.925-5.013l17.824-4.456l7.798-3.342l3.342-2.785l7.241-3.899l13.925-6.127l10.583-3.899l8.912-1.114l11.697-5.013
		l4.456-2.785l11.697-4.456l6.127-0.557l0.557,2.228l-5.013,3.342l-10.026,4.456l-14.482,6.127l-14.482,6.684l-11.14,4.456
		l-8.912,2.228l-15.039,5.013l-6.684,2.785l-12.811,5.57l-8.912,4.456l-0.557,1.671l7.241-2.228l15.039-4.456l16.153-3.342
		l15.596-5.013l4.456-2.228l9.469-4.456l7.798-1.671l10.026-3.342l11.14-4.456l6.127-2.228l6.684-3.899l10.026-3.342l4.456-0.557
		v2.785l-1.114,1.114l-6.127,3.342l-8.355,2.228l-4.456,3.899l-6.127,2.785l-13.368,6.127l-6.127,2.228l-13.368,4.456l-1.98,1.238
		l-0.248-0.124l-2.228,1.671l-5.57,1.671l-3.899,2.228l-5.013,2.228l-0.186,0.186l-0.928,0.371l-0.279,0.279l-3.063,1.392
		l-7.241,2.228l-17.267,5.013l-8.912,2.785l-12.254,4.456l-12.811,3.899l-19.495,6.127l-11.697,3.899l-8.912,4.456l-3.899,5.013
		l-0.557,2.228h2.228l7.798-1.671l6.127-0.557v1.114l-2.785,1.671l-7.798,5.57l-0.557,4.456l-1.671,2.228l-3.342,2.228l-5.57,6.127
		l-5.013,2.785l-2.785,3.342v6.684l1.671,5.013l-0.557,4.456l-3.342,2.785l-11.697,5.013l-0.557,6.684l-0.557,0.557l-2.228,4.456
		l-2.785,2.785l-6.684,3.342l-3.899,3.342l-3.899,7.241l-3.342,2.785l-6.684,3.342l-8.355,3.899l-7.798,7.798l-5.57,3.342
		l-3.899,4.456l-4.456,2.228l-6.684,2.785l-6.684,5.013l-5.57,2.785l-5.013,3.899l-0.557,4.456l-5.57,6.127l1.114,2.228l4.456,0.557
		l6.684-1.114l6.127-1.671l5.57-2.228l11.697-3.342l16.153-4.456h5.013l-0.557,1.671l-2.228,2.228l-0.557,3.899l-1.114,1.671
		l-3.342,1.671l-3.342,2.228l-8.355,2.785l-11.697,2.785l-4.456,2.785l-5.57,2.228l-5.013,3.899l-0.557,2.228l2.785,1.114
		l1.114,3.899l1.671,0.557v4.456l2.228,1.114h3.899l-0.557,2.228l-1.671,1.114l-3.342,4.456l-3.899,3.342l-0.557,2.228l1.114,0.557
		l5.57-0.557l4.456-2.785l8.355-2.228h4.456v3.899l-0.557,0.557l-6.684,1.671l-14.482,3.342l-6.684,3.342l-2.228,5.57l0.557,2.228
		l4.456,0.557l10.026,2.785l2.228,1.671l0.557,3.899h6.127l9.469-1.671l12.254-2.228h7.241v3.342l-0.557,1.114l-5.57,2.785
		l-17.824,6.127l-2.785,3.342l-2.785,6.684l-11.14,6.127L119,445.673l-0.557,2.785l1.114,1.114v2.785l-2.228,2.228l-2.228,5.013
		l0.557,6.127l-3.899,3.342l-0.557,2.228l2.228,0.557v2.599l-1.114,2.971l-2.228,2.785l-5.013,2.785l-4.456,2.785v0.334l-1.114,0.78
		v2.228l2.785,2.785l0.557,4.456l-2.228,6.127l-0.557,2.228l1.114,0.557l1.273,1.273l0.398,1.79v2.506l-6.684,6.684l-6.127,4.456
		l-7.798,6.127l-6.684,5.013l-0.557,1.671h-1.114l-5.57,7.241l-3.899,5.013l-5.013,5.013l-7.798,5.57l-4.456,4.456l-4.456,5.57
		l-4.456,3.899l-0.557,1.671h4.456l2.785-0.557l10.026-2.785h3.899l1.114,0.557l-0.557,3.342l-4.456,3.342l-8.912,4.456
		l-2.785,3.899l-4.456,2.785l-5.57,3.899l-3.899,3.342l-3.342,5.57l-0.557,3.342H28.211z M159.103,352.099l-0.557-0.557l1.671-2.228
		l10.026-5.013l5.013-1.114l1.671-1.114l7.798-2.228l6.127-0.557l0.557,2.228l-2.785,2.785l-8.912,3.899l-15.596,3.899H159.103z"/>
	<polygon points="296.122,729.736 293.894,733.078 291.666,738.091 295.565,738.091 300.021,734.749 300.578,731.964 
		299.464,730.293 	"/>
	<polygon points="279.412,739.762 276.07,741.99 274.399,743.661 273.286,746.446 274.399,747.003 277.741,745.332 281.64,744.218 
		283.311,743.104 283.868,740.876 282.754,739.762 	"/>
	<polygon points="419.773,99.784 418.102,99.227 416.988,100.341 418.102,100.898 	"/>
</g>
</svg>
