<?xml version="1.0" encoding="UTF-8"?>
<!DOCTYPE svg PUBLIC "-//W3C//DTD SVG 1.1//EN" "http://www.w3.org/Graphics/SVG/1.1/DTD/svg11.dtd">
<!-- Creator: CorelDRAW -->
<svg xmlns="http://www.w3.org/2000/svg" xml:space="preserve" width="8.5in" height="8.5in" version="1.1" style="shape-rendering:geometricPrecision; text-rendering:geometricPrecision; image-rendering:optimizeQuality; fill-rule:evenodd; clip-rule:evenodd"
viewBox="0 0 8500 8500"
 xmlns:xlink="http://www.w3.org/1999/xlink"
 xmlns:xodm="http://www.corel.com/coreldraw/odm/2003">
 <defs>
  <style type="text/css">
   <![CDATA[
    .fil0 {fill:#131313;fill-rule:nonzero}
    .fil1 {fill:url(#id0);fill-rule:nonzero}
   ]]>
  </style>
  <linearGradient id="id0" gradientUnits="userSpaceOnUse" x1="1094.51" y1="4250" x2="7598.77" y2="4250">
   <stop offset="0" style="stop-opacity:1; stop-color:#FCDB9A"/>
   <stop offset="1" style="stop-opacity:1; stop-color:#DDA84A"/>
  </linearGradient>
 </defs>
 <g id="Layer_x0020_1">
  <metadata id="CorelCorpID_0Corel-Layer"/>
  <g id="Objects">
   <g>
    <g>
     <path class="fil0" d="M8340.44 2186c-3.41,-4.23 -7.85,-7.54 -15.16,-8.27l0 0c0,0 0,0 0,0 -2.28,-0.09 -4.56,-0.13 -6.85,-0.13 -7.54,-2.18 -15.07,-4.4 -23.71,-3.63 -5.52,0.78 -10.87,1.72 -15,4.09 -34.78,-2.16 -69.09,1.57 -102.92,11.22 0,0 -0,0 -0,0l-0.02 0 0 0 0 0 0 0 0 0 -113.08 9.19c-17.24,8.96 -37.26,7.15 -56.21,9.52 -25.09,8.75 -53,3.07 -78.29,10.78 -0.84,2.04 -0.54,3.76 0.66,5.23 -4.28,-2.17 -9.17,-2.73 -14.53,-2 -17.81,4.66 -35.93,4.52 -54.01,4.04 -3.89,0.48 -7.78,1.15 -11.54,2.05 -24.11,2.37 -48.26,4.49 -72.41,6.52 2,-7.2 3.88,-14.42 5.66,-21.64 4.15,-0.37 8.31,-0.79 12.47,-1.17 9.29,-0.66 18.59,-1.3 27.91,-1.71 3.81,-0.17 7.5,-0.7 10.75,-2.2 10.37,-1.14 20.75,-2.26 31.11,-3.6 10.75,-0.85 21.49,-1.63 31.49,-5.34 0.17,-0.08 0.26,-0.17 0.42,-0.25l13.67 -1.19c9.64,0.47 19.17,-0.37 28.6,-2.49l6.12 -0.53c7.8,-0.8 15.5,-1.92 22.97,-3.96 2.41,-0.84 4.91,-1.54 7.43,-2.24 10.24,3.31 20.04,0.78 29.57,-5.3l3.85 -0.31c12.67,1.66 25.72,-0.7 38.61,-1.51 17.57,-1.64 34.41,-6.28 51.39,-9.61 45.94,-9.04 92.82,-9.65 139.01,-15.77 34.75,-4.6 64.26,-24.86 70.11,-49l-3.19 -3.45 -7.62 -4.34c-10.2,-25.25 3.06,-61.71 -57.05,-63.27 -2.65,-0.07 -5.14,-3 -7.31,-4.85 -16.59,-14.07 -38.2,-18.24 -64.59,-18.61 -31.69,-0.46 -63.37,-25.54 -67.03,-48.54 0,0 0,0 0,0l33.67 -12.61c2.1,1.15 4.45,1.93 7.33,2 22.78,-8.69 44,-19.64 69.24,-24.57 5.82,-1.14 10.06,-4.49 7.19,-9.52 1.8,-15.38 16.82,-24.67 34.17,-30.23 21.4,-6.87 36.82,-18 54.13,-28.52 16.2,-9.83 22.87,-19.41 17.5,-32.45 -4.86,-11.81 -17.83,-17.08 -34.65,-20.45 -43.72,-8.78 -83.54,-21.51 -91.67,-58.52 -8.19,-5.26 -18.24,-7.41 -29.3,-7.87 -9.48,-5.09 -19.58,-9.31 -31.86,-10.43 -9.15,-1.44 -17.7,-0.48 -25.29,4.2 -2.34,-8.61 -14.09,-7.96 -22.44,-10.63 -18.54,-4.78 -39.42,-1.66 -57.93,-6.46 -11.88,-4.08 -21.89,-10.92 -36.28,-11.3 -11.17,3.52 -25.87,-2.67 -34.93,6.65 -0.01,-0.01 -0.02,-0.01 -0.02,-0.01l-21.97 -8.16 0 0c23.85,-24.17 42.55,-52.03 86.44,-61.98 7.75,-1.76 16.74,-0.89 21.95,-7.01 37.35,-5.9 76.63,-0.51 112.67,-14.11 0,0 0.01,0 0.01,-0.01l6.97 -0.69c0,0 0,0 0,0l0 0c29.79,-0.09 56.4,-10.04 84.03,-16.85 13.22,-19.04 10.12,-23.64 -16.68,-23.53 -8.11,0.04 -16.53,0.77 -24.44,2.33 -45.86,9.07 -92.43,4.28 -138.48,9.24 -4.22,0.46 -8.33,-2.02 -6.81,-6.38 24.53,-8.69 53.83,0.51 77.19,-13.04l0 0 7.04 -0.61c0.36,-0.25 0.76,-0.43 1.12,-0.67 0.41,0.91 0.93,1.85 1.7,2.91 28.48,3.32 55.7,-5.51 83.43,-8.53 36.34,-3.95 47.28,-22.62 28.37,-44.13 -9.17,-10.43 -21.11,-20.06 -18.18,-33.5 4.15,-19.03 -7.37,-31.89 -26.47,-42.5 -18.01,-10.09 -39.37,-17.16 -54.25,-29.97l-15.14 -9.22 -94.57 -22.53c-11.78,-8.3 -26.16,-9.77 -42.35,-6.53 -3.46,1.06 -6.32,2.65 -8.65,4.76l-5.95 -3.73c0.41,-0.05 0.78,-0.06 1.21,-0.12 1.8,-11.45 19.59,-6.81 26.04,-13.57 39.11,-8.83 78.88,-14.55 119.09,-19.19 33.66,-3.88 65.96,-11.48 82.82,-36.66l-16.57 -27.93c-10.84,-5.65 -22.93,-0.06 -34.34,-0.54 -23.28,-0.69 -47.03,2.89 -69.9,-1.19 -3.88,-0.51 -7.82,-0.84 -11.81,-0.91 -38.35,1.31 -76.5,5.8 -114.79,8.41 -20.67,1.2 -41.27,5.26 -62,3.13 -3.65,-0.37 -7.3,-0.62 -11.03,-0.61 -7.24,-0.14 -14.47,0.16 -21.71,0.73 -5.33,0.36 -10.65,0.76 -15.95,1.37 -7.02,0.69 -13.96,1.55 -20.56,3.76 -2.65,1.08 -4.81,2.52 -6.61,4.23 -2.16,-2.89 -4.73,-5.09 -8.72,-4.93 7.89,-5.13 15.96,-10.06 25.59,-13.48 11.65,-6.43 27.63,-7.26 37.66,-15.8l-0.01 0c6.62,-12 -2.6,-14.47 -16.41,-13.72 -11.43,0.63 -22.84,1.74 -34.26,2.63l0 0c0,0 0,0 0,0 -9.88,-6.81 -22.21,-3.01 -33.52,-2.18l-123.55 9.78c-12.61,0.98 -26.02,3.5 -35.65,-5.05 20.21,-8.34 45.27,0.52 63.7,-12.26l7.07 -0.58c52.5,-0.64 102.88,-15.78 155.21,-17.55l28.25 -2.24c2.94,1.16 5.82,3.37 8.82,3.33 70.48,-0.96 139.69,-12.91 209.06,-22.12 23.48,-3.11 39.26,-16.35 33.97,-35.89 -13.29,-6.85 -27.99,-4.26 -42.7,-1.52 -39.18,0.8 -78.37,1.41 -117.22,8.21 -2.01,0.61 -3.86,1.37 -5.61,2.25l-5.5 -5.76c-1.85,-1.94 -4.26,-3.44 -7.26,-4.47 -9.74,-2.78 -20.38,-3.01 -30.58,-4.47 -12.14,-1.73 -29.65,0.18 -33.56,-9.13 -4.13,-9.84 12.75,-14.89 21.72,-21.28 30.7,-21.87 27.98,-29.94 -13.94,-39.96 -5.25,-2.55 -9.55,-6.03 -15.63,-7.79 -4.96,-0.89 -9.98,-0.7 -15.02,0.3 -16.71,4.24 -33.49,5.15 -50.34,2.63 -10.72,-0.81 -21.51,-0.08 -32.3,0.75 -16.09,1.13 -32.23,3.69 -48.22,1.26 -5.31,-0.47 -10.66,-0.69 -16.08,-0.52 -12.26,0.44 -24.62,1.69 -36.48,-0.89 -30.68,-4.33 -62.28,-4.01 -93.51,-5.68 -12.87,2.29 -25.2,3.63 -30.35,-7.72 -1.4,-2.13 -7.85,-4.72 0.26,-6.26 8.55,-1.62 17.47,-2.04 25.09,-5.85 2.64,-1.62 5.02,-3.44 6.99,-5.48 10.53,-18.84 30.56,-25.36 56.99,-23.77 24.34,1.47 48.77,0.73 72.16,7.69 23.35,6.94 48.45,2.21 72.29,-5.07 13.88,-4.24 26.2,-12.02 42.4,-11.15l6.43 -0.41c6.29,-0.07 11.36,-1.74 14.42,-6 1.21,-11.11 8.73,-18.22 24.86,-14.8 15.15,3.21 24.83,-1.01 32.95,-9.27 14.85,-15.11 33.42,-15.68 51.64,-7.31 19.43,8.92 30.94,5.98 40.43,-9.4 3.06,-4.97 11.05,-8.57 16.8,-12.8 5.94,-10.47 24.02,-17.69 18.62,-31.2 -16.59,-0.72 -34,6.13 -49.92,-0.74l-64.46 -11.13 -94.18 -16.25c-2.95,4.03 -8.25,4.82 -13.69,5.39 -9.17,-0.04 -18.35,-0.5 -27.51,-0.04 -43.64,2.21 -65.81,-32.51 -110.4,-28.49 -18.37,-6.33 -38.44,3.94 -56.98,-0.67l-50.46 -10.22c-22.4,13.37 -41.7,-0.43 -62.44,-1.56 -0.78,-0.46 -1.54,-0.94 -2.17,-1.47 -2.1,-1.17 -4.43,-2.03 -7.02,-2.57l-13.87 0.97c0,0 0,0 0,0 -15.69,-13.74 -29.27,-29.46 -54.01,-35.91 -52.26,-13.61 -102.29,-31.48 -158.66,-37.46l-0.32 0.03c-22.18,-20.65 -57.19,-17.04 -88.64,-19.55 -50.63,-4.03 -106.22,4.42 -146.39,-24.94 -3.51,-0.82 -7.09,-1.37 -10.84,-1.53 -19.48,-1.07 -39.21,4.19 -58.61,1.2 -6.88,-1.06 -13.49,-2.69 -20.15,-4.16 -7.02,-1.76 -14.34,-1.98 -21.84,-1.12 -30.62,1.17 -61.1,7.7 -91.85,5.02l-48.98 2.93c-41.14,-11 -80.12,4.85 -119.98,9.67l-85.03 6.94 -21.03 3.3c-34.96,6.56 -70.67,6.45 -106.01,10.26 -3.7,0.25 -7.32,0.61 -11.01,1.11 -12.2,5.58 -25.32,9.32 -39.04,11.85 -7.63,1.41 -18,0.3 -19.65,7.94 -1.83,8.54 6.44,13.27 15.99,16.76 13.96,5.11 30.42,1.85 45.65,3.09 -3.08,5.59 -13.53,8.33 -9.31,13.37 -77.57,8.25 -155.28,14.65 -233.19,18.74l-42.31 3.53c0,0 0,0 0,0 0,0 0,0 0,0 -39.87,5.43 -81.3,1.37 -119.87,14.67 -14.32,15.3 -34.61,23.22 -59.3,24.81 -16.13,1.04 -29.66,5.59 -41.01,13.92 -42.97,31.55 -80.04,34.87 -126.88,10.87 -6.24,-3.2 -11.54,-2.82 -19.02,-2.13 -46.94,4.37 -87.19,23.91 -131.87,33.17 0,0 0,0 0,0 0,0 0,0 0,0l-8.86 0.03c-32.31,-9.84 -66.49,3.3 -99.3,-0.07 -5.29,0.81 -10.28,1.92 -13.09,5.17 -3.26,-1.43 -6.83,-1.8 -10.74,-1 -0.38,0.13 -0.77,0.26 -1.14,0.4 -4.6,-1.9 -9.09,-4.08 -15.42,-1.54 -27.61,2.37 -55.2,4.43 -82.59,1.6 -3.7,-0.43 -7.44,-0.73 -11.24,-0.74 -25.02,0.68 -49.97,2.11 -74.58,6.85 -15.69,6.05 -33.95,4.5 -49.88,9.79l-7.95 0.72c-0.38,1.35 -0.54,2.71 -0.48,4.07 0,0 0,0 0,0 -0.75,1.3 -1.41,2.47 -2.1,3.68 -0.09,-1.45 -0.17,-2.92 -0.13,-4.47 -10.1,-2.45 -20.22,-0 -25.59,5.59 -25.22,26.29 -59.78,27.88 -97.49,24.52 -12.57,-1.12 -25.95,0.49 -38.6,2.73 -66,11.73 -133.05,10.31 -199.49,16.37 -3.92,-0.69 -7.78,-0.44 -11.59,0.76 -34.82,4.53 -69.69,8.21 -104.84,7.86 -9.77,-0.34 -19.48,1.11 -29.21,1.71 -23.22,0.8 -46.34,6.04 -69.65,3.68l-13.74 -0.26c-6.41,-2.52 -12.96,-3.03 -19.75,0.11 -0.24,1.1 -0.44,2.19 -0.61,3.26 -0.39,-0.12 -0.71,-0.26 -1.13,-0.37l-21.35 0.96c0,0 0,0 0,0l0.46 -0.19c-0.45,-1.28 -0.96,-2.56 -1.54,-3.81l-48.44 -1.06c-3.43,2.36 -9.32,1.68 -12.74,4.05 -3.7,-0.58 -7.35,-0.31 -10.93,0.87 -5.43,0.43 -10.89,1.29 -16.37,2.3 -10.63,1.3 -21.33,3.01 -30.65,-2.84l-8.07 -4.67 -7.91 2c-10.72,7.17 -24.33,12.95 -37.42,11.56 -21.91,-2.33 -43.6,-0.94 -65.26,1.04 -16.45,0.68 -32.93,1.85 -49.53,3 -3.31,-0.59 -6.58,-0.37 -9.83,0.47 -0.15,-1.03 -0.28,-2.06 -0.56,-3.06 -23.71,-0.23 -47.83,7.47 -71.23,1.02 -19.4,-10.48 -40.44,-4.19 -61.2,-0.56 -0.52,0.2 -0.9,0.5 -1.39,0.72 -4.67,-0.28 -9.34,-0.47 -14.04,-0.45 -24.79,0.04 -49.46,2.2 -74.02,5.55 -16,6.72 -33.69,5.84 -50.77,7.67 -23.28,-1.95 -46.61,-1.11 -70.23,0.9 -78.88,6.43 -157.76,12.85 -236.7,19.28 -3.87,-0.1 -7.72,0.45 -11.56,1.15 -3.99,-3.41 -9.54,-4.14 -16.52,-2.45 -31.5,-8.52 -12.39,-15.92 13.44,-27.18 -53.38,8 -100.31,6.69 -144.87,14.34 -11.54,0.78 -23.24,2.35 -35.05,4.44 -1.31,-0.03 -2.43,0.15 -3.37,0.56 -1.27,0.24 -2.53,0.38 -3.8,0.63 -29.94,6.33 -59.99,11.9 -91.12,11 -11.32,-1.19 -22.55,-2.5 -30.53,-8.82 -2.58,-1.44 -5.49,-2.48 -8.69,-3.12 -6.85,0.02 -13.57,0.28 -17.9,5.23 -0.26,0.09 -0.52,0.13 -0.77,0.21 -1.76,-8.05 -15.33,-4.19 -23.02,-6.23 -3.85,-0.06 -7.42,0.67 -10.72,2.2 -133.57,-14.85 -266.34,-6.13 -398.45,22.7 -7.26,1.17 -9.26,3.06 -6.87,5.55 -21.42,2.9 -41.61,11.41 -64.06,9.56 -11.66,-6.29 -26.88,-2.45 -39.69,-5.44 -10.12,-1.37 -20.21,-3.45 -30.38,1.12l-3.29 0.98c-1.41,-0.63 -2.86,-1.16 -4.25,-1.85 -7.28,-1.65 -14.17,-1.37 -20.24,2.9 -37.02,4.64 -74.96,4.77 -109.97,18.74 -9.6,3.83 -24.77,5.26 -34.53,2.78 -39.11,-9.92 -78.77,-1.32 -118.23,0.36 -0.17,-1.54 -0.45,-3.08 -0.82,-4.59l-35.35 -2.62c-47,-6.5 -93.93,-13.33 -143.15,-8.5l0 0c0,0 0,0 0,0l-14.08 1.05c-8.09,-9.9 -21.62,-16.2 -36.7,-15.84 -83.89,1.98 -168.57,1.4 -246.72,33.65l-5.81 -0.41c-80.12,7.06 -157.49,26.57 -237.16,35.71 -9.96,1.14 -17.49,6.36 -17.57,14.05 -0.08,7.34 6.37,12.23 15.86,14.31 14.71,3.24 30.21,0 45.43,0.16 7.72,0.86 14.97,2.18 18.57,7.65 1.7,2.6 3.56,5.15 6.07,7.39 -18.19,-2.39 -36.37,2.26 -54.56,2.63 -23.31,2.92 -47.21,1.53 -70.1,7.56l-112.6 10.07c0.01,0 0.02,0 0.03,0.01 -0.01,0 -0.02,0 -0.03,0l-15.51 -3.76c-2.09,0.12 -4.15,0.04 -6.17,-0.25l-70.91 7.11c-41.28,12.85 -85.56,6.85 -127.55,15.24 -0,0.01 -0,0.02 -0.01,0.02 0,-0.01 0,-0.01 0,-0.02l0.62 -2.15 -77.37 6.46 -4.1 0.33c-13,-6.38 -28.1,-8.87 -42.64,-12.34 -16.23,-3.3 -31.96,-0.08 -47.53,0.47l-42.37 -7.58 -0.26 17.07c-0.49,0 -0.99,-0.02 -1.49,0l-0.16 0 -0.11 7.28 -0.69 -0.04 -0.06 4.23c-9.81,0.53 -19.56,1.64 -29.25,3.46 0.58,-37.45 0.88,-57.19 0.95,-61.73 -0.08,4.98 -0.41,26.6 -0.95,61.73 -3.01,0.57 -6.03,1.03 -9.02,1.76l-55.87 4.4 -71.5 5.76 -20.74 2.99c-8.31,1.41 -16.62,2.67 -24.95,3.73l-5.61 363.58c-25.66,-3.21 -43.33,2.37 -53.04,23.24 -4.03,8.67 -6.58,14.33 0.63,22.59 9.74,11.17 -0.12,20.07 -12.28,21.05 -19.51,1.58 -35.91,10.8 -56.63,8.12 -11.92,-3.15 -21.5,-3.3 -22.17,7.98 -8.53,8.95 -21.43,20.29 -33.61,19.11 -39.8,-3.86 -40.3,16.86 -49.19,33.64 -13.95,26.3 0.33,41.7 39.61,37.12 25.72,-3 45.93,6.87 68.86,9.39 5.74,0.63 11.11,4.61 10.24,9.24 -1,5.29 -7.94,4.96 -13.83,4.43 -20.03,-1.78 -40.35,-5.77 -60,-5.2 -39.67,1.15 -82.92,-7.16 -116.31,13.71l-7.56 4.34c-13.83,-1.34 -27.72,-2.31 -41.47,-4.13 -20.11,-2.65 -31.09,2.27 -31.48,17.07l-0 0c-12.11,-1.65 -18.99,5.59 -29.04,7.45 13.69,21.89 37.66,6.21 56.21,10.33 0,0 0,0 0,0l7.02 0.83 -0.09 -0.15 28.41 2.87 6.94 0.54c0.2,-1.56 0.48,-3.1 0.85,-4.64 0,0 0,0 0,0l303.8 29.08 -0.82 53.03c-20.3,-2.07 -40.61,-3.73 -61,-3.76 -14.04,-10.78 -31.45,-16.31 -50.46,-13.46 -18.7,2.8 -36.78,-0.58 -55.15,-1.69 -39.72,-6.64 -81.5,-1.87 -119.78,-16.51 -22.91,-1.14 -44.35,-9.04 -66.86,-11.98 -4.62,-1.24 -9.19,-2.62 -13.61,-4.35 -8.93,-2.19 -17.19,-5.59 -25.92,-8.12 -2.9,-0.56 -5.84,-0.86 -8.76,-1.27 -4.41,-1.6 -8.93,-2.09 -13.56,-1.5 -3.5,-0.27 -6.98,-0.58 -10.49,-0.71 -5.48,0.29 -10.73,1.07 -15.41,3.06l-0.08 -0.04c-5.35,5.78 -9.5,11.89 -8.8,19.32l0 0 -0.59 4.98 17.73 37.03c9.67,6.57 5.54,14.24 5.13,21.49 -2.81,49.66 2.85,55.93 71.62,71.02 13.55,2.97 24.08,6.74 32.38,14.84 5.28,5.14 9.76,10.37 5.44,16.26 -4.16,5.68 -13.38,8.95 -20.65,5.91 -40.91,-17.13 -91.02,-10.94 -130.24,-32.81 -16.72,-9.32 -34.48,-11.94 -45.57,5.37 -18.56,28.95 -50.14,53.04 -57.43,86.21 -5.82,-0.43 -11.19,-0.07 -14.59,3.67 -8.8,2.82 -7.65,9.03 -8.67,14.5 2.63,4.77 6.42,8.8 13.5,10.8l0 -0.01c0,0 0,0 0,0.01 2.23,0.49 4.47,0.93 6.73,1.32 7.06,3.47 14.09,6.97 22.74,7.73 5.57,0.2 11.02,0.21 15.51,-1.41 33.91,8.22 68.39,10.54 103.43,6.98 0,0 0,0 0,0l0.02 0 0 0 113.09 10.75c18.56,-5.81 37.98,-0.52 57.07,0.46 26.27,-4.23 52.8,6.26 79.07,3.09 1.19,-1.86 1.19,-3.61 0.27,-5.27 3.84,2.89 8.56,4.3 13.97,4.52 18.37,-1.46 36.22,1.84 53.96,5.48 3.91,0.21 7.87,0.23 11.74,0 24.19,1.89 48.35,4.03 72.53,6.26 -3.23,6.74 -6.35,13.51 -9.37,20.31 -4.16,-0.37 -8.33,-0.68 -12.49,-1.03 -9.28,-0.98 -18.56,-1.97 -27.81,-3.2 -3.79,-0.5 -7.52,-0.62 -10.98,0.28 -10.43,-0.69 -20.85,-1.41 -31.3,-1.91 -10.75,-1.04 -21.47,-2.16 -31.98,-0.25 -0.18,0.04 -0.28,0.12 -0.46,0.17l-13.69 -1.22c-9.42,-2.15 -18.97,-2.99 -28.63,-2.56l-6.13 -0.55c-7.84,-0.59 -15.62,-0.82 -23.33,-0.13 -2.52,0.4 -5.12,0.67 -7.71,0.9 -9.52,-5.05 -19.62,-4.28 -30.08,0.04l-3.85 -0.36c-12.21,-3.85 -25.48,-3.81 -38.33,-5.27 -17.61,-1.46 -35.02,0.15 -52.34,0.46 -46.87,0.85 -93.2,-6.74 -139.8,-8.81 -35.07,-1.55 -67.7,13.22 -77.7,35.96l2.54 3.96 6.75 5.61 0 0c5.64,26.65 -13.81,60.22 45.17,72.27 2.6,0.53 4.54,3.86 6.35,6.06 13.89,16.76 34.47,24.64 60.42,29.64 31.16,6 58,36.24 57.57,59.52l-35.4 6.52c-1.87,-1.5 -4.05,-2.69 -6.88,-3.25 -23.98,4.57 -46.82,11.63 -72.56,12.07 -5.94,0.1 -10.71,2.66 -8.75,8.11 -4.47,14.83 -20.91,21.34 -38.98,23.78 -22.3,3.02 -39.45,11.28 -58.35,18.6 -17.69,6.85 -25.94,15.11 -22.93,28.89 2.73,12.48 14.6,19.93 30.58,26.2 41.56,16.3 78.59,35.81 80.13,73.67 7.15,6.61 16.69,10.48 27.51,12.87 8.46,6.67 17.68,12.59 29.59,15.85 8.76,3.01 17.37,3.57 25.66,0.3 0.8,8.89 12.5,10.31 20.27,14.4 17.44,7.95 38.57,8.53 55.98,16.5 11,6.1 19.67,14.58 33.8,17.48 11.63,-1.51 25.04,7.16 35.6,-0.43 0,0 0.02,0.01 0.02,0.01l20.23 11.88c-27.74,19.62 -51.06,43.78 -96.07,45.89 -7.95,0.37 -16.66,-2.06 -22.86,3.06 -37.85,-0.73 -75.63,-12.91 -113.54,-5.83 -0.01,0 -0.01,0 -0.02,0l-6.99 -0.54c0,0 0,0 0,0 -29.39,-5.13 -57.36,0.02 -85.79,1.88 -16.36,16.43 -14.12,21.51 12.33,26.09 8,1.39 16.43,2.14 24.51,1.98 46.8,-0.9 91.86,11.98 138.14,15.14 4.24,0.29 7.87,3.44 5.59,7.47 -25.7,4.27 -52.98,-9.93 -78.37,-0.67 0,0 0,0 0,0l-7.05 -0.64c-0.4,0.18 -0.82,0.29 -1.22,0.46 -0.25,-0.96 -0.59,-1.99 -1.17,-3.17 -27.5,-8.26 -55.88,-4.32 -83.74,-6.21 -36.52,-2.47 -50.57,14 -35.69,38.48 7.22,11.87 17.3,23.44 12.06,36.17 -7.42,18.01 1.68,32.68 18.65,46.47 15.99,13.09 35.8,23.78 48.23,39.01l13.31 11.72 89.28 38.74c10.16,10.23 24.08,14.2 40.6,13.84 3.6,-0.44 6.7,-1.5 9.37,-3.18l5.2 4.72c-0.41,-0.03 -0.78,-0.08 -1.22,-0.09 -3.78,10.96 -20.5,3.28 -28.04,8.81 -40.1,1.85 -80.31,0.51 -120.76,-1.96 -33.86,-2.07 -67.03,-0.24 -88.06,21.6l11.45 30.39c9.69,7.46 22.59,4.06 33.76,6.54 22.83,4.75 46.87,5.39 68.71,13.41 3.74,1.18 7.56,2.2 11.48,2.96 38.04,5.42 76.43,7.69 114.64,11.81 20.59,2.43 41.6,2.05 61.67,7.77 3.53,1 7.09,1.89 10.76,2.52 7.11,1.41 14.3,2.37 21.54,3.08 5.32,0.59 10.63,1.12 15.96,1.45 7.04,0.55 14.04,0.91 20.93,-0.1 2.8,-0.6 5.18,-1.64 7.26,-3.01 1.62,3.22 3.77,5.84 7.73,6.38 -8.67,3.67 -17.49,7.11 -27.59,8.79 -12.61,4.29 -28.52,2.31 -39.89,8.97l0.01 0c-8.63,10.65 0.03,14.7 13.77,16.37 11.37,1.39 22.82,2.29 34.24,3.41 0,0 0,0 0,0 8.55,8.44 21.37,6.85 32.67,8.02l123.51 12c12.59,1.24 26.26,1.11 34.26,11.21 -21.39,4.68 -44.54,-8.43 -64.95,0.91l-7.07 -0.67c-51.86,-8.56 -104.19,-2.48 -156.08,-9.89l-28.24 -2.74c0,0 0,0 0,0 0,0 0,0 0,0 -2.69,-1.66 -5.15,-4.34 -8.11,-4.83 -69.65,-11.39 -139.97,-11.74 -209.97,-14.82 -23.69,-1.04 -41.57,9.22 -39.78,29.39 11.91,9.07 26.85,9.09 41.84,8.96 38.76,6.07 77.5,12.33 117,12.44 2.08,-0.26 4.04,-0.68 5.92,-1.23l4.41 6.63c1.49,2.24 3.6,4.14 6.38,5.68 9.12,4.44 19.57,6.53 29.36,9.75 11.67,3.83 29.27,5.02 31.49,14.87 2.35,10.41 -15.17,12.43 -25.13,17.15 -34.1,16.17 -32.83,24.59 6.74,41.79 4.72,3.43 8.36,7.61 14.04,10.4 4.74,1.74 9.72,2.44 14.87,2.33 17.22,-1.25 33.92,0.79 50.08,6.22 10.43,2.68 21.19,3.85 31.98,4.92 16.06,1.71 32.42,2.02 47.76,7.2 5.16,1.39 10.39,2.55 15.76,3.31 12.17,1.71 24.56,2.65 35.8,7.26 3.29,1.07 6.67,1.93 10,2.9 -9.28,1.81 -18.55,3.69 -28.04,3.55 -3.94,0.69 -6.54,3.26 -7.37,8.34 -12.17,1.33 -21.61,12.52 -32.27,20.15 -18.82,-5.81 -39.57,-5.31 -59.82,-2.85 -14.43,1.75 -27.94,7.25 -43.74,3.56l-6.41 -0.72c-6.22,-1.02 -11.5,-0.28 -15.28,3.39 -3.14,10.72 -11.8,16.41 -27.1,10.22 -14.37,-5.81 -24.65,-3.35 -34.1,3.36 -17.28,12.28 -35.69,9.58 -52.19,-1.85 -17.59,-12.19 -29.45,-11.3 -41.5,2.18 -3.89,4.35 -12.4,6.5 -18.8,9.65 -7.69,9.27 -26.78,13.21 -23.81,27.46 16.23,3.61 34.59,-0.08 49.08,9.47l61.59 22.25 90 32.48c3.61,-3.45 8.97,-3.3 14.45,-2.91 9.03,1.64 18,3.71 27.11,4.85 43.4,5.46 59.19,43.53 103.84,47.38 17,9.45 38.58,2.85 56.05,10.64l15.83 6.24c2.61,2.58 5.31,4.89 8.68,5.21 1.24,-0.02 2.48,-0.09 3.67,-0.35l19.79 7.8c23.74,-8.98 40.1,6.78 59.6,12.02 -7.38,2.85 -15.2,2.35 -22.86,3.06 -9.22,0.69 -18.46,1.3 -27.7,1.93 -3.01,0.28 -6.06,0.46 -9.03,0.89 -0.22,0 -0.43,-0.02 -0.65,-0.02 -7.02,-0 -13.97,3.06 -20.16,8.21 -6.31,0.99 -12.61,1.98 -18.93,2.96 -5.83,7.29 -13.48,4.71 -20.56,5.17 -11.06,0.7 -22.13,1.41 -33.19,2.11 -6.7,1.02 -13.41,2.05 -20.11,3.07 -7.47,7.55 -16.51,5.65 -25.23,5.69 -1.31,0.42 -2.6,0.95 -3.84,1.61 -8.83,11.68 -25.94,-0.94 -32.67,16.22 -7.2,18.34 -20.64,13.64 -31.65,10.84 -18.85,-4.79 -39.32,-4.93 -52.42,7.96 -27.09,26.68 -54.82,21.62 -84.49,11.68 -12.48,0.94 -24.96,1.89 -37.44,2.83 -3.76,2.9 -8.47,2.72 -12.22,5.61 -10.27,4.41 -25.16,2.56 -22.5,25.09 1.8,15.22 15.47,25.61 31.38,20.89 13.35,-3.95 27.52,-0.48 40.31,-7.2 3.97,0.02 7.94,0.04 11.91,0.06 19.55,-1.54 39.1,-3.08 58.65,-4.63 6.8,-1.04 13.59,-2.07 20.39,-3.11 0.55,-1.65 0.55,-3.08 0.11,-4.35 12.43,-0.85 24.87,-1.69 37.31,-2.54 23.41,-1.73 46.81,-3.45 70.22,-5.17 5.83,1.68 11.76,4.44 17.19,1.35 1.41,0.38 2.81,0.81 4.2,1.36 6.85,0.74 13.69,1.93 20.54,1.02 2.62,-0.24 5.24,-0.44 7.87,-0.59 3.51,0.76 6.97,0.99 10.34,0.21 2.97,0.3 5.94,0.78 8.91,1.76 0.81,0.11 1.63,0.16 2.44,0.21 0.43,0.65 0.96,1.25 1.74,1.74 5.81,0.44 11.53,-0.52 17.3,-0.78 8.07,-0.19 16.16,2.47 24.22,0.93 2.72,3.38 6.47,6.1 11.64,7.91 1.19,0.42 1.89,3.65 2.61,5.74 5.51,16.06 14.79,23 26.8,26.83 3.3,1.05 6.38,3.41 9.2,6.64 -6.08,1.69 -12.11,3.56 -17.68,6.75 -19.25,0.28 -38.37,1.71 -57.11,6.58l-55.87 5.25 -71.5 6.85 -20.72 3.31c-8.47,1.57 -16.94,2.98 -25.44,4.19l-1.11 60.55c-16.8,1.34 -33.81,5.56 -49.21,15.52 -0.37,-0.79 -0.69,-1.6 -1.3,-2.27 -10.57,-7.74 -21.54,-9.3 -32.88,-4.69 -2.11,1.96 -4.34,3.38 -6.62,4.57 -4.63,0.53 -9.26,1.05 -13.89,1.57 -8.77,7.08 -20.12,-0.22 -28.85,7.07 0.13,1.76 0.27,3.52 0.41,5.29 0,0 0.01,0 0.01,0 -0.01,0 -0.01,0.01 -0.01,0.01 -0.39,0.22 -0.73,0.52 -1.11,0.75 -0.45,-1.07 -0.93,-2.16 -1.72,-3.43 -28.23,-8.69 -54.83,0.84 -81.06,9.84 -48.2,16.54 -97.64,15.88 -147.31,13.88 -6.23,-1.3 -12.36,-1.55 -18.16,1.83 -9.18,4.36 -20.61,-3.09 -28.6,7.52 -9.61,18.98 -7.2,31.78 8.65,41.14 14.05,8.3 29.33,10.03 44.33,13.01 8.7,2.23 17.64,0.4 26.26,3.61 2.21,0.53 4.46,0.86 6.7,0.85 5.53,-0.24 10.94,-0.85 14.53,-6.8 9.43,8.22 19.97,6.48 29.81,4.7 38.96,-7.05 78.01,-7.95 117.57,-3.64 9.35,1.02 19.07,8.93 28.58,4 4.82,3.95 9.83,7.48 14.91,10.79 3.8,2.2 7.59,4.15 11.66,1.98 1.18,1.35 2.35,2.69 3.54,4.03 8.04,25.64 21.56,41.52 44.34,40.81 0.21,-0.35 0.33,-0.7 0.48,-1.06 0.01,0.01 0.03,0.02 0.04,0.03 0.72,2.52 3.02,2.65 4.33,4.26 2.71,-0.04 5.42,-0.08 8.13,-0.13 6.44,-1.79 13.57,-0.72 17.97,4.56 7.81,9.39 16.19,14.03 24.89,16.12l-1.31 71.44c-15.45,2.26 -30.95,4.17 -46.42,6.28 -29.28,0.91 -58.29,6.78 -87.79,4.5l-2.04 -0.19c0,0 -2,0.46 -2,0.46 -6.02,7.49 -14.09,5.34 -21.41,6.01 -27.36,2.51 -54.77,4.51 -82.16,6.7 0,0 -0,-0 -0,-0 -2.8,0.25 -5.61,0.5 -8.41,0.74 0,0 -0,0 -0,0 -1.56,-0.42 -3.13,-0.84 -4.69,-1.27 -6.77,1.15 -13.55,2.29 -20.32,3.43 0.15,1.36 0.27,2.72 0.36,4.09 0,0 0,0 0.01,0 -0.01,0 -0.01,0 -0.01,0 -3.57,0.28 -7.14,0.55 -10.71,0.82 -3.67,0.23 -7.33,0.52 -11,0.84 -2.36,0.18 -4.72,0.37 -7.08,0.54 -7.74,0.63 -15.5,1.12 -23.31,0.62 -11.82,-3.1 -23.47,3.1 -35.28,-0.72 -1.47,0.04 -2.94,0.08 -4.41,0.12 -4.68,9.14 -14.81,2.09 -21.11,9.1 7.59,7.96 15.06,6.52 22.38,6.17 36.43,10.43 71.84,4.26 107,-5.92 0.05,-0.96 0.05,-1.81 0.03,-2.63 0.33,0.21 0.66,0.31 0.99,0.54 6.91,-0.58 13.83,-1.16 20.75,-1.74 0.94,-1.68 2.04,-2.77 3.2,-3.64 -0.5,1.6 -0.83,3.69 -1.28,6.48 5.17,3.64 10.78,3.91 16.27,3.16 54.33,-7.37 109.36,-0.99 163.8,-6.35 17.95,-1.76 35.91,-4.16 53.96,-1.47l-0.28 15.49c-14.72,0.06 -29.57,-0.95 -43.49,6.43 -0.78,1.13 -1.57,2.25 -2.36,3.36 -0.13,0.19 -0.25,0.37 -0.38,0.56 -0.77,-1.73 -2.23,-3.04 -3.87,-4.22 -14.37,-4.4 -28.35,-1.38 -42.3,1.89 -14.94,7.41 -31.41,3.19 -46.71,7.82 -17.18,4.75 -35.9,-1.31 -52.22,9.58 -4,0.44 -8,0.89 -12,1.33 -2.46,6.53 -7.99,4.76 -12.11,6.78 -5.51,8.06 -13.54,4.63 -20.43,6.33 -37.44,4.63 -76.03,-0.59 -113,14.85 6.21,8.92 13.34,6.56 20.07,7.93 31.73,6.46 63.33,7.7 95.04,3.87 5.92,-0.71 14.5,0.76 15.09,10.08 0.66,10.27 -7.65,9.99 -13.87,10.43 -6.27,-4.32 -10.56,-2.06 -13.95,3.19 -0.56,-0.17 -1.13,-0.33 -1.68,-0.54 -2.11,-0.44 -4.24,-0.64 -6.36,-0.46 -8.37,1.37 -16.2,5.13 -24.26,7.77 -7.58,4.09 -16.58,2.82 -23.66,8.4 -5.65,4.45 -13.32,9.52 -2.42,18.63 1.38,1.95 2.75,3.9 4.12,5.85 -0.41,0.04 -0.79,0.59 -1.15,1.66 -0.37,1.11 0.04,2.24 1.25,3.36 0.73,1.57 0.77,3.13 0.13,4.69 -0.87,4.53 -5.72,2.34 -6.89,6.4 -11.45,9.9 -24.92,6.13 -37.65,7.32 -5.31,0.86 -10.61,1.72 -15.93,2.59 -0.48,0.67 -1,1.15 -1.5,1.65 -6.12,0 -12.24,-0.01 -18.36,-0.04 -6.43,-0.81 -12.31,0.98 -17.64,5.32 -10.94,0.98 -21.89,1.95 -32.84,2.92 0.28,2.83 0.54,5.66 0.82,8.49 12.33,-0.18 24.67,-0.36 37,-0.54 27.34,1.65 54.69,-1.24 82.04,3.86 3.65,0.96 7.31,1.29 11,1.22 26.09,-2.48 52.28,-2.17 78.06,-9.48 25.92,-7.36 43.51,3.98 56.76,30.74 4.75,3.12 9.06,2.83 12.83,-1.57 15.7,11.97 31.88,2.26 47.82,3.49 0.71,-0.08 1.41,-0.19 2.12,-0.28 3,3 6.72,3.42 10.19,4.8 4.16,2.81 10.48,-0.77 12.94,7.42 -1.87,1.63 -3.61,3.57 -4.72,6.31 -1.29,1.76 -2.57,3.51 -3.85,5.27 -1.29,4.76 -4.81,5 -7.92,6.06 -1.5,4.5 -4.82,5.15 -8.08,5.92 -5.39,8.55 -13.58,4.63 -20.46,6.51 -11.58,14.28 -2.17,21.43 7.31,21.81 24.54,0.99 49.49,8.87 73.63,-1.15 1.36,-0.07 2.72,-0.15 4.09,-0.25 11.72,1.38 23.34,1.06 34.94,0.2l-2.84 155.29c-1.25,1.26 -2.49,2.6 -3.7,4.09 -0.82,0.94 -1.65,1.88 -2.47,2.82 -0.55,0.03 -1.11,0.06 -1.67,0.09 -0.38,0.58 -0.77,1.15 -1.15,1.73 -6.92,-0.54 -13.87,-0.81 -20.74,-1.83 -10.6,-1.58 -16.57,3.9 -17.22,18.67 0,0 0,0 0,0 -6.37,-1 -10.24,6.58 -15.63,8.96 6.61,21.09 19.8,4.2 29.52,7.32 0,0 0,0 0,0 1.24,0.1 2.47,0.26 3.7,0.46 0,0 -0.04,-0.13 -0.04,-0.13 5,0.45 10,0.9 15,1.35 1.22,0.03 2.44,0.09 3.67,0.17 0.15,-1.57 0.35,-3.12 0.59,-4.67 0,0 0,0 0,0 3.14,0.25 6.28,0.5 9.42,0.76l-0.83 45.49c-0.39,-0.23 -0.8,-0.35 -1.19,-0.6 -12.12,0.07 -23.27,-6.67 -35.13,-8.4 -2.42,-1 -4.8,-2.13 -7.1,-3.62 -4.68,-1.71 -8.96,-4.66 -13.51,-6.72 -1.52,-0.41 -3.07,-0.55 -4.61,-0.8 -2.3,-1.35 -4.68,-1.61 -7.15,-0.78 -1.85,-0.08 -3.69,-0.2 -5.55,-0.15 -2.93,0.57 -5.73,1.64 -8.27,3.86 0,0 -0.04,-0.04 -0.04,-0.04 -3.02,6.05 -5.4,12.35 -5.25,19.72 0,0 0,0 0,0 -0.15,1.67 -0.31,3.33 -0.46,4.98 2.77,11.98 5.54,23.97 8.31,35.96 4.93,6.03 2.51,13.9 2.08,21.14 -2.96,49.63 -0.16,55.58 35.9,66.97 7.1,2.24 12.58,5.44 16.74,13.07 2.65,4.85 4.87,9.81 2.4,15.92 -2.37,5.87 -7.37,9.63 -11.13,6.98 -21.2,-14.9 -47.98,-6.09 -68.15,-25.8 -8.59,-8.4 -17.94,-10.07 -24.35,7.76 -10.71,29.82 -28.19,55.49 -33.05,88.93 -3.08,-0.13 -5.94,0.52 -7.85,4.43 -4.76,3.28 -4.33,9.4 -5.03,14.9 1.25,4.61 3.15,8.43 6.84,10.04 0,0 0,-0 0,-0 0,0 0,0 0,0 1.17,0.37 2.35,0.69 3.54,0.96 3.64,3.08 7.27,6.19 11.84,6.5 2.95,-0.09 5.84,-0.37 8.27,-2.22 17.76,6.39 35.98,6.89 54.69,1.48 0,0 0,0 0.01,0l0.01 0.01 0 0c19.9,1.57 39.81,3.15 59.71,4.72 7.43,-5.02 14.94,-3.98 22.44,-3.13l-0.44 23.8c-5.19,-1.35 -10.67,-1.02 -15.98,-1.62 -9.3,-0.52 -18.59,2 -27.8,3.24 -24.91,3.33 -49.26,-1.79 -73.94,-1.38 -18.56,0.31 -36.33,16.76 -42.31,39.94 0.41,1.27 0.82,2.54 1.23,3.81 1.13,1.74 2.28,3.49 3.42,5.23l0 0c2.2,26.25 -9.13,60.72 21.82,69.62 1.36,0.39 2.29,3.61 3.19,5.69 6.87,15.96 17.56,22.73 31.19,26.33 16.36,4.32 29.7,33.03 28.79,56.25l0 0c-6.33,2.79 -12.65,5.58 -18.98,8.37 -0.95,-1.39 -2.07,-2.46 -3.56,-2.87 -12.86,5.82 -25.2,14.07 -38.87,15.86 -3.15,0.41 -5.76,3.22 -4.89,8.54 -2.81,15.01 -11.73,22.37 -21.39,25.76 -11.93,4.18 -21.28,13.33 -31.53,21.61 -9.6,7.76 -14.22,16.43 -13.03,30 1.07,12.29 7.15,19.09 15.45,24.49 21.57,14.04 40.65,31.52 40.33,69.16 3.6,6.21 8.54,9.56 14.22,11.37 4.29,6.2 9.01,11.62 15.24,14.23 4.56,2.54 9.11,2.64 13.61,-1.07 0.16,8.81 6.33,9.61 10.33,13.28 9.02,6.99 20.22,6.45 29.22,13.48 5.65,5.49 10.01,13.48 17.41,15.62 6.22,-2.13 13.08,5.8 18.91,-2.31 0.01,0.01 0.01,0.01 0.01,0.02 3.46,3.59 6.93,7.18 10.39,10.76 -15.31,21.02 -28.41,46.31 -52.36,50.8 -4.24,0.79 -8.78,-1.17 -12.23,4.26 -20.07,1.28 -39.76,-8.87 -60.1,0.2 0,0 -0,0 -0,0 -1.23,-0.09 -2.46,-0.15 -3.7,-0.17 0,0 0,0 0,0 -15.44,-3.56 -30.45,3.05 -45.59,6.41 -9.18,17.24 -8.14,22.18 5.76,25.34 4.2,0.96 8.66,1.26 12.95,0.68 24.87,-3.37 48.4,7.07 72.87,7.78 2.24,0.06 4.07,3.02 2.74,7.15 -13.77,5.61 -27.82,-7.09 -41.58,3.47 0,0 0,0 0,0 -1.24,-0.1 -2.48,-0.18 -3.72,-0.26 -0.24,0.22 -0.48,0.36 -0.71,0.57 -0.1,-0.98 -0.2,-1.94 -0.48,-3.13 -14.35,-6.77 -29.53,-1.35 -44.26,-1.76 -19.31,-0.53 -27.26,16.62 -20.09,40.23 3.47,11.44 8.48,22.44 5.32,35.4 -4.48,18.34 -0.09,32.47 8.51,45.31 8.09,12.19 18.3,21.8 24.44,36.31 2.24,3.66 4.48,7.31 6.72,10.98 15.41,11.29 30.82,22.58 46.24,33.87 5.09,9.66 12.36,12.87 21.14,11.64 1.93,-0.63 3.6,-1.85 5.07,-3.66 0.89,1.49 1.77,2.98 2.65,4.47 -0.25,-0.01 -0.41,-0.09 -0.68,-0.07 -2.33,11.12 -10.98,4.35 -15.15,10.26 -21.34,3.96 -42.64,4.76 -64.04,4.44 -17.91,-0.27 -35.57,3.3 -47.39,26.17 1.72,9.89 3.44,19.78 5.17,29.68 4.93,6.92 11.87,2.85 17.72,4.73 11.98,3.53 24.72,2.89 36.07,9.72 1.95,0.98 3.95,1.79 6.01,2.34 20.03,3.39 40.34,3.61 60.5,5.71 10.85,1.33 22.02,-0.16 32.5,4.48 1.84,0.81 3.7,1.51 5.63,1.94 3.74,1.02 7.52,1.61 11.34,1.93 2.8,0.3 5.61,0.56 8.43,0.6 3.72,0.18 7.43,0.17 11.11,-1.2 1.5,-0.74 2.8,-1.9 3.94,-3.38 0.11,0.45 0.22,0.9 0.35,1.33l-0.14 7.72c-3.55,2.89 -7.19,5.48 -11.2,7.11 -6.82,4.94 -15.21,3.81 -21.44,11.05 0,0 0.01,0 0.01,0 -4.89,11.07 -0.42,14.64 6.82,15.59 6,0.78 12.04,1.07 18.07,1.59l0 0c1.92,3.56 4.36,5.02 7,5.66l-0.35 18.98c-9.13,0.4 -18.24,0.39 -27.29,-1.15 -4.97,-0.41 -9.94,-0.83 -14.91,-1.24l0 0c-1.38,-1.51 -2.6,-4.06 -4.16,-4.38 -36.63,-7.67 -73.94,-4.3 -111.01,-3.66 -12.55,0.22 -22.34,11.39 -21.99,31.39 6.04,8.41 13.97,7.63 21.93,6.72 20.39,4 40.77,8.19 61.73,6.2 1.11,-0.37 2.17,-0.89 3.18,-1.54 0.72,2.12 1.43,4.24 2.15,6.37 0.72,2.15 1.78,3.94 3.21,5.31 4.71,3.95 10.19,5.48 15.3,8.17 6.08,3.2 15.39,3.45 16.27,13.15 0.94,10.25 -8.42,13.19 -13.85,18.42 -18.58,17.9 -18.16,26.23 2.34,41.27 2.41,3.17 4.21,7.14 7.14,9.63 2.46,1.48 5.08,1.91 7.82,1.54 9.18,-2.15 17.98,-1 26.4,3.55 5.45,2.12 11.13,2.71 16.83,3.2 8.47,0.85 17.15,0.29 25.14,4.65 2.7,1.11 5.44,1.99 8.27,2.47 6.41,1.06 12.96,1.33 18.79,5.34 15.36,8.04 31.77,11.59 47.74,17.06 6.95,-0.7 13.5,-0.51 14.78,11.35 0.47,2.29 3.49,5.63 -0.9,6.16 -4.63,0.56 -9.3,-0.12 -13.71,2.72 -1.57,1.28 -3.02,2.79 -4.3,4.57 -7.76,17.37 -18.93,21.37 -32.43,16.56 -12.43,-4.43 -25.17,-6.68 -36.44,-16.43 -11.25,-9.73 -24.83,-8.12 -38.07,-3.81 -7.71,2.5 -15.04,8.7 -23.32,5.86 -1.13,-0.09 -2.26,-0.21 -3.38,-0.38 -3.27,-0.69 -6.1,0.33 -8.2,4.18 -1.99,10.85 -6.75,16.98 -14.69,11.62 -7.46,-5.04 -12.98,-2.03 -18.2,5.15 -9.54,13.15 -19.23,11.44 -27.65,0.92 -8.98,-11.21 -15.3,-9.7 -22.09,4.37 -2.2,4.54 -6.78,7.13 -10.26,10.61 -4.35,9.64 -14.61,14.58 -13.46,28.62 8.5,2.74 18.36,-1.91 25.77,6.84 10.67,6.3 21.35,12.61 32.03,18.91 15.6,9.2 31.2,18.4 46.8,27.61 2.02,-3.63 4.87,-3.76 7.76,-3.67 4.74,1.16 9.44,2.74 14.24,3.4 22.87,3.15 30.11,40.24 53.7,41.71 8.74,8.52 20.39,0.8 29.43,7.63 8.3,5.43 16.59,10.86 24.89,16.29 13.24,-10.5 21.55,5.52 32.16,9.17 0.35,0.56 0.69,1.12 0.94,1.72 0.94,1.41 2.05,2.55 3.32,3.41 2.43,0.25 4.87,0.5 7.3,0.74 0,0 0,0 0,0 6.44,15.52 11.56,32.76 23.59,42.16 25.41,19.87 49.14,43.68 77.62,56.49 0.06,0 0.11,0.01 0.17,0.01 8.97,23.17 27.55,23.87 43.53,30.19 25.74,10.19 55.57,8.61 72.79,42.6 1.72,1.24 3.5,2.22 5.43,2.83 9.96,3.44 20.82,0.65 30.51,5.97 3.44,1.88 6.66,4.31 9.93,6.58 3.43,2.61 7.19,3.71 11.18,3.78 16.01,2.59 32.6,-0.15 48.2,6.26 8.57,1.03 17.15,2.06 25.73,3.09 19.97,15.93 42.1,4.99 63.34,5.09 14.97,1.17 29.93,2.35 44.9,3.52 3.77,-0.23 7.53,-0.46 11.3,-0.69 10.01,-1.18 19.89,-0.47 29.77,0.53 -0.91,0.37 -1.8,0.82 -2.65,1.49 -8.6,3.63 -20.75,1.1 -19.42,22.56 0.89,14.5 11.8,25.04 25.11,21.42 11.16,-3.04 22.74,0.98 33.52,-4.7l9.83 0.68 48.81 -2.31 17.02 -2.26c0.5,-1.54 0.54,-2.9 0.21,-4.12l31.04 -1.15 58.43 -2.52c4.82,1.79 9.7,4.61 14.26,1.86 1.17,0.41 2.33,0.86 3.47,1.43 5.68,0.93 11.35,2.29 17.06,1.66 2.19,-0.14 4.37,-0.24 6.55,-0.29 2.91,0.83 5.79,1.17 8.6,0.55 2.47,0.39 4.94,0.94 7.39,1.98 0.67,0.13 1.35,0.2 2.02,0.28 0.35,0.63 0.79,1.21 1.43,1.7 4.83,0.58 9.59,-0.04 14.42,-0.21 6.86,-0.04 13.71,2.78 20.58,1.29 26.46,1.16 52.81,-0.92 79.1,-3.22 11.04,-0.97 20.43,2.67 29.04,12.91 10.42,6.23 21.18,8.56 32.17,8.27 10.88,-0.28 21.76,-2.89 32.57,-0.91 6.33,1.16 16.43,-3.67 17.62,13.89 -12.83,4.78 -26.8,4.6 -38.81,13.85 -0.77,2.17 -0.57,4.25 0.22,6.27 -18.32,12.72 -34.08,35.25 -57.74,28.54l-3.24 5.23c0,0 0,0 0,0l-14.98 1.1c-3.35,-1.46 -6.92,-1.31 -10.47,-1.31 -12.4,2.62 -26.06,-3.49 -37.03,9.04 -19.65,4.13 -40.43,-2.95 -59.33,8.47 -5.06,-0.41 -9.43,2.1 -13.58,5.64 -0.18,-0.37 -0.24,-0.79 -0.46,-1.15 -6.56,-4.32 -12.36,0.7 -18.52,1.81 -29.22,5.24 -56.62,21.49 -87.65,18.81 -19.63,-1.7 -41.09,-0.13 -60.12,12.71 -0.29,-0.76 -0.54,-1.54 -1.02,-2.2 -8.67,-7.69 -17.83,-9.53 -27.5,-5.53 -1.85,1.8 -3.79,3.04 -5.77,4.07l-11.64 0.76c-7.59,6.24 -16.86,-1.26 -24.44,5.19l0.16 5.02c0.01,0 0.01,0 0.01,0l-0.01 0.02c-0.33,0.19 -0.63,0.44 -0.96,0.65 -0.33,-1.04 -0.7,-2.09 -1.32,-3.33 -23.36,-9.7 -45.99,-2.07 -68.39,5.08 -20.57,6.57 -41.26,9.06 -61.98,9.33 -20.71,0.21 -41.51,-1.37 -62.16,-4.43 -5.13,-1.69 -10.22,-2.39 -15.27,0.37 -7.93,3.43 -17.01,-4.46 -24.35,4.96 -9.22,17.22 -8.06,29.49 4.69,39.52 11.29,8.89 24.07,11.67 36.54,15.61 7.21,2.72 14.84,1.77 21.94,5.3 1.84,0.61 3.72,1.04 5.61,1.15 4.69,0.06 9.29,-0.23 12.63,-5.68 7.53,8.27 16.54,7.17 24.94,6 33.28,-4.65 66.3,-3.47 99.6,2.67 7.86,1.44 15.81,9.44 24.05,5.27 3.94,3.99 8.06,7.59 12.26,10.98 3.14,2.28 6.29,4.32 9.82,2.48l2.86 4c5.95,24.56 16.98,40.66 36.41,40.61 0.21,-0.35 0.19,-0.72 0.33,-1.07 0.06,0.04 0.1,0.07 0.16,0.11 0.54,2.41 2.48,2.6 3.56,4.17l6.93 0.14c5.55,-1.48 11.59,-0.23 15.19,4.91 14.5,20.71 32.18,18.55 49.98,17.26 2.09,-0.15 4.17,-0.22 6.26,-0.34 7.92,0.79 15.89,1.09 23.89,1.5 2.57,1.24 5.06,2.73 7.59,4.09 1.7,0.96 3.47,1.58 5.29,1.75 2.41,0.02 4.59,-0.77 6.5,-2.6 1.09,0.43 2.18,0.95 3.27,1.28 4.64,3.91 10.02,2.95 15.22,3.12 10.92,0.34 21.79,-2.53 32.78,0.59 1.96,0.77 3.94,1.35 5.96,1.61 6.22,0.02 12.41,0.57 18.59,1.52 0.29,0.31 0.59,0.6 0.87,0.99 4.39,5.93 11.32,1.97 15.54,8.63 3.19,1.82 6.67,2.69 9.9,4.39 -2.06,0.16 -4.12,0.3 -6.18,0.48 -5.81,0.61 -11.7,0.43 -17.43,2.11 -1.8,0.76 -3.51,1.76 -5.14,3.07 -5.61,4.02 -12.47,3.01 -17.83,7.96l-10.29 5.11 -6.98 1.82 -10.73 0.27c-20.51,22.19 -45.1,10.16 -67.94,12.57 -2.72,0.17 -5.45,0.41 -8.1,1.35 -24.3,4.91 -48.88,6.88 -73.38,9.61 -25.17,-0.02 -50.48,3.59 -75.79,0.06l-1.76 -0.28 -1.74 0.33c-5.48,6.78 -12.37,4.33 -18.7,4.59 -23.69,0.96 -47.4,1.44 -71.11,2.09 0,0 -0,-0 -0,-0l-7.28 0.26c0,0 -0.01,0 -0.01,0l-3.97 -1.44 -17.68 2.2 0.09 3.89c0,0 0,0 0.01,0 0,0 -0,0 -0,0 -2.41,0.04 -4.8,0.12 -7.2,0.18 -4.47,-0.01 -8.94,0.16 -13.41,0.33 -4.49,0.13 -9.01,0.12 -13.51,0.18 -3.65,-0.1 -7.31,-0.37 -10.98,-0.98 -10.04,-3.81 -20.5,1.18 -30.48,-3.31l-3.81 -0.22c-4.62,8.29 -12.94,0.86 -18.83,7.02 6.06,8.09 12.62,7.28 18.99,7.5 15.46,6.25 31.01,8.7 46.52,8.47 15.45,-0.5 30.91,-3.46 46.34,-7.37 0.09,-0.91 0.13,-1.72 0.16,-2.49 0.27,0.22 0.56,0.33 0.83,0.57l17.99 -0.57c0.89,-1.54 1.89,-2.52 2.94,-3.28 -0.5,1.48 -0.9,3.44 -1.42,6.06 4.28,3.71 9.12,4.26 13.9,3.83 47.24,-4.22 94.58,4.82 141.85,2.31 20.78,-1.46 41.6,-4 62.26,5.41 7.43,3.38 15.31,-0.26 23.03,-1.37 27.69,-3.97 54.49,-17.57 83.14,-10.61 1.86,0.92 3.7,1.77 5.61,2.44 4.13,0.71 6.48,5.17 9.26,8.7 -0.58,0.1 -1.02,0.49 -1.32,1.15 -0.03,-0.04 -0.06,-0.06 -0.09,-0.1l-3.93 -0.67c-1.08,0.33 -2.19,0.56 -3.3,0.67 -0.17,1.24 -0.28,2.5 -0.34,3.76l0 0.01c-0.41,-0.47 -0.93,-0.89 -1.55,-1.24 -26.02,-5.27 -51.75,-7.07 -76.76,5.31l-11.06 1.2c0,0 0,0 0,0 0,0 0,0 0,0l-14.41 0.39 0 0c0,0 0,0 0,0l-14.53 0.38 -3.04 0.65c-0.74,-0.31 -1.48,-0.63 -2.21,-0.96 -14.32,-0.02 -28.82,-2.81 -42.65,4.57l-2.15 3.11 -0.34 0.52c-0.61,-1.66 -1.83,-2.94 -3.2,-4.13 -12.25,-4.59 -24.51,-2.67 -36.71,-0.22 -13.22,6.24 -27.34,1.39 -40.78,5 -15.1,3.61 -31.05,-3.09 -45.69,6.38l-10.47 0.64c-2.43,6.05 -7.15,4.09 -10.82,5.79 -5.17,7.33 -11.97,3.68 -18.04,4.94 -32.77,2.38 -65.79,-4.14 -99.1,7.31 4.88,8.89 11.27,7.19 17.07,8.98 27.44,8.67 54.71,10.82 82.55,9.04 5.18,-0.37 12.57,1.47 12.65,10.31 0.08,9.75 -7.15,9.06 -12.61,9.15 -5.25,-4.41 -9.1,-2.5 -12.33,2.3 -0.48,-0.19 -0.97,-0.37 -1.44,-0.59 -1.82,-0.53 -3.66,-0.83 -5.52,-0.77 -7.37,0.87 -14.39,4.02 -21.57,6.09 -6.83,3.48 -14.62,1.81 -21.11,6.73 -5.17,3.93 -12.28,8.04 -3.18,17.49l3.28 5.76c-0.36,0.01 -0.72,0.51 -1.1,1.51 -0.39,1.04 -0.08,2.11 0.91,3.24 0.55,1.52 0.5,3 -0.16,4.45 -1.01,4.27 -5.17,1.86 -6.44,5.59 -10.72,8.5 -22.44,3.93 -33.78,4.1l-14.27 1.26c-0.46,0.59 -0.95,1 -1.44,1.45 -5.42,-0.46 -10.83,-0.93 -16.25,-1.41 -5.64,-1.25 -10.96,0 -15.98,3.7l-29.28 0.3 0.1 8.08 32.85 2.27c24.14,3.61 48.59,2.91 72.59,9.78 3.19,1.19 6.42,1.77 9.7,1.98 23.08,-1 46.11,0.65 69.17,-4.95 23.17,-5.63 38.08,6.01 48.57,32.01 4.05,3.19 7.87,3.14 11.4,-0.83 13.35,12.13 28.08,3.77 42.11,5.75 0.63,-0.04 1.26,-0.11 1.89,-0.16 2.53,2.99 5.81,3.58 8.82,5.07 3.57,2.87 9.31,-0.2 11.18,7.68 -1.71,1.44 -3.33,3.2 -4.42,5.73l-3.62 4.79c-1.33,4.43 -4.46,4.48 -7.26,5.33 -1.51,4.18 -4.48,4.62 -7.41,5.19 -5.13,7.81 -12.24,3.69 -18.43,5.12 -10.89,12.93 -2.84,20.17 5.57,21.02 21.78,2.19 43.72,10.91 65.59,2.65l3.65 -0.03c24.81,4.06 49.45,-1.06 74.22,-0.91 1.57,-0.78 2.51,-1.62 3.1,-2.52l15.84 -0.66c1.28,0.07 2.56,0.12 3.87,0.11 3.61,-0.03 7.2,-0.33 10.78,-0.72l20.65 -0.87c-0.41,1.48 -0.31,3.11 0.43,4.96l3.69 0.09c2.25,2.68 2.06,6.43 2.54,9.88 5.63,30.31 23.71,46.67 54.11,48.89 4.07,2.5 8.86,-1.15 12.72,3.25 1.16,0.14 2.32,0.24 3.48,0.29 13.71,0.63 27.56,-6.08 41.13,2.55l8.25 4.15c2.35,3.2 5.36,4.57 8.42,5.77 7.3,1.28 14.54,0.1 21.8,-0.04 10.75,-0.49 21.47,-1.34 32.2,-2.07 12.11,5.86 24.79,10.27 37.7,13.69 -10.34,3.02 -20.13,9.49 -30.91,9.86 -2.58,1.35 -4.91,3.25 -7.08,5.53 -5.48,6.38 -12.13,8.89 -19.16,10.13 -10.55,5.19 -21.78,5.1 -32.82,6.31 -1.92,0.39 -3.77,1.09 -5.52,2.17 -1.77,1.2 -3.52,2.38 -5.24,3.56 -13.24,5.6 -28.69,-3.36 -41.28,8.17l-0.22 -0.26 -3.33 5.37c-15.73,7.31 -32.88,0.26 -48.73,6.53 -1.09,-0.1 -2.14,0.11 -3.15,0.64 -5.49,5.14 -11.96,2.96 -17.98,3.28l-102.08 4.66c-0.86,1.24 -1.46,2.35 -1.94,3.41l-0.52 -0.95 -18.94 0.48 -3.54 5.2c6.21,14.44 16.04,4.93 24.32,5.65 1.77,2.17 4.12,4.07 5.86,6.24 12.82,7.05 24.65,-4.53 37.17,-2.72 8,-0.45 16.02,-1.22 23.88,2.15 10.01,1.95 19.94,1.46 29.79,-1.07 8.76,-3.85 17.61,-6.29 26.91,-2.71 1.8,0.57 3.61,1.08 5.45,1.35 1.02,-0.28 2.04,-0.49 3.06,-0.72 6.43,1.73 13.18,-1.67 19.63,-0.31 6.92,4.37 14.13,0.89 21.2,1.43 2.46,0.81 4.89,1.76 7.3,2.87 1.77,1.52 3.55,3.06 5.49,4.17 3.15,18.63 10.04,29.86 25.69,24.06 0.79,-0.31 1.63,-0.4 2.48,-0.45 0.96,1.2 1.93,2.38 2.89,3.65 2.46,1.34 5,2.2 7.61,2.67 0.59,1.52 1.47,2.89 2.61,4.13 7.34,7.91 5.17,13.87 -1.64,18.97 -1.09,0.16 -2.17,0.38 -3.23,0.67 -15.06,1.74 -30.8,-1.02 -45.73,4.39 -3,0.35 -6,0.39 -8.98,0.83 -4.53,2.67 -9.65,2.31 -14.29,4.4 -6.19,1.91 -10.01,9.4 -15.97,11.76 -5.21,2.05 -5.4,6.96 -2.3,10.93 15.78,20.19 26.63,48.79 56.18,41.03 13.3,-3.46 29.4,-11.87 42.9,-3.81 15.63,9.41 30.91,10.77 46.94,9.61 22.79,-5.2 47.12,5.74 69.12,-8.73 3.07,-2.02 7.7,-2 10.87,0.89 18.72,17.17 39.51,11.26 59.64,13.02 1.95,-0.25 3.83,-0.71 5.69,-1.52 6.5,-3.2 13,-6.02 20.12,-2.21 3.4,1.54 6.74,3.4 10.2,4.67 1.79,0.58 3.6,1.02 5.43,1.17 10.18,0.56 20.16,-1.51 30.19,2.18 7.39,1.18 14.87,-0.52 22.22,2.21 2.87,0.65 5.75,0.85 8.62,0.31 2.29,-0.57 4.35,-1.67 6.05,-3.63l-0.44 1.47 1.36 1.61c20.09,3.28 38.33,-9.54 58.67,-7.96 11.8,0.91 23.88,-5.31 36.32,-0.52 13.64,5.25 26.3,1.22 39.52,-2.76 18.91,-5.69 36.58,-16.94 56.3,-18.59l4.09 4.7c5.13,11.25 12.41,10.04 19.65,7.27 22.31,-8.44 45.19,-7.73 68.5,-7.05 20.95,0.61 42.5,3.7 63,-3.9 4.78,-6.58 12.61,-0.48 17.54,-6.37 -0.24,0.61 -0.56,1.13 -0.67,1.89 0.54,4.32 2.59,6.54 5.58,7.47 7.6,14.35 6.1,33.17 14.88,47.4 2.89,4.68 0.29,10.52 -5.94,10.36 -4.76,-0.13 -9.46,2 -14.16,3.26 -4.03,1.09 -9.29,1.2 -8.05,9.47 1.03,6.82 7.04,0.24 9.19,5.48 13.78,5.3 27.09,-3.9 40.85,0.76l7.65 0.81 10.79 -1.81 -0.2 0.15c10.52,7.27 21.71,2.65 32.46,5.94 2,0.54 4.01,0.95 6.03,1.07 3.06,0.31 6.11,0.3 9.15,0.07 11.28,-4.43 24.3,6.69 34.94,-2.33 1.74,0.61 3.51,1.18 5.24,1.82 18.88,1 37.42,-1.45 55.79,-5.56 1.74,-0.56 3.51,-0.96 5.26,-1.46 1.23,0.57 2.51,0.97 3.85,1.16 13.49,1.13 26.62,-4.69 40.26,-0.3 9.13,1.8 18.02,-0.29 27.04,-0.54 3.57,0.15 8.35,-0.91 9.38,4.97 1.24,7.09 -3.44,9.56 -7.65,10.54 -12.97,3.04 -26.46,2.22 -39.34,5.55 -5.09,1.31 -16.12,-1.17 -9.91,15.21 11.42,1.43 22.79,1.1 34.14,0.3 32.11,-4.15 64.49,-5.68 96.57,-10.07 7.84,-1.07 15.57,-1.28 23.7,2.12 24.97,10.39 50.56,10.96 75.88,16.53 34.21,7.48 69.86,-1.26 101.96,28.23 0.81,0.31 1.57,0.39 2.31,0.35 0.51,7.9 5.46,9.21 9.91,11.23 3.02,0.52 5.94,0.19 8.78,-0.93 23.74,0.51 47.15,-6.33 71.22,0.96 4.99,3.79 10.22,6.57 15.87,6.82 46.89,1.91 93.26,-1.5 139.28,-7.49 21.33,-2.81 42.61,-8.59 64.13,-11.58 7.9,-1.1 15.15,-4.4 22.4,-7.96 6.67,-3.17 13.13,-6.9 19.51,-10.84 1.69,-1.35 3.29,-2.84 4.75,-4.62 17.29,-10 38.28,-1.38 54.98,-14.11 0.09,-0.13 0.12,-0.26 0.2,-0.38 27.48,-6.1 54.33,-8.02 78.46,23.08 5.12,6.61 13.37,7.12 19.36,4.12 21.06,-10.55 43.63,-13.5 65.69,-18.89 10.26,-1.46 20.51,-2.93 30.85,-3.71 5.41,-0.41 10.76,-1.2 15.56,-3.85l4.01 -0.53 25.31 -3.43 10.83 -1.22c28.83,4.4 56.41,0.44 82.91,-11.35 0,0 0,0 0.01,0l35.97 -5.06c17.81,8.05 34.03,-2.13 51.13,-2.2 0,0 -0,0 -0,0 0,0 0,0 0,0l14.33 -1.96 0 0c13.23,5.08 26.33,6.75 39.69,4.78l152.28 -21.79c23.36,-10.65 48.33,-3.29 72.63,-4.04 37.18,-1.15 73.67,-9.26 110.35,-15.08 5.34,-0.85 10.54,-2.56 14.19,-8.25 -0.13,-0.76 -0.3,-1.43 -0.45,-2.1 0.22,0.23 0.45,0.39 0.67,0.65l10.75 -1.54c7.66,7.91 14.87,1.35 22.29,1.69 0,0 0,0 -0,-0 0,0 0,0 0,0l14.3 -1.99c5.78,6.7 11.69,3.03 17.39,2.23 23.11,-3.24 46.17,-6.92 69.24,-10.44l14.3 -2.16c3.8,1.38 7.49,1.59 11.11,1.24 22.08,1.9 43.88,0.17 65.57,-2.79 5.91,9.61 19.71,-3.49 20.21,9.81 0.52,13.81 -13.46,7.17 -20.74,10.58 -0.04,0.06 -0.08,0.09 -0.11,0.14 -0.04,-0.46 -0,-0.81 -0.07,-1.32 -33.87,-3.26 -67.71,-2.95 -99.95,5.8 -16.26,4.41 -26.43,26.72 -38.62,42.07 -2.98,3.76 -2.54,10.46 -0.81,16.39 1.56,4.31 4.31,6.03 7.44,6.91l43.09 -4.82c9,6.46 18.43,5.75 27.74,6.58 8.74,0.21 15.78,-5.79 23.51,-9.24l39.85 -1.05c5.3,4.45 10.92,3.91 16.49,4.14 8.25,-0.04 16,-4.9 24.62,-1.49l6.79 -1.7c13.58,1.13 26.73,-2.41 40.29,-1.36 2.01,-0.1 3.96,-0.55 5.82,-1.44 13.76,-7.21 31.32,0.49 43,-14.76 1.2,1.43 2.55,2.41 3.98,3.14l0.17 1.03c0.81,0.01 1.62,-0.09 2.43,-0.2 3.18,0.39 6.3,0.31 9.39,0 1.18,0.52 2.35,1.34 3.52,2.7 8.79,2.8 17.37,1.36 26.01,1.15 8.65,-2.25 17.75,-0.65 26.49,-2.09 51.97,-6.42 101.58,-26.58 154.67,-26.9 25.54,-0.11 50.95,-2.44 75.26,-10.98 0.47,-0.07 0.93,-0.13 1.4,-0.21 7.27,2.83 13.99,-3.6 21.34,0.74l64.01 -10.69c0,0 -0,0 -0,-0 0,0 0,0 0,0l24.3 -8.74 -0.02 0 0 0c3.57,0.92 7.33,3.07 10.67,2.57l122.15 -19.15 -0.37 -2.55c0.05,-0.01 0.09,-0.02 0.13,-0.03 9.22,-2.75 19.46,-0.63 27.87,-7.2 0.59,-0.95 1.24,-1.72 1.87,-2.54 -0.11,1.43 -0.19,2.96 -0.24,4.69 7.37,4.7 14.36,1.81 21.45,1.05 34.75,-3.73 67.74,-15.45 100.64,-27.57 2,-0.67 3.89,-1.62 5.69,-2.95 3.45,-2.28 5.28,-6.53 7.13,-10.8 0.16,-0.04 0.31,-0.06 0.47,-0.1 -0.33,0.86 -0.67,1.69 -0.92,2.75 6.27,10.37 14.36,11.06 21.74,8.14 9.06,-3.58 18.45,-5.19 27.67,-7.82 1.82,-0.63 3.59,-1.41 5.28,-2.46 6.41,-4.69 13.94,-5.51 20.78,-8.62 1.73,-0.88 3.47,-1.77 5.17,-2.74 32.21,-5.43 62.67,-20.81 96.57,-16.02 11.89,-4.78 25.35,-2.14 36.79,-9.13l10.45 -1.2c7.99,2.79 13.89,-4.84 21.31,-4.88 1.82,-0.44 3.56,-1.15 5.21,-2.17 1.08,-0.76 2.19,-1.42 3.28,-2.14 6.75,0.59 13.05,-1.64 19.18,-4.98l13.07 -7.31c5.96,-5.44 13.41,-4.91 20.32,-6.52 20.22,-4.71 41.38,-4.54 60.93,-12.74l10.17 -1.22 13.78 -4.06c4.66,-2.47 9.59,-3.7 14.6,-4.57 1.41,-0.19 2.82,-0.4 4.22,-0.68 9.33,-1.28 18.8,-1.9 27.35,-6.72l20.62 -5.06 3.63 -0.43 7.05 -0.7c2.01,-3.7 5.82,-2.99 8.36,-5.39 5.34,-2.27 11.06,-3.46 15.5,-8.25 3.37,-4.97 7.43,-8.26 12.83,-8.24 9.57,-11.4 23.14,-6.68 34.49,-10.89l10.01 -1.98c0.86,0.99 1.75,1.98 2.88,2.93 13.69,-2.72 27.67,-4.18 40.69,-10.09 24.18,-2.49 46.44,-12.72 69,-21.71 1.82,0.64 3.44,0.27 4.89,-0.99 3.13,-1.85 6.43,-3.33 8.96,-6.53 17.25,-10.91 36.33,-12.28 55.85,-11.44 4.89,0.59 9.67,0.13 14.41,-0.69 6.7,-1.28 13.45,-2.32 20.03,-4.14 2.88,-0.97 5.56,-2.46 7.8,-4.98 1.55,-2.17 2.65,-4.6 2.82,-7.58 8.09,7.19 15.89,2.47 23.79,2 5.9,-1.21 11.81,-2.32 17.3,-5.2 8.13,-6.16 18.01,-5.78 26.77,-9.55 1.75,-0.78 3.45,-1.7 5.04,-2.91 14.06,-6.45 29.86,-4.94 43.93,-11.24 1.75,-0.95 3.35,-2.2 4.78,-3.83 21.41,-13.52 43.84,-21.65 69.18,-19.31 13.09,1.21 26.62,2.65 39.11,-2.56 -0.21,0.83 -0.43,1.65 -0.45,2.63 0.97,10.48 7.36,14.51 12.88,19.58l40.61 4.15c9.07,3.3 16.96,-4.22 26.03,-1.02 7.99,-6.59 17.43,-7.84 26.77,-9.49 2.35,-3.46 6.24,-1.34 8.98,-3.35 5.98,-2.73 11.89,-5.63 17.5,-9.43 11.66,-6.48 6.38,-16.68 0.71,-26.98 1.52,-4.98 5.38,-5.28 8.51,-7.04 3.1,-1.78 6.29,-3.47 6.62,-9.06 -0.22,-0.88 -0.62,-1.52 -0.98,-2.22 15.23,9.29 28.49,-0.95 42.75,-1.28 13.88,-3.29 28.3,-3.97 41.65,-9.74 15.46,-10.95 35.37,-4.66 50.57,-16.63 0.75,-1.26 1.12,-2.39 1.28,-3.43 1.06,2.04 2.45,3.36 4.19,3.92l10.37 -1.08 26.06 -0.13c0,0 0,0 0,0 2.27,1.21 4.56,3.22 6.8,3.5 35.06,4.24 67.18,-9.91 100.96,-13.72 0,0 0,0 0,0 0,0 0,0 0,0l1.01 4.83 77.62 -14.72 0.01 0c26.25,3.42 50.93,-1.49 74.13,-14.1 0,0 0,0 0,0l14.08 -2.7c7.44,7.26 14.22,2.1 20.93,0.78 15.02,-2.97 29.97,-5.36 46.04,-0.54 -2.06,10.9 -9.24,8.78 -14.63,9.89 -25.74,5.31 -51.34,11.69 -77.47,14.49 -16.06,1.73 -23.56,11.91 -28.23,30.91 -3.22,13.12 1.08,15.07 8.31,14.09 13.03,-1.75 25.87,-4.7 38.78,-7.16 12.5,2.8 24.6,-2.59 37.23,2.91l28.21 -5.24 0 0 10.54 -2c0.03,-0 0.06,-0.02 0.09,-0.02 4.69,14.65 12.96,8.6 19.69,8 30.18,-2.68 61.07,0.74 91,-4.07l6.98 -0.97c8.91,-6.59 19.72,-3.61 29.54,-5.62 64.35,-13.22 128.89,-25.24 193.37,-37.99l17.31 -4.42 0 -0.01 28.73 -4.24 24.2 -6.33c21.08,-18.28 47.38,-22.59 69.37,-38.54 51.98,-14.32 91.87,-57.06 136.43,-88.83l0 0 30.76 -11.41c6.22,-28.89 -6.32,-48.39 -29.98,-44.71 -4.33,0.68 -8.62,1.48 -12.93,2.24 -2.89,-0.33 -5.78,-0.33 -8.62,0.25 -20.44,4.18 -41.05,7.45 -61.45,11.71 -13.15,-3.75 -25.86,-5.89 -34.24,8.54 -0.78,0.24 -1.58,0.44 -2.36,0.68 -1.87,1.32 -3.39,3.15 -4.53,5.55 -0.02,0.25 0.09,0.43 0.09,0.67l-38.33 7.67 0 0.01 -1.7 0.26 -1.69 0.37 -1.14 -4.66 -24.61 4.82c-0.39,0.07 -0.68,0.66 -0.87,1.76 -0.06,0.35 0.08,0.67 0.17,1 -0.1,0.01 -0.2,0.03 -0.29,0.04 -5.41,1.07 -10.84,2.09 -16.27,3.11 -12.56,1.91 -24.98,4.5 -37.29,7.62 -1.39,0.33 -2.8,0.61 -4.19,0.96 -12.97,3.22 -27.17,1.18 -38.89,9.87 -0.59,-1.12 -1.46,-2.04 -2.67,-2.7 -0.14,-0.07 -0.29,-0.1 -0.43,-0.16 21,-14.47 41.09,-30.81 60.39,-48.75 45.02,-8.27 90.1,-16.32 134.59,-27.48 6.76,-2.56 15.06,-0.39 20.2,-7.96 11.51,-5.35 26.41,0.87 35.28,-13.37 16.9,-8.02 34.71,-12.37 52.75,-16.02 10.34,-2.09 21.66,-1.34 29.94,-10.9l51.84 -15.71 -0.95 -4.87 0 0 14.05 -2.96 0 -0c0,0 0,0 0,0 6.44,-1.31 12.78,-3.67 19.35,-3.72 16.59,-0.13 25.73,-8.14 25.1,-33.18 -0.23,-9.16 -0.41,-15.11 -5.88,-21.69 -7.39,-8.89 -4.9,-19.4 0.63,-22.71 8.87,-5.31 14.38,-17.41 24.87,-18.85 6.44,0.72 11.02,-1 8.54,-12.02 1.83,-10.29 5.16,-23.77 11.24,-25.01 19.89,-4.07 14.97,-24.16 15.02,-42.08 0.08,-28.12 -10.53,-40.18 -28.03,-28.09 -11.48,7.94 -23.49,2.33 -34.98,4.35 -2.87,0.51 -6.4,-2.29 -7.13,-6.93 -0.84,-5.3 2.53,-6.32 5.46,-6.96 9.93,-2.17 20.53,-2.26 29.73,-6.67 18.54,-8.86 41.13,-9.3 51.78,-35.96l2.5 -5.67c6.89,-1.41 13.71,-3.18 20.7,-4.13 10.24,-1.4 14.24,-8.3 10.72,-22.65l0 0c6.17,-0.8 7.63,-9.13 11.95,-12.9 -12,-18.43 -19.47,1.41 -29.33,1.08 0,0 0,0 0,0 -1.17,0.24 -2.36,0.43 -3.54,0.57l0.08 0.12 -14.18 2.78 -3.42 0.83c0.3,1.54 0.54,3.09 0.76,4.64 0,0 0,0 0,0l-186.15 38.25 -49.09 10.11c21.2,-13.2 52.12,-29.42 54.05,-37 2.91,-11.46 -43.54,-8.27 -53.39,-16.25 4.2,0.44 8.3,0.64 11.85,-0.97 28.39,-12.87 60.12,-10.99 88.74,-22.65 9.3,7.69 18.9,9.65 27.18,3.2 8.15,-6.34 17.53,-6.58 26.49,-9.08 20.46,-1.35 39.06,-14.1 60.82,-7.44 11.14,-3.38 23.24,0.08 34.66,-1.5 2.5,0.29 5.02,0.72 7.56,1.53 4.79,0.36 9.57,2.01 14.35,2.74 1.52,-0.04 2.99,-0.32 4.48,-0.5 2.5,0.67 4.78,0.26 6.82,-1.22 1.73,-0.43 3.46,-0.82 5.17,-1.37 2.54,-1.35 4.83,-3.15 6.56,-5.98l0.05 0.03c1.09,-6.63 1.53,-13.33 -0.67,-20.37l0 0 -0.97 -4.91 -17.71 -32.23c-6.24,-4.44 -6.2,-12.65 -7.82,-19.72 -11.12,-48.45 -15.38,-53.39 -51.7,-54.46 -7.14,-0.22 -13.05,-1.81 -18.98,-8 -3.77,-3.93 -7.18,-8.1 -6.61,-14.64 0.55,-6.29 4.08,-11.24 8.27,-9.72 23.57,8.56 45.76,-7.27 69.79,6.14 10.22,5.72 19.36,4.74 20.29,-14.14 1.54,-31.58 10.46,-61.04 5.52,-94.46 2.84,-0.72 5.34,-2.14 6.07,-6.44 3.58,-4.48 1.44,-10.24 0.54,-15.71 -2.48,-4.06 -5.39,-7.19 -9.31,-7.7l0 0.01c0,0 0,0 -0,-0.01 -1.19,-0.04 -2.36,-0.02 -3.52,0.06 -4.22,-1.95 -8.44,-3.94 -12.73,-2.97 -2.65,0.89 -5.12,2.06 -6.83,4.42 -18.2,-1.28 -35.08,3.22 -50.74,13.55l-0.01 0 0 0 0 0 -0.01 0 0 0 -55.95 11.71c-7.29,9.22 -17.75,7.9 -26.98,10.66 -11.32,9.19 -26.41,4.24 -37.99,12.4 -0.1,2.19 0.55,3.9 1.55,5.38 -0,0 -0.01,0 -0.01,0 -2.63,-2.31 -5.33,-2.78 -8.05,-1.9 -8.28,4.97 -17.49,5.24 -26.74,5.16 -1.89,0.56 -3.76,1.3 -5.52,2.27 -11.85,2.87 -23.76,5.48 -35.69,8 -0.14,-7.13 -0.43,-14.27 -0.68,-21.41 2.06,-0.45 4.1,-0.96 6.15,-1.43 4.63,-0.87 9.27,-1.7 13.95,-2.31 1.91,-0.25 3.69,-0.86 5.09,-2.4 5.07,-1.35 10.16,-2.67 15.19,-4.22 5.31,-1.08 10.63,-2.07 15.1,-5.94 0.07,-0.08 0.1,-0.17 0.17,-0.25l6.73 -1.47c4.97,0.25 9.67,-0.78 14.11,-3.09l3.01 -0.65c3.83,-0.96 7.55,-2.24 11.01,-4.42 1.09,-0.88 2.24,-1.63 3.4,-2.37 5.73,3.02 10.3,0.31 14.14,-5.9l1.9 -0.4c6.7,1.34 12.93,-1.27 19.34,-2.37 8.64,-2.02 16.43,-6.96 24.5,-10.64 21.85,-9.96 45.58,-11.72 68.05,-18.84 16.96,-5.39 28.69,-26.08 27.66,-49.97l-2.2 -3.31 -4.6 -4.08c-3.17,-8.29 -5.19,-17.89 -7.66,-26.98 5.86,-3.62 10.51,-10.88 14,-22.98 2.55,-8.81 4.17,-14.56 0.71,-22.47 -4.67,-10.69 0.99,-19.98 7.5,-21.5 10.46,-2.43 19.61,-12.33 30.52,-10.59 6.2,2.61 11.29,2.33 12.17,-8.93 4.95,-9.28 12.34,-21.15 18.78,-20.51 21.01,2.09 22.22,-18.57 27.74,-35.66 8.63,-26.81 1.74,-41.5 -19.38,-35.21 -13.83,4.12 -24.13,-4.81 -36.23,-6.3 -3.03,-0.37 -5.7,-4.1 -5.03,-8.74 0.78,-5.31 4.46,-5.28 7.57,-5.02 10.58,0.89 21.22,3.96 31.7,2.52 21.17,-2.9 43.81,3.47 62.55,-18.78 1.41,-1.55 2.81,-3.11 4.22,-4.66 7.3,0.73 14.65,1.08 21.89,2.28 10.59,1.75 16.66,-3.63 17.55,-18.38 0,0 0,0 0,0 6.37,1.1 10.37,-6.41 15.8,-8.7 -6.28,-21.19 -19.76,-4.53 -29.44,-7.8 0,0 0,0 0,0 -1.24,-0.13 -2.47,-0.3 -3.7,-0.53 0,0 0.04,0.13 0.04,0.14 -5,-0.54 -10,-1.07 -15,-1.6 -1.22,-0.06 -2.44,-0.13 -3.67,-0.23 -0.18,1.56 -0.4,3.11 -0.67,4.65 0,0 0,0 0,0 -65.89,-6.39 -131.77,-12.77 -197.66,-19.16 -10.72,-1.01 -21.44,-2.01 -32.15,-3.02 -2.35,-1.52 -4.62,-3.2 -6.81,-5.06 23.01,-5.28 48.55,-10.59 52.07,-16.13 6.41,-10.1 -41.15,-20.83 -48.61,-31.37 4.08,1.67 8.14,3.07 12.18,2.59 32.39,-3.89 63.59,7.41 95.78,4.82 6.98,10.11 15.99,14.85 26.24,11.18 10.09,-3.61 19.56,-1.05 29.28,-0.76 20.85,4.85 43.3,-1.73 63.01,11.15 12.14,0.12 23.19,7.05 35.04,8.98 2.41,1.03 4.77,2.21 7.05,3.74 4.65,1.79 8.89,4.8 13.42,6.94 1.52,0.43 3.07,0.6 4.61,0.88 2.28,1.4 4.66,1.69 7.15,0.9 1.85,0.11 3.69,0.26 5.55,0.24 2.94,-0.53 5.76,-1.55 8.35,-3.73l0.04 0.04c3.11,-6 5.61,-12.26 5.57,-19.63 0,0 0,0 0,0 0.18,-1.66 0.36,-3.32 0.54,-4.98 -2.58,-12.03 -5.16,-24.06 -7.74,-36.09 -4.84,-6.11 -2.29,-13.94 -1.74,-21.17 3.78,-49.57 1.06,-55.57 -34.85,-67.55 -7.08,-2.36 -12.51,-5.65 -16.56,-13.35 -2.57,-4.89 -4.71,-9.89 -2.14,-15.95 2.47,-5.83 7.53,-9.5 11.26,-6.79 20.98,15.25 47.95,6.88 67.82,26.92 8.47,8.55 17.81,10.37 24.51,-7.35 11.21,-29.64 29.13,-55.02 34.54,-88.38 3.08,0.18 5.95,-0.42 7.94,-4.3 4.81,-3.2 4.49,-9.33 5.28,-14.82 -1.18,-4.63 -3.02,-8.47 -6.69,-10.16 0,0 0,0.01 0,0.01l0 0c-1.16,-0.39 -2.33,-0.73 -3.52,-1.02 -3.59,-3.14 -7.18,-6.31 -11.75,-6.69 -2.96,0.04 -5.86,0.28 -8.32,2.08 -17.67,-6.69 -35.92,-7.48 -54.73,-2.38 0,0 0,0 -0.01,0l-0.01 -0.01 0 0c-19.9,-1.9 -39.81,-3.8 -59.7,-5.71 -10.15,6.61 -20.25,2.2 -30.37,2.06 -14.18,5.37 -27.81,-3.91 -41.95,0.41 -0.71,1.91 -0.8,3.65 -0.38,5.26 -1.91,-2.71 -4.36,-3.9 -7.23,-3.88 -9.85,2.27 -19.19,-0.24 -28.47,-3.07 -2.07,-0.04 -4.18,0.11 -6.25,0.52 -12.79,-0.81 -25.57,-1.89 -38.33,-3.04 2.03,-6.85 3.91,-13.75 5.83,-20.65 2.24,0.19 4.47,0.31 6.71,0.48 4.89,0.56 9.78,1.14 14.66,1.96 1.99,0.33 3.97,0.28 5.86,-0.77 5.52,0.23 11.04,0.48 16.57,0.52 5.67,0.56 11.33,1.2 17.01,-1.16 0.1,-0.05 0.16,-0.13 0.25,-0.19 2.42,0.2 4.82,0.4 7.23,0.61 4.92,1.72 9.96,2.14 15.12,1.28 1.08,0.09 2.16,0.19 3.24,0.28 4.15,0.23 8.28,0.13 12.42,-0.91 1.36,-0.51 2.75,-0.89 4.15,-1.24 4.83,4.61 10.24,3.39 16.02,-1.37 0.68,0.06 1.35,0.13 2.04,0.19 6.33,3.29 13.39,2.68 20.16,3.56 9.3,0.67 18.65,-1.7 27.88,-2.78 24.99,-2.92 49.3,2.6 74.02,2.6 18.59,0 36.65,-16.15 43.02,-39.24 -0.39,-1.28 -0.78,-2.55 -1.17,-3.83 -1.11,-1.76 -2.22,-3.52 -3.33,-5.28 -1.78,-26.29 10.13,-60.57 -20.72,-69.97 -1.35,-0.41 -2.24,-3.65 -3.1,-5.74 -6.63,-16.07 -17.22,-23.01 -30.8,-26.84 -16.31,-4.59 -29.21,-33.52 -27.92,-56.72 0,0 0,0 0,0 6.38,-2.69 12.76,-5.37 19.14,-8.06 0.93,1.41 2.04,2.49 3.52,2.93 12.98,-5.61 25.46,-13.65 39.18,-15.22 3.17,-0.36 5.82,-3.12 5.04,-8.46 3.06,-14.96 12.11,-22.17 21.84,-25.4 12.01,-3.98 21.52,-12.97 31.92,-21.09 9.74,-7.59 14.5,-16.19 13.54,-29.77 -0.88,-12.31 -6.85,-19.2 -15.07,-24.74 -21.37,-14.39 -40.19,-32.18 -39.26,-69.81 -3.51,-6.26 -8.4,-9.7 -14.05,-11.6 -4.2,-6.28 -8.83,-11.76 -15.02,-14.48 -4.53,-2.61 -9.07,-2.79 -13.65,0.84 -0.02,-8.81 -6.18,-9.72 -10.13,-13.44 -8.92,-7.14 -20.13,-6.79 -29.04,-13.95 -5.57,-5.59 -9.8,-13.65 -17.19,-15.91 -6.26,2.02 -13,-6.02 -18.97,2 -0,-0 -0.01,-0.01 -0.01,-0.02 -3.41,-3.65 -6.81,-7.29 -10.22,-10.93 15.67,-20.76 29.19,-45.84 53.25,-49.93 4.25,-0.72 8.77,1.31 12.31,-4.06 20.12,-0.94 39.67,9.52 60.17,0.79 0.01,0 0.01,0 0.01,0 1.23,0.11 2.46,0.19 3.69,0.24 0,0 0,0 0,0l0 0c15.41,3.81 30.54,-2.54 45.76,-5.66 9.47,-17.08 8.5,-22.04 -5.36,-25.43 -4.2,-1.03 -8.65,-1.41 -12.96,-0.9 -24.96,2.96 -48.35,-7.87 -72.84,-8.98 -2.25,-0.1 -4.03,-3.09 -2.63,-7.2 13.88,-5.38 27.74,7.54 41.69,-2.78 0,0 0,0 0,0 1.24,0.11 2.48,0.22 3.72,0.32 0.24,-0.22 0.48,-0.35 0.72,-0.56 0.08,0.98 0.16,1.95 0.42,3.14 14.26,7 29.55,1.84 44.3,2.49 19.32,0.84 27.57,-16.17 20.76,-39.89 -3.29,-11.5 -8.13,-22.57 -4.75,-35.48 4.78,-18.26 0.61,-32.46 -7.79,-45.45 -7.91,-12.32 -17.96,-22.1 -23.88,-36.71 -2.18,-3.7 -4.36,-7.39 -6.54,-11.09 -15.25,-11.54 -30.5,-23.09 -45.75,-34.63 -4.94,-9.74 -12.17,-13.07 -20.98,-11.99 -1.94,0.6 -3.63,1.8 -5.13,3.58 -0.86,-1.51 -1.72,-3.01 -2.58,-4.51 0.25,0.01 0.41,0.09 0.67,0.09 2.51,-11.08 11.06,-4.17 15.34,-10 21.43,-3.61 42.78,-4.06 64.2,-3.38 17.93,0.56 35.67,-2.72 47.87,-25.39 -1.57,-9.92 -3.13,-19.83 -4.69,-29.76 -4.82,-7 -11.84,-3.05 -17.67,-5.02 -11.93,-3.72 -24.7,-3.3 -35.96,-10.31 -1.94,-1.01 -3.93,-1.86 -5.98,-2.44 -18.81,-3.5 -37.93,-4.24 -56.91,-6.34 10.06,-20.54 23.91,-40.44 30.78,-61.52 17.35,0.2 34.74,-0.38 52.07,-0.39 12.57,-0.01 22.56,-11.02 22.53,-31.02 -5.92,-8.5 -13.87,-7.87 -21.85,-7.08 -9.68,-2.06 -19.36,-4.14 -29.11,-5.61 -0.01,-0.31 -0.04,-0.63 -0.04,-0.93 -3.48,-4.18 -7.97,-7.42 -15.3,-8.04l0 0.01c0,0 0,0 0,0 -2.28,-0.06 -4.57,-0.07 -6.86,-0.02 -6.27,-1.71 -12.57,-3.33 -19.43,-3.38 -4.51,-3.64 -9.69,-5.3 -14.54,-7.94 -6.03,-3.3 -15.35,-3.7 -16.08,-13.41 -0.15,-2.04 0.18,-3.72 0.72,-5.25 19.89,-9.43 34.57,-24.22 38.3,-40.67l-3.25 -3.4 -7.69 -4.22c-10.59,-25.1 2.13,-61.75 -58.06,-62.39 -2.65,-0.02 -5.19,-2.93 -7.39,-4.74 -1.75,-1.44 -3.58,-2.7 -5.43,-3.93 0.05,-0.69 0.15,-1.36 0.28,-2.01 3,-0.55 6.01,-1.3 9.01,-2.22 7.76,-2.38 15.2,-8.45 23.45,-5.47 1.13,0.11 2.26,0.25 3.38,0.44 3.26,0.75 6.11,-0.23 8.28,-4.04 2.16,-10.81 7.04,-16.86 14.9,-11.37 7.38,5.16 12.96,2.25 18.31,-4.85 9.76,-12.99 19.44,-11.12 27.7,-0.47 8.81,11.36 15.16,9.96 22.2,-4 2.27,-4.51 6.9,-7.02 10.44,-10.44 4.52,-9.57 14.87,-14.33 13.94,-28.39 -8.47,-2.88 -18.42,1.6 -25.69,-7.27 -10.59,-6.48 -21.18,-12.96 -31.76,-19.43 -1.19,-0.72 -2.37,-1.45 -3.55,-2.17 0.2,-1.67 0.4,-3.35 0.65,-5 4.54,-29.44 -5.72,-43.47 -27.7,-33.07 -13.11,6.2 -25.02,0.67 -37.26,0.12 14,-5.16 25.48,-12.07 36.8,-19.34 21.41,-5.31 44.87,-4.95 60.13,-29.59 1.26,-1.87 2.51,-3.74 3.77,-5.61 8.13,-0.57 16.25,-1.55 24.39,-1.63 11.92,-0.11 17.58,-6.81 15.84,-22.31 0,0 0,0 0,0 7.18,-0.01 10.17,-8.56 15.7,-11.93 -10.77,-20.89 -22.48,-1.1 -33.69,-2.74 0,0 0,0 0,0 -1.38,0.09 -2.76,0.14 -4.14,0.13 0,0 0.07,0.13 0.07,0.13 -5.57,0.35 -11.15,0.72 -16.72,1.07 -1.35,0.17 -2.71,0.31 -4.06,0.43 0.09,1.66 0.13,3.31 0.13,4.96 0,0 0,0 0,0 -22.99,1.69 -45.97,3.37 -68.95,5.06 -40.27,-7.67 -76.67,-19.2 -87.71,-50.8 2.38,-0.46 4.77,-0.82 7.13,-1.41 9.5,9.24 20.25,12.52 30.8,6.83 10.39,-5.6 21.23,-4.66 31.94,-6.13 23.72,1.24 47.11,-9.69 71.07,0.1 13.32,-2.09 26.7,3.09 40.04,2.94 2.83,0.63 5.63,1.43 8.41,2.6 5.43,1.01 10.63,3.37 15.98,4.76 1.74,0.17 3.47,0.06 5.2,0.07 2.75,1.04 5.41,0.91 8,-0.37 2.04,-0.22 4.09,-0.4 6.13,-0.76 3.11,-1.09 6.03,-2.66 8.45,-5.4l0.06 0.04c2.31,-6.8 3.89,-13.77 2.5,-21.43 0,0 0,0 0,0 -0.11,-1.76 -0.22,-3.52 -0.33,-5.27 -5.03,-12.04 -10.07,-24.07 -15.11,-36.11 -6.43,-5.47 -5.07,-14.07 -5.8,-21.69 -4.97,-52.22 -9.05,-57.96 -50.6,-63.86 -8.19,-1.16 -14.74,-3.59 -20.59,-10.85 -3.71,-4.61 -6.98,-9.42 -5.28,-16.19 1.64,-6.52 6.5,-11.25 11.09,-9.12 25.79,12.02 53.79,-1.59 79.24,15.61 10.85,7.34 21.4,7.53 25.49,-12.12 6.83,-32.86 21.8,-62.51 21.6,-98.17 3.41,-0.38 6.44,-1.52 7.9,-5.92 4.69,-4.2 3.2,-10.52 3.06,-16.37 -2.14,-4.59 -4.86,-8.26 -9.19,-9.33 0,0 0,0 0,0 0,0 0,0 0,0 -1.34,-0.19 -2.69,-0.33 -4.04,-0.42 -4.52,-2.61 -9.03,-5.25 -14.1,-4.81 -3.23,0.59 -6.37,1.35 -8.73,3.68 -20.59,-3.72 -40.72,-1.22 -60.4,7.52 0,0 0,0 -0,0l-0.01 0 0 0c-22.15,1.66 -44.3,3.31 -66.46,4.96 -9.9,8.71 -21.77,5.97 -32.89,7.68 -14.54,8.16 -31.19,1.02 -45.87,8.08 -0.44,2.11 -0.21,3.94 0.55,5.53 -1.31,-1.25 -2.71,-2.08 -4.18,-2.5 -1.3,-9.96 -7.54,-17.94 -17.12,-24.77 0.33,-0.18 0.69,-0.28 1.01,-0.48 0.1,-0.07 0.15,-0.17 0.24,-0.24 2.68,-0.24 5.35,-0.46 8.03,-0.69 5.7,0.89 11.3,0.41 16.8,-1.43 1.2,-0.11 2.39,-0.19 3.59,-0.3 4.58,-0.52 9.09,-1.38 13.44,-3.2 1.4,-0.78 2.85,-1.43 4.31,-2.05 6.14,3.91 11.85,1.66 17.29,-4.35 0.76,-0.06 1.51,-0.11 2.27,-0.17 7.53,2.27 15.16,0.34 22.74,0.02 10.31,-1 20.11,-5.17 30.03,-7.98 26.84,-7.59 54.48,-6.29 81.56,-10.8 20.37,-3.4 37.18,-23.48 39.92,-48.64 -0.67,-1.25 -1.33,-2.51 -1.99,-3.76 -1.54,-1.63 -3.08,-3.26 -4.63,-4.89 -6.77,-27 -0.04,-64.81 -35.55,-68.95 -1.56,-0.19 -3.12,-3.38 -4.45,-5.41 -10.21,-15.5 -23.09,-20.79 -38.67,-22.28 -18.71,-1.8 -38.15,-29.52 -41,-53.87 6.49,-3.95 12.99,-7.91 19.49,-11.87 1.27,1.3 2.69,2.22 4.39,2.41 13.19,-8.2 25.38,-18.83 40.13,-22.97 3.41,-0.95 5.8,-4.31 3.96,-9.72 0.6,-16.11 9.19,-25.26 19.26,-30.39 12.43,-6.33 21.19,-17.41 31.09,-27.75 9.27,-9.67 12.91,-19.48 9.35,-33.42 -3.22,-12.63 -11.04,-18.71 -21.06,-22.96 -26.06,-11.06 -49.94,-26.13 -55.84,-65.41 -4.99,-5.87 -10.99,-8.56 -17.53,-9.49 -5.74,-5.76 -11.83,-10.61 -19.12,-12.31 -5.44,-1.89 -10.45,-1.25 -14.79,3.36 -1.64,-9.16 -8.56,-8.97 -13.56,-12.13 -11.08,-5.8 -23.31,-3.38 -34.37,-9.2 -7.13,-4.79 -13.24,-12.4 -21.75,-13.41 -6.51,3.26 -15.44,-4.09 -20.5,5.48 -4.38,-3.15 -8.76,-6.3 -13.13,-9.45l0 0c13.35,-24.44 23.56,-52.98 49.16,-61.62 4.52,-1.53 9.85,-0.24 12.74,-6.46 21.87,-4.65 45.2,2.67 66.07,-10.16 0,0 0,0 0,0 1.37,-0.11 2.73,-0.26 4.09,-0.44l0 0c17.58,1.15 32.98,-8.22 49.08,-14.23 7.23,-19.48 5.27,-24.46 -10.55,-25.46 -4.78,-0.3 -9.73,0.12 -14.35,1.43 -26.8,7.63 -54.41,0.65 -81.44,3.96 -2.48,0.31 -4.98,-2.47 -4.21,-7 14.21,-8.13 31.78,2.78 45.16,-10.5 0,0 0,0 0,0 1.38,-0.1 2.76,-0.21 4.13,-0.34 0.22,-0.27 0.46,-0.46 0.69,-0.71 0.27,1 0.54,1.99 1.04,3.18 16.91,4.68 32.7,-3.48 48.98,-5.5 21.33,-2.64 27.22,-21.83 15.42,-45.26 -5.72,-11.35 -13.06,-21.98 -11.73,-36.01 1.88,-19.85 -5.3,-33.85 -16.88,-45.83 -10.93,-11.37 -23.74,-19.7 -32.91,-33.8 -3.07,-3.44 -6.14,-6.89 -9.2,-10.33 -18.83,-9.21 -37.65,-18.43 -56.48,-27.65 -7.2,-9.22 -15.73,-11.37 -25.19,-8.64 -2.01,0.97 -3.65,2.53 -4.96,4.65 -1.22,-1.41 -2.44,-2.81 -3.66,-4.22 0.27,-0.03 0.47,0.02 0.75,-0.03 0.72,-11.98 11.35,-6.36 14.96,-13.2 22.81,-7.67 46.12,-12.01 69.7,-15.22 19.75,-2.68 38.58,-9.33 47.78,-35.13 -3.54,-10.02 -7.07,-20.05 -10.61,-30.07 -6.57,-6.4 -13.53,-1.01 -20.28,-2 -13.76,-1.69 -27.67,1.08 -41.28,-4.16 -2.3,-0.7 -4.64,-1.22 -7,-1.45 -22.59,-0.22 -44.97,2.92 -67.49,4.07 -12.16,0.41 -24.19,3.81 -36.49,0.71 -2.16,-0.54 -4.32,-0.96 -6.52,-1.09 -4.28,-0.45 -8.54,-0.43 -12.79,-0.13 -3.13,0.15 -6.26,0.35 -9.37,0.77 -4.12,0.44 -8.19,1.06 -12.02,3.1 -1.53,1.02 -2.76,2.44 -3.78,4.18 -1.36,-3.13 -2.94,-5.56 -5.3,-5.55 4.5,-5.07 9.11,-9.92 14.7,-13.12 6.68,-6.28 16.09,-6.49 21.75,-15.06 0,0 -0.01,0 -0.01,0 3.55,-12.35 -1.96,-15.34 -10.09,-15.12 -6.72,0.18 -13.42,0.87 -20.14,1.34l0 0c-6.03,-7.58 -13.2,-4.09 -19.84,-3.69 -24.22,1.46 -48.4,3.5 -72.61,5.15 -7.41,0.5 -15.25,2.59 -21.19,-6.8 11.68,-7.93 26.73,2.43 37.23,-10.24 1.39,-0.1 2.77,-0.21 4.15,-0.32 30.96,1.51 60.24,-12.31 91.06,-12 5.54,-0.39 11.07,-0.79 16.61,-1.18l-0.01 0.01 0 0c1.77,1.35 3.53,3.8 5.3,3.88 41.57,1.93 82.04,-7.76 122.7,-14.56 13.76,-2.3 22.68,-15.57 18.98,-36.36 -8.05,-7.76 -16.64,-5.65 -25.24,-3.37 -23.09,-0.79 -46.2,-1.78 -68.93,3.75 -1.16,0.57 -2.23,1.29 -3.24,2.13 -1.14,-2.1 -2.28,-4.2 -3.42,-6.29 -1.15,-2.13 -2.61,-3.81 -4.42,-5.01 -5.83,-3.33 -12.12,-4.02 -18.18,-5.97 -4.24,-1.37 -9.49,-1.54 -13.66,-3.42 1.54,-6.74 1.44,-11.81 -5.09,-17.37 2.66,-4.46 7.67,-7.75 10.85,-11.71 5.19,-6.46 8.63,-11.74 10.31,-16.32 13.12,-5.52 25.24,-12.49 40.95,-13.24 12.28,1.02 21.72,-0.51 20.41,-11.73 6.83,-10.31 17.52,-23.72 29.71,-24.69 39.81,-3.16 36.67,-23.65 42.48,-41.71 9.12,-28.34 -7.62,-41 -45.44,-29.63 -24.77,7.45 -46.37,1.27 -69.35,2.8 -5.75,0.38 -11.73,-2.6 -11.69,-7.3 0.06,-5.38 6.94,-6.27 12.83,-6.78 0.08,-0.01 0.17,-0.01 0.26,-0.02 7.48,5.59 12.79,5.33 16.94,-1.11 14.46,-0.76 28.96,-1.39 42.72,-4.25 38.81,-8.07 82.78,-7.45 111.97,-33.84l6.68 -5.6c13.83,-1.09 27.66,-2.57 41.5,-3.19 20.24,-0.91 30.18,-7.67 27.98,-22.31l0 0c12.19,-0.49 17.69,-8.83 27.24,-12.41 -17.28,-19.16 -38.11,0.47 -57.07,-0.35 0,0 0,0 0,0l-7.04 0.4 0.12 0.13c0,0 -0.01,0 -0.01,0 0,0 0.01,0 0.01,-0l-28.44 2.14 -6.92 0.68c0.08,1.57 0.07,3.14 -0.02,4.71 0,0 -0,0 -0,0l-172.94 13.93c-9.99,-3.75 -19.98,-7.5 -29.98,-11.25 -18.69,-7.01 -37.37,-14.02 -56.06,-21.03 -1.62,4.12 -4.72,4.72 -7.92,5.11 -5.41,-0.43 -10.84,-1.3 -16.23,-1.19 -10.71,0.21 -19.41,-6.2 -27.81,-13.55 19.87,-1.49 39.68,-3.4 59.29,-6.86 15.69,8.16 33.78,10.56 51.97,4.43 17.9,-6.03 36.27,-5.86 54.53,-7.98 40.22,-0.41 80.47,-12.4 120.67,-4.69 22.72,-2.89 45.19,1.15 67.85,0.11 4.76,0.41 9.49,0.98 14.15,1.91 9.17,0.6 17.87,2.5 26.9,3.46 2.95,0.05 5.89,-0.17 8.84,-0.28 4.62,0.81 9.15,0.5 13.6,-0.89 3.48,-0.35 6.96,-0.65 10.44,-1.13 5.34,-1.24 10.36,-2.93 14.61,-5.7l0.09 0.04c4.24,-6.63 7.26,-13.37 5.28,-20.57l0 0 -0.29 -5 -23.91 -33.36c-10.66,-4.78 -7.94,-13.06 -8.8,-20.26 -5.93,-49.39 -12.57,-54.58 -82.85,-57.4 -13.84,-0.56 -24.86,-2.43 -34.43,-8.95 -6.08,-4.14 -11.4,-8.5 -8.19,-15.06 3.09,-6.31 11.59,-11.15 19.27,-9.43 43.22,9.72 91.41,-5.14 133.8,9.54 18.07,6.26 35.99,5.72 43.87,-13.25 13.19,-31.75 40.03,-60.99 41.4,-94.93 5.8,-0.59 11.01,-1.89 13.71,-6.17 8.07,-4.32 5.86,-10.23 5.89,-15.8zm-7845.44 1991.32c0.1,-0.04 0.2,-0.06 0.3,-0.1 0.06,0.06 0.12,0.09 0.18,0.15 -0.18,-0.02 -0.3,-0.04 -0.48,-0.05zm727.41 2837.06c0.09,-0.03 0.18,-0.04 0.26,-0.07 0.05,0.06 0.11,0.08 0.15,0.14 -0.16,-0.02 -0.26,-0.04 -0.42,-0.07zm3571.7 622.09c-0.24,-0.16 -0.48,-0.22 -0.72,-0.39 0.28,-0.05 0.57,-0.09 0.85,-0.14 -0.04,0.16 -0.08,0.36 -0.13,0.53zm-3238.87 -880.5c1.53,1.11 3.09,2.24 4.63,3.42 -1.38,0.35 -2.69,0.72 -4.02,1.09 0.02,-1.28 -0.19,-2.77 -0.61,-4.51zm6518.12 -3048.69c0,0.01 0,0.03 0,0.04 -2.67,-0.04 -5.67,0.33 -8.15,0.06 2.7,-0.31 5.42,-0.36 8.15,-0.1zm-99.27 1765.38c-0.01,0.03 -0.01,0.06 -0.02,0.09 -2.26,-0.44 -4.71,-0.69 -6.83,-1.26 2.31,0.14 4.59,0.54 6.85,1.16zm-1709.94 1810.74c-0,-0.02 -0,-0.03 -0.01,-0.04 0.03,-0.01 0.06,-0.01 0.09,-0.02 -0.03,0.02 -0.06,0.04 -0.09,0.06zm-4437.22 282.44c-0.03,0.04 -0.06,0.1 -0.08,0.15 -0.1,-0.16 -0.2,-0.28 -0.3,-0.43 0.2,-0.11 0.38,-0.26 0.58,-0.39 0.07,0.21 0.15,0.41 0.22,0.63 -0.15,0.02 -0.28,0.03 -0.42,0.05zm-1239.28 -2438.83c0.01,-0.03 0.01,-0.06 0.02,-0.09 2.26,0.4 4.72,0.61 6.85,1.14 -2.31,-0.1 -4.6,-0.46 -6.86,-1.05zm361.94 -1375.49c0.61,0.13 1.2,0.29 1.85,0.39 0.02,0.09 0.04,0.17 0.06,0.26 -0.65,-0.14 -1.29,-0.36 -1.93,-0.56 0,-0.03 0.01,-0.06 0.02,-0.09zm4082.67 3713.21l-0.13 -0.09 0.13 -0.07 -0 0.16c0.52,-0.04 1.02,-0.16 1.53,-0.22 0,0.25 -0.01,0.53 -0,0.76 -0.51,-0.2 -1.01,-0.31 -1.52,-0.55zm2742.7 -1789.26c-0.13,0.03 -0.25,0.04 -0.38,0.07 -0.02,-0.04 -0.04,-0.07 -0.06,-0.1 0.15,0.01 0.29,0.02 0.44,0.03l0 0 0 0zm104.43 10.11c-0.8,-0.08 -1.59,-0.15 -2.38,-0.23 0.07,-0.22 0.15,-0.46 0.21,-0.67 0.72,0.31 1.46,0.55 2.19,0.87 -0.01,0.01 -0.01,0.02 -0.02,0.02zm22.96 6.91c0,0.14 0,0.29 0,0.44 -0.32,-0.07 -0.64,-0.1 -0.96,-0.18 0.32,-0.09 0.64,-0.19 0.95,-0.27zm-212.09 156.26c0.22,-0.06 0.44,-0.07 0.66,-0.13 -0.01,0.08 -0.02,0.17 -0.03,0.26 -0.2,-0.06 -0.42,-0.07 -0.63,-0.13zm-166.54 560.5c-0.11,0.07 -0.22,0.11 -0.32,0.18 -0.03,-0.02 -0.06,-0.05 -0.09,-0.08 0.14,-0.03 0.28,-0.06 0.41,-0.09l0 0 0 0zm120.95 -19.75c-0.31,0.03 -0.61,0.09 -0.92,0.11 0.26,-0.18 0.52,-0.35 0.79,-0.53 0.04,0.14 0.09,0.28 0.13,0.42zm-23.04 -0.44l-2.23 0.46c-0,-0.22 0.01,-0.48 -0,-0.69 0.75,0.09 1.49,0.11 2.24,0.21 -0.01,0 -0.01,0.01 -0.01,0.02zm-6694.61 -4216.46c0.04,0.04 0.08,0.07 0.12,0.11 -0.28,-0.02 -0.55,-0.04 -0.83,-0.07l0 0c0.24,-0.02 0.47,-0.02 0.71,-0.04zm6493.09 -884.09c0.21,-0.17 0.43,-0.33 0.64,-0.52l0.04 0.46c-0.22,0.02 -0.46,0.04 -0.68,0.05zm-22.24 19.99c1.16,0.47 2.28,1.01 3.3,1.69 0,0 0,0 0,0l0 0c-1.31,0.07 -2.63,0.18 -3.94,0.26 0.28,-0.7 0.5,-1.35 0.64,-1.94zm473.41 975.95c-0.23,0.06 -0.46,0.1 -0.69,0.17 -0.04,-0.03 -0.09,-0.06 -0.14,-0.09 0.28,-0.02 0.55,-0.05 0.83,-0.07l0 0c0,0 0,0 0,0zm86.39 905.9c-0,-0.01 -0,-0.02 -0.01,-0.02 -0.45,0.03 -0.91,0.06 -1.36,0.09 0.58,-0.27 1.17,-0.58 1.75,-0.8 -0.13,0.25 -0.26,0.44 -0.39,0.7l0.01 0.02c0,-0 0,0 0,0.01zm-7272.94 -1045.94c0.54,0.08 1.09,0.14 1.63,0.23 -0.52,0.06 -1.04,0.12 -1.57,0.17 -0.02,-0.13 -0.04,-0.28 -0.06,-0.4zm43.76 9.3l4.51 0.43c-0.1,0.21 -0.24,0.44 -0.33,0.65 -1.39,-0.37 -2.8,-0.67 -4.19,-1.06 0,-0.01 0.01,-0.02 0.02,-0.02zm2267.19 -961.97c0.19,1.69 0.43,3.2 0.76,4.55 -1.69,-1.13 -3.3,-2.46 -4.69,-4.27 1.3,-0.11 2.62,-0.17 3.93,-0.28zm5068.91 1077.11c0.06,-0.23 0.16,-0.48 0.22,-0.7 1.43,0.12 2.88,0.18 4.31,0.31 -0.01,0.01 -0.01,0.02 -0.01,0.03l-4.51 0.37zm-55.84 1677.04c-0.88,0.07 -1.76,0.13 -2.65,0.19 0.03,-0.24 0.08,-0.5 0.11,-0.73 0.85,0.19 1.7,0.3 2.56,0.51 -0,0.01 -0,0.02 -0.01,0.03zm-3387.45 3491.01c-0.38,-0.15 -0.76,-0.3 -1.12,-0.41 0.11,-0.06 0.22,-0.12 0.33,-0.19 -1.11,-2.9 2.29,-0.71 0.8,0.6zm-10.13 -4.5c-0.18,-0.26 -0.37,-0.45 -0.54,-0.76l0.45 -0.07c0.02,0.29 0.06,0.57 0.09,0.83zm-3793.63 -1395.96c0.02,0.04 0.01,0.07 0.02,0.11 -0.06,-0 -0.12,-0.01 -0.18,-0.01 0.06,-0.04 0.11,-0.06 0.16,-0.1zm4954.15 -4952.13c1.5,3.11 -4.53,-1.72 -5.49,-1.67 0.11,-0.01 0.21,-0.02 0.32,-0.03l0 0 4.98 0.94c0.03,0.24 0.06,0.48 0.19,0.75zm-2500.19 6425.2c-0.11,0.02 -0.22,0.03 -0.33,0.05 0.33,-0.92 0.65,-1.92 0.96,-3.06 -0.17,1.15 -0.4,2.08 -0.62,3.02zm-2363.9 -1566.4c0.69,0.09 1.38,0.15 2.07,0.23 -0.23,0.65 -0.42,1.28 -0.57,1.85 -0.54,-0.62 -1.06,-1.28 -1.5,-2.08zm4383.24 1432.34c-0,-0.09 0,-0.18 -0,-0.27 0.06,-0.01 0.11,-0.02 0.17,-0.03 -0.05,0.12 -0.11,0.19 -0.17,0.3zm-2013.02 121.62c0.06,0.15 0.18,0.34 0.24,0.49 -0.18,0 -0.36,-0.02 -0.54,-0.02 0.09,-0.15 0.19,-0.32 0.3,-0.47zm475.25 -83.95c0.25,-0.02 0.49,-0.04 0.74,-0.06 0.25,0.18 0.49,0.29 0.74,0.49 -0.57,0.15 -1.15,0.27 -1.72,0.41 0.08,-0.27 0.17,-0.55 0.24,-0.84zm-2554.82 -1265.2c0.14,-0.19 0.27,-0.44 0.41,-0.64 0.22,0.19 0.44,0.38 0.65,0.57 0,0 0,0.01 0.01,0.02 -0,0 -0.02,0 -0.02,0l0.01 -0.02c-0.37,0.07 -0.7,0.02 -1.06,0.06zm5610.32 -4971.42c-0.22,0.22 -0.41,0.49 -0.61,0.72 -0.45,-0.14 -0.91,-0.28 -1.35,-0.41l-0.02 -0.01 0.04 -0.01 -0.02 0.02c0.67,-0.17 1.31,-0.18 1.97,-0.31zm-5606.75 4961.52c0.07,0.08 0.14,0.13 0.21,0.21 -0.02,0.18 -0.13,0.28 -0.11,0.49 0.24,2.16 -0.55,0.55 -0.1,-0.7zm3748.22 1137.05c0.02,-0 0.04,-0 0.06,-0.01 0.01,0.02 0.02,0.04 0.03,0.05 -0.03,-0.02 -0.06,-0.02 -0.09,-0.04zm-338.48 49.34c0.09,0.1 0.18,0.17 0.27,0.27l-0.44 0.07c0.06,-0.11 0.11,-0.22 0.17,-0.34zm2192.61 -6137.37c-0.08,-0.04 -0.17,-0.06 -0.25,-0.09 -0,-0.18 -0,-0.37 -0.1,-0.57 -0.95,-2.06 0.89,-0.67 0.35,0.66zm-2149.28 6156.25c-0.1,0.09 -0.19,0.19 -0.28,0.28 -0.01,-0.08 -0.01,-0.15 -0.02,-0.23 0.1,-0.02 0.2,-0.03 0.3,-0.05zm1496.78 -6274.84c0.01,0.11 0.05,0.2 0.07,0.31 -0.57,-0.08 -1.15,-0.12 -1.73,-0.21 0.56,-0.03 1.1,-0.07 1.66,-0.1zm-2521.92 6362.55c0.01,0.09 0.04,0.18 0.05,0.28 -0.18,-0.09 -0.35,-0.11 -0.53,-0.21l0.48 -0.07zm-2165.17 -1052.26c0.52,0.7 1.04,1.43 1.59,2.09 0,0 0,-0 0,-0 0,0 0,0 0,0 0,0 0,0 0,0 -0.83,0.15 -1.64,0.21 -2.46,0.29 0.28,-0.81 0.57,-1.61 0.86,-2.38zm65.65 -12.87c0.11,-0.3 0.26,-0.51 0.35,-0.85 0.22,0.33 0.45,0.56 0.65,0.93 -0.33,-0.03 -0.67,-0.06 -1.01,-0.09zm2243.14 1045.61c-0.04,-0.02 -0.09,-0.03 -0.13,-0.05 0.05,-0.01 0.1,-0.01 0.15,-0.02 -0,0.02 -0.02,0.04 -0.02,0.06zm891.44 -29.09l-0 -0.02c0,-0 0,-0.01 0.01,-0.01 0,0.01 0,0.02 0.01,0.03l-0.01 0zm1590.74 -6370.74c-1.15,-0.56 -2.29,-1.16 -3.46,-1.68l0 0.01c0,0 -0,0 -0.01,0l0 0c1.52,-0.33 3.03,-0.59 4.54,-0.85 -0.34,0.86 -0.7,1.7 -1.07,2.52zm-4174.88 393.07c0.92,0.45 1.86,0.85 2.75,1.45l-2.48 0.2c-0.08,-0.56 -0.15,-1.14 -0.27,-1.65zm-537.7 5002.46c-0.3,-0.02 -0.59,-0.04 -0.89,-0.06 0.08,-0.13 0.15,-0.29 0.23,-0.42 0.22,0.18 0.45,0.29 0.66,0.48zm379.23 225.67c0.7,0.66 1.41,1.3 2.12,1.93 -0.55,-0.11 -1.1,-0.22 -1.65,-0.35 -0.15,-0.54 -0.33,-1.01 -0.47,-1.59zm-12.61 111.74l0.01 0.07c-0.01,-0.02 -0.02,-0.04 -0.04,-0.07 0.01,0 0.02,0 0.03,0zm1311.42 745.96c0.04,0.02 0.09,0.04 0.13,0.06 -0.04,0 -0.08,0.01 -0.12,0.01l-0.01 -0.07zm150.71 -2.76c-0.49,-0.44 -0.98,-0.93 -1.49,-1.5 0.43,-0.25 0.87,-0.46 1.3,-0.71 0.04,0.81 0.12,1.52 0.19,2.21zm1753.72 -120.65l0.06 0.32 -0.17 0.03c0.04,-0.11 0.07,-0.23 0.11,-0.35zm53.59 -8.3c-0.12,-0.09 -0.23,-0.14 -0.35,-0.24l0.28 -0.04c0.02,0.09 0.05,0.19 0.07,0.28zm2742.25 -5880.73c-0.15,-0.61 -0.34,-1.17 -0.59,-1.7 1.35,-0.1 2.69,-0.17 4.04,-0.28 -1.2,0.76 -2.3,1.31 -3.45,1.97zm-869.62 -537.56c-0.04,0.04 -0.07,0.06 -0.1,0.09 -0.19,-0.03 -0.37,-0.03 -0.55,-0.06 0.22,-0.01 0.44,-0.03 0.65,-0.04zm-948.39 61.67c-0.44,-0.13 -0.9,-0.18 -1.35,-0.31 0.56,-0.05 1.12,-0.1 1.68,-0.15 -0.12,0.14 -0.22,0.31 -0.33,0.46zm32.1 37.27c-0.13,0.32 -0.37,0.56 -0.47,0.92 -0.48,-0.27 -0.98,-0.45 -1.45,-0.76l1.93 -0.15zm-3183.57 206.05c0.18,-0.25 0.3,-0.57 0.46,-0.83 0.36,0.24 0.74,0.43 1.09,0.7l-1.55 0.13zm-2215.98 1712.2c0.04,0.62 0.13,1.21 0.29,1.78 -1.35,-0.14 -2.69,-0.3 -4.03,-0.44 1.31,-0.54 2.49,-0.89 3.74,-1.33zm-77.16 2755.47c0,0.62 0.03,1.2 0.1,1.75 -0.71,-0.07 -1.41,-0.16 -2.13,-0.22 0.71,-0.6 1.35,-1.02 2.03,-1.53zm1503.59 1746.64c-0.07,-0.13 -0.13,-0.3 -0.19,-0.43l0.55 -0.05c-0.12,0.14 -0.24,0.32 -0.36,0.48zm410.76 30.42l0.09 0.9c-0.18,-0.33 -0.37,-0.63 -0.57,-0.92 0.15,0.01 0.31,0.01 0.48,0.02zm615.02 25.01c-0.19,-0.1 -0.37,-0.15 -0.56,-0.25 0.17,-0.02 0.33,-0.04 0.5,-0.06 0.02,0.11 0.04,0.2 0.05,0.31zm412.24 1.15c-0.02,-0.08 -0.02,-0.16 -0.04,-0.25l0.62 -0.08c-0.19,0.12 -0.39,0.2 -0.59,0.33zm937.18 -79.69c0.4,0.37 0.79,0.67 1.19,1.13 -0.38,0.06 -0.77,0.12 -1.15,0.19 0.01,-0.48 -0.02,-0.88 -0.04,-1.31zm45.54 36.93c-0.83,-0.47 -1.65,-1.01 -2.48,-1.69 0.88,-0.17 1.77,-0.33 2.65,-0.5 -0.09,0.84 -0.12,1.49 -0.16,2.19zm1499.52 -304.97c-0.17,0.03 -0.34,0.06 -0.51,0.09 0.13,-0.29 0.24,-0.6 0.36,-0.91l0.15 0.81zm1815.43 -4060.71c-0.1,-0.64 -0.24,-1.25 -0.4,-1.81 0.8,-0.04 1.58,-0.07 2.38,-0.12 -0.69,0.75 -1.32,1.28 -1.98,1.93zm-2089.46 -2037.13c-2.33,0.19 -4.65,0.41 -6.97,0.6 1.76,-0.67 3.42,-1.41 5.02,-2.19 0.72,0.46 1.42,0.93 1.94,1.59zm1.6 20.01c-0.6,0.1 -1.19,0.11 -1.8,0.19 -0.02,-0.18 -0.04,-0.37 -0.06,-0.54l1.86 0.35zm-1950.07 101.68c-0.03,-0.11 -0.08,-0.2 -0.12,-0.32 0.17,0.11 0.34,0.17 0.51,0.28 -0.12,0.01 -0.26,0.02 -0.39,0.04zm-1501.49 90.72c-0.01,0.02 -0.04,0.04 -0.05,0.07 -0.04,-0.02 -0.08,-0.03 -0.13,-0.06 0.06,0 0.12,-0 0.18,-0.01zm-1677.39 3629.48c-0.06,0.21 -0.15,0.46 -0.2,0.67 -0.73,-0.29 -1.47,-0.52 -2.19,-0.84 0,-0.01 0,-0.02 0.01,-0.02 0.8,0.06 1.59,0.13 2.38,0.19zm362.33 1439.05c0.02,-0.03 0.05,-0.05 0.07,-0.07 0.09,0.04 0.19,0.07 0.28,0.13 -0.11,-0.02 -0.23,-0.03 -0.35,-0.05zm1162.09 186.36c-0.01,0.01 -0.02,0.01 -0.03,0.02 -0.01,-0.01 -0.01,-0.01 -0.01,-0.01 0.02,-0 0.03,-0 0.04,-0.01zm367.9 956.23l0.09 0.88c-0.09,0.01 -0.18,0.02 -0.28,0.03 0.08,-0.29 0.12,-0.61 0.18,-0.91zm940.84 99.05c-0.07,0.58 0.01,1.29 0.03,1.95 -0.46,-0.54 -0.91,-0.95 -1.38,-1.58 0.45,-0.14 0.91,-0.23 1.35,-0.37zm864.06 -120.21c0.18,-0.03 0.33,-0.05 0.52,-0.08 -0.09,0.12 -0.19,0.18 -0.27,0.29 -0.08,-0.07 -0.17,-0.15 -0.24,-0.21zm195.1 -0.17c-0.01,0.01 -0.01,0.02 -0.01,0.03 -0,-0.01 -0.01,-0.01 -0.01,-0.02l0.02 -0.01zm634.85 -64.08c0.31,0.17 0.61,0.23 0.93,0.41l0 0 0 0 -0.87 0.15c-0.02,-0.18 -0.03,-0.39 -0.06,-0.56zm-2.81 21.39c-0.18,0.03 -0.35,0.06 -0.54,0.09 0.04,-0.06 0.06,-0.14 0.1,-0.2 0.15,0.05 0.29,0.06 0.44,0.11zm194.39 -58.74c0.2,-0.36 0.44,-0.58 0.66,-0.92 0.08,0.21 0.23,0.48 0.32,0.7 -0.32,0.09 -0.66,0.14 -0.98,0.22zm2454.58 -2399.51c0.26,-0.28 0.52,-0.43 0.79,-0.68 0.29,0.48 0.58,0.93 0.87,1.38 -0.55,-0.26 -1.11,-0.42 -1.67,-0.7zm-4.12 -1763.34c0.21,-0.31 0.45,-0.49 0.67,-0.77 0.33,0.37 0.65,0.78 0.98,1.13 -0.56,-0.15 -1.1,-0.2 -1.65,-0.35zm-11.95 -1631.27c-0.93,-0.1 -1.85,-0.11 -2.78,-0.22 0.37,-0.31 0.8,-0.5 1.17,-0.78 0.54,0.32 1.07,0.69 1.61,1zm180.33 -25.02l-0.01 -0.02 -2.31 0.19c1.01,-0.3 2.01,-0.63 3.01,-0.88 -0.24,0.25 -0.46,0.44 -0.69,0.69l0.02 0.01c-0.01,0 -0.01,0.01 -0.01,0.01zm-485.22 -115.79c-0.43,-0.36 -0.89,-0.7 -1.19,-1.18 -0.93,0.13 -1.85,0.23 -2.77,0.36 0.29,-0.44 0.47,-1.03 0.72,-1.52 0.69,0.39 1.43,0.65 2.06,1.15l-0.02 0c0.89,-0.05 1.77,-0.15 2.65,-0.2 -0.46,0.49 -0.96,0.93 -1.46,1.38zm97.02 -19.14c1.53,-0.75 3.05,-1.72 4.57,-2.64 -0.31,0.73 -0.63,1.51 -0.96,2.35l-3.62 0.29zm-82.13 -219.96c0.11,-0.01 0.23,-0.02 0.34,-0.03 -0.09,0.05 -0.19,0.08 -0.28,0.13 -0.03,-0.04 -0.03,-0.07 -0.06,-0.11zm-128.83 -269.91c-0.87,-0.52 -1.73,-0.91 -2.6,-1.48 1.25,-0.1 2.43,-0.2 3.67,-0.3 -0.42,0.52 -0.75,1.14 -1.07,1.77zm-2972.47 212.56c0,0 0,-0 0,0 0,-0.01 0,-0.01 0.02,-0.01 -0.01,0 -0.01,0.01 -0.02,0.01zm-589.15 22.15c0.01,-0.01 0.03,-0.02 0.04,-0.04 0.04,0.01 0.07,0.02 0.1,0.02 -0.04,0.01 -0.09,0.01 -0.14,0.01zm-874.31 30.22c0.03,-0.06 0.04,-0.13 0.06,-0.19 0.33,0.04 0.66,0.06 1,0.1l-1.06 0.09zm-2145.96 1682.45c-0.46,0.26 -0.96,0.39 -1.43,0.62 -0.59,-0.51 -1.19,-0.98 -1.78,-1.46 1.07,0.31 2.15,0.52 3.21,0.85zm-184.86 -7.63c0,-0 0,-0 0,-0.01l0.01 0.02 2.31 0.22c-1.04,0.12 -2.09,0.27 -3.12,0.33 0.27,-0.2 0.53,-0.35 0.8,-0.56l-0.01 -0.01zm359.09 200.79c-1.64,0.47 -3.31,1.15 -4.97,1.8 0.43,-0.67 0.88,-1.37 1.35,-2.15l3.62 0.35zm-356.19 1837.79c-0,-0.15 -0.01,-0.3 -0.01,-0.44 0.32,0.06 0.64,0.09 0.96,0.16 -0.31,0.09 -0.63,0.19 -0.94,0.28zm-38.41 721.63c0.41,0.04 0.81,0.07 1.22,0.11 -0.56,0.17 -1.12,0.37 -1.67,0.5 0.15,-0.22 0.29,-0.37 0.44,-0.61l-0 -0.01c0,-0 0,-0 0,-0.01 0,0.01 0,0.02 0,0.02zm3574.09 1904.23c0.09,0.1 0.19,0.16 0.29,0.26 -0.14,0.02 -0.28,0.04 -0.42,0.06 0.04,-0.11 0.08,-0.22 0.13,-0.33zm3761.13 -2560.33c-0.41,-0.04 -0.81,-0.08 -1.22,-0.12 0.56,-0.16 1.13,-0.36 1.68,-0.47 -0.15,0.21 -0.3,0.37 -0.45,0.59l0.01 0.02c0,0 -0,0 -0,0.01 -0,-0.01 -0,-0.02 -0,-0.02zm82.65 -1022.69c0.03,0.15 0.06,0.31 0.09,0.46 -0.36,-0.02 -0.72,0.01 -1.08,-0.01 0.33,-0.15 0.65,-0.3 0.99,-0.45zm-310.61 -916.7c0.88,-0.73 1.75,-1.69 2.63,-2.59 -0.15,0.72 -0.33,1.61 -0.49,2.43 -0.71,0.05 -1.43,0.11 -2.14,0.16zm389.06 -762.57c0.04,0.12 0.1,0.26 0.13,0.38 -0.55,0.01 -1.09,0.06 -1.64,0.06 0.5,-0.14 1.01,-0.3 1.51,-0.44zm-197.12 -459.56c-0,0.03 -0.01,0.06 -0.01,0.09 -0.08,0.01 -0.15,0.01 -0.23,0.02 0.08,-0.04 0.17,-0.07 0.24,-0.11zm-2412 -722.13c-0.17,-0.02 -0.35,-0.04 -0.53,-0.06 1.24,-0.1 2.48,-0.13 3.72,-0.24 -1.07,0.11 -2.14,0.2 -3.2,0.3zm-140.4 14.04c-0.55,-0.07 -1.11,-0.12 -1.67,-0.2l1.73 -0.14c-0.03,0.12 -0.04,0.22 -0.07,0.34zm-519.53 16.62c-0.17,-0.06 -0.35,-0.1 -0.53,-0.16 0.21,0.01 0.41,0.02 0.61,0.03 -0.03,0.05 -0.06,0.09 -0.09,0.13zm-2463.61 107.55c-0.01,-0.15 0,-0.31 -0.01,-0.45 0.41,0.12 0.84,0.18 1.25,0.31 -0.41,0.06 -0.82,0.09 -1.24,0.14zm-1582.29 1405.65c0.01,-0.03 0.02,-0.06 0.03,-0.09 0.08,0.01 0.15,0.02 0.24,0.03 -0.09,0.02 -0.18,0.04 -0.27,0.06zm-102.98 2727.5l-0.04 1.95c-1.12,-0.06 -2.24,-0.13 -3.36,-0.19l0.04 -2.06c1.13,0.1 2.24,0.2 3.36,0.3zm199.45 602.97c-0.13,0.15 -0.26,0.28 -0.39,0.43 0.02,-0.15 0.02,-0.31 0.04,-0.46 0.12,0.01 0.24,0.02 0.35,0.03zm-42.66 359.08c-0.68,-0.06 -1.27,-0.1 -1.94,-0.16 0.28,-0.47 0.53,-1.04 0.77,-1.63 0.39,0.63 0.78,1.11 1.17,1.79zm1025.09 234.07c0.09,0.12 0.19,0.19 0.27,0.31 -0.15,0.02 -0.31,0.03 -0.46,0.04 0.06,-0.11 0.13,-0.23 0.19,-0.35zm5986.48 -1342.74c-0.01,0.04 -0.02,0.07 -0.02,0.1 -0.05,-0 -0.1,-0.01 -0.14,-0.02 0.05,-0.04 0.11,-0.06 0.16,-0.09zm40.99 -1755.59c-0.01,0.04 -0.01,0.07 -0.01,0.11 -0.05,0.01 -0.1,0.01 -0.15,0.01 0.05,-0.04 0.11,-0.07 0.16,-0.12zm-174.01 -393.53c0.28,-0.33 0.58,-0.52 0.87,-0.81 0.11,0.23 0.24,0.48 0.36,0.72 -0.41,0.03 -0.82,0.06 -1.23,0.09zm-91.03 -1616.52c0.49,-0.33 1.02,-0.53 1.51,-0.83 0.17,0.21 0.38,0.44 0.58,0.67l-2.09 0.17zm97.15 -32.88c-0.04,-0.04 -0.09,-0.06 -0.13,-0.09l0.15 -0.01c-0,0.04 -0.02,0.07 -0.02,0.1zm-5212.66 -189.53c-0.01,-0.01 -0.01,-0.01 -0.02,-0.02 0.02,0 0.04,-0 0.06,-0 -0.01,0.01 -0.02,0.02 -0.04,0.03zm-1516.79 1812.98c-0.54,0.24 -1.09,0.34 -1.64,0.56 -0.13,-0.24 -0.3,-0.5 -0.45,-0.76l2.09 0.2zm-101.53 15.36c0.03,0.05 0.08,0.07 0.11,0.11l-0.14 -0.02c0,-0.04 0.02,-0.06 0.03,-0.1zm-219.81 2305.51c0.71,0.06 1.41,0.13 2.12,0.19l-0.04 2.17c-7.35,-0.46 -14.7,-1.02 -22.03,-1.9 -7.37,-0.89 -4.22,-5.96 -3.87,-9.26 6.4,9.18 15.43,8.15 23.81,8.8zm899.5 1122.64c-0.35,0.15 -0.72,0.27 -1.07,0.41 -0.02,-0.17 -0.05,-0.37 -0.07,-0.54 0.38,0.04 0.76,0.09 1.15,0.13zm-8.42 39.7c8.48,0.94 16.05,-1.91 22.94,-8.77 23.2,-23.09 41.28,-24.63 59.98,-4.01 -4.46,0.76 -9.01,0.66 -13.51,1.04l-22.98 1.31c-6.98,0.61 -14.15,0.28 -19.87,7.29l-20.67 3.24c-4.91,6.81 -11.23,4.23 -17.11,4.53 -3.44,0.18 -6.87,0.28 -10.29,0.4 6.53,-4.26 13.74,-5.89 21.5,-5.03zm261.79 178.87c-0.72,1.27 -1.49,2.25 -2.29,3.06 0,-0.87 0,-1.8 -0.06,-2.88 0.79,-0.06 1.57,-0.11 2.35,-0.18zm-340.7 482.23c-0.02,-0.26 -0.04,-0.55 -0.06,-0.81 0.23,0.28 0.47,0.46 0.69,0.78l-0.63 0.03zm1763.62 461.69c-0.4,1.68 -0.21,3.28 0.85,4.74 0.67,0.35 1.26,0.4 1.8,0.28 -7.14,8.5 -15.71,12.14 -26.54,8.33 4.76,-12.46 18.32,-2.61 23.89,-13.35zm416.65 -36.98l0.45 -0.06 0 0c0,0 0,0 -0,0 -0.13,0.35 -0.33,0.54 -0.49,0.84 0.02,-0.25 0.03,-0.51 0.04,-0.78zm988 -6.11c0.06,-0.18 0.15,-0.31 0.22,-0.49 0.06,0.13 0.16,0.29 0.22,0.43l-0.44 0.06 0 0c0,0 0,0.01 0,0zm54.24 -66c3.44,-0.01 6.82,-0.15 10.19,-0.29 -3.19,0.82 -6.57,1.46 -10.19,0.29zm2776.35 -935.43c-0.21,0.01 -0.41,0.06 -0.61,0.06 0.18,-0.12 0.38,-0.2 0.56,-0.31 0.01,0.08 0.03,0.17 0.04,0.25zm289.96 -3566.09c-0.02,-0.05 -0.05,-0.06 -0.08,-0.11 0.03,0 0.06,-0 0.09,-0 0,0.04 -0.01,0.07 -0.01,0.11zm389.09 -995.41c4.54,-0.48 9.09,-0.7 13.65,-0.65 0,0.02 -0,0.03 -0,0.05 -4.48,0.15 -9.51,0.69 -13.64,0.6zm-224.94 -204.94c-57.2,4.66 -114.45,8.19 -166.08,13.98 6.98,-1.83 14.12,-4.81 20.54,-9.75 0.66,0.64 1.44,1.24 2.46,1.75 14.47,4.57 29.77,1.85 44.74,0.76 45.25,-3.31 90.24,-9.09 135.64,-11.79 13.97,-0.83 9.3,4.84 9.36,8.17 -14.12,-7.5 -30.79,-4.41 -46.67,-3.11zm-1947.19 -893.36c0.59,-0.21 1.19,-0.4 1.78,-0.61 0.07,0.17 0.11,0.31 0.19,0.48 -0.66,0.04 -1.31,0.08 -1.96,0.13zm-304.95 32.04c-1.35,-0.69 -2.69,-1.33 -4.04,-2.11 1.8,-0.14 3.51,-0.28 5.28,-0.43 -0.54,0.75 -0.95,1.59 -1.24,2.54zm-547.61 92.02c0.1,-0.1 0.19,-0.21 0.28,-0.32 0.26,0.09 0.52,0.13 0.78,0.22 -0.35,0.03 -0.71,0.07 -1.07,0.1zm-3416.73 260.09c-0.06,0.06 -0.11,0.09 -0.17,0.15 -0.08,-0.04 -0.16,-0.07 -0.24,-0.11l0.41 -0.03zm-1166.38 1037.01c4.44,0.63 9.49,0.98 13.55,1.79 -4.56,-0.33 -9.08,-0.91 -13.57,-1.75 0.01,-0.01 0.01,-0.03 0.02,-0.04zm199.44 242.94c57.2,5.42 114.27,11.97 166.17,15.31 -7.2,0.58 -14.76,2.26 -21.96,6 -0.54,-0.74 -1.2,-1.47 -2.11,-2.16 -13.46,-7.04 -29.02,-7.03 -43.97,-8.57 -45.19,-4.67 -90.55,-6.85 -135.78,-12.14 -13.92,-1.63 -8.32,-6.4 -7.8,-9.68 12.6,9.85 29.58,9.72 45.45,11.23zm632.21 4567.67c-0.04,0.23 -0.14,0.35 -0.19,0.56 0.04,-0.19 0.07,-0.37 0.1,-0.55 0.04,0 0.06,-0 0.09,-0zm500.17 384.45c0.06,0.08 0.1,0.17 0.16,0.24 -0.25,0.15 -0.48,0.22 -0.74,0.37 0.2,-0.2 0.38,-0.4 0.58,-0.61zm2901.97 -29.79c-7.61,2.16 -16.46,0.55 -21.47,10.56 -0.21,-0.41 -0.39,-0.83 -0.68,-1.24 -11.98,-7.61 -22.95,-1.25 -34.31,-0.22l-1.39 0.22c-0.72,-0.68 -1.46,-1.16 -2.22,-1.52 27.02,-2.22 52.17,-7.83 77.57,-11.56l52.04 -8.55 39 -6.39c9.3,-1.9 18.78,-2.61 28.11,-4.48 23.16,-4.65 46.71,-6.88 69.77,-11.76 -17.89,4.4 -36.07,7.3 -54.23,10.05 -50.7,8.28 -101.45,16.58 -152.19,24.87zm3076.54 -2286.14c-30.48,-2.9 -60.69,-6.78 -88.37,-7.77 4.07,-0.83 8.45,-2.85 12.7,-7.2 0.26,0.74 0.44,1.5 0.91,2.16 6.84,6.41 15.13,5.72 23.02,6.59 23.84,2.65 47.89,2.83 71.72,6.09 7.36,1.01 4.14,6.02 3.73,9.32 -6.26,-9.28 -15.31,-8.39 -23.7,-9.19zm75.02 -1752c-8.56,-8.51 -18.32,-5.94 -27.65,-5.24 -33.61,2.52 -67.29,3.85 -97.58,7.79 4.1,-1.65 8.27,-4.51 11.94,-9.54 0.41,0.72 0.76,1.48 1.39,2.07 8.68,5.41 17.62,3.19 26.42,2.66 26.6,-1.59 52.98,-5.8 79.69,-6.75 8.25,-0.3 5.64,5.51 5.8,9.01zm34.85 -2305.25l0.3 -0.03c0.02,0.08 0.05,0.16 0.07,0.23 -0.12,-0.07 -0.25,-0.13 -0.37,-0.2zm-487.46 -303.05c-0.09,-0.07 -0.19,-0.13 -0.28,-0.19 0.2,0.01 0.4,0.01 0.59,0.02 -0.11,0.06 -0.21,0.12 -0.31,0.17zm-5546.53 306.02c0.06,-0.2 0.16,-0.39 0.27,-0.58 -0.09,0.19 -0.19,0.39 -0.27,0.58zm-824.09 237.69l-0.05 -0.54 0.78 -0.06c-0.27,0.17 -0.51,0.37 -0.74,0.6zm-513.32 1814.15l-0.4 -0.03c-0.02,-0.13 -0.06,-0.23 -0.07,-0.35 0.15,0.14 0.31,0.24 0.47,0.38zm88.96 1095.21c-0.04,0.25 -0.15,0.37 -0.2,0.59 0.04,-0.2 0.07,-0.39 0.1,-0.59 0.04,0 0.07,0 0.1,-0zm46.56 1623.52c6.65,0.57 13.91,-0.29 17.85,9.36 -7.08,3.56 -14.31,0.45 -21.43,-0.04 -12.83,-3.13 -25.71,-6.15 -38.77,-8.8 -4.57,-0.93 -9.53,-1.3 -14.08,-2.37 -3.08,-0.72 -6.13,-1.83 -8.76,-3.56 21.71,2.04 43.46,3.54 65.19,5.41zm-165.47 41.96c-0.07,-0 -0.14,-0 -0.21,-0.01 -0.01,-0.13 -0.02,-0.22 -0.03,-0.35 0.07,0.13 0.16,0.22 0.24,0.35zm215.48 359.66c0.04,0.07 0.08,0.15 0.12,0.22 -0.1,-0.04 -0.2,-0.06 -0.3,-0.09 0.06,-0.04 0.12,-0.09 0.18,-0.13zm3193.37 1264.61c0.04,-0.01 0.09,-0.01 0.13,-0.02 -0.04,0.04 -0.08,0.07 -0.12,0.11 -0.01,-0.04 -0.01,-0.06 -0.01,-0.09zm2843.38 -432.25c0.04,0.16 0.09,0.33 0.13,0.48 -0.3,-0.13 -0.6,-0.18 -0.91,-0.32l0.78 -0.17zm-4.29 36.59c0.06,0.13 0.13,0.24 0.18,0.37 -0.19,-0.11 -0.39,-0.18 -0.58,-0.29l0.4 -0.07zm1116.26 -2169.28c-1.29,-0.11 -2.53,-0.14 -3.78,-0.2 1.34,-0.09 2.72,-0.09 4.1,-0.08 -0.11,0.11 -0.2,0.15 -0.32,0.28zm-22.5 -2257.39c-0.07,-0.09 -0.15,-0.15 -0.22,-0.24 0.06,-0 0.12,-0.01 0.17,-0.02 0.02,0.09 0.04,0.17 0.05,0.25zm68.71 -621.26c0,0 0,0 0,0 0.46,-0.31 0.93,-0.56 1.39,-0.85 0.09,0.24 0.18,0.46 0.29,0.72l-1.67 0.13 0 0zm34.59 -541.43c2.48,-0.43 5.06,-0.76 7.64,-1.09 -0.17,0.13 -0.35,0.2 -0.52,0.35 -2.43,0.21 -4.75,0.49 -7.11,0.74zm-5038.94 -510.68c-0,-0.01 -0.02,-0.01 -0.02,-0.02 0.01,-0 0.02,-0 0.03,-0.01 -0,0.01 -0.01,0.02 -0.01,0.02zm-1938.4 202.87l0.78 0.29c13.47,-0.13 26.75,0.08 35.43,8.58 4.51,1.2 9.26,1.69 14.18,1.61 14.95,-0.26 30.06,-3 44.87,-0.56 3.3,0.34 6.63,0.58 10,0.59 14.83,-0.72 29.3,-0.07 43.1,3.18 -1.69,0.93 -3.09,2.11 -4.31,3.46l-11.22 0.37c-11.69,-3.78 -22.91,-0.11 -34.19,2.46l-71.85 5.82c-2.27,0.49 -4.44,1.17 -6.51,2.03l-17.91 1.46 -4.65 301.31c-0.94,-0.16 -1.88,-0.31 -2.8,-0.46l5.1 -330.14zm-352.48 569.79c0,0 0,0 0,0 0,0 0,0 0,0l0 0zm343.24 28.17l2.81 0.27 -0.82 53.04c-0.93,-0.1 -1.87,-0.17 -2.81,-0.27l0.81 -53.04zm-299.56 26.52c0.03,-0.16 -0,-0.27 0.02,-0.43 0.35,0.18 0.71,0.32 1.05,0.5 -0.36,-0.02 -0.71,-0.06 -1.07,-0.08zm36.52 300.98c-0.5,0.23 -1.01,0.39 -1.52,0.59 -0.05,-0.25 -0.09,-0.49 -0.16,-0.76l1.67 0.17 0 0zm-128.87 527.02c-2.52,-0.02 -5.12,-0.14 -7.72,-0.26 0.19,-0.1 0.37,-0.13 0.57,-0.26 2.44,0.22 4.77,0.35 7.15,0.52zm65.88 1070.22l1.34 0.47c13.48,-0.33 26.78,-0.32 35.6,8.04 4.53,1.13 9.3,1.55 14.22,1.39 14.96,-0.49 30.05,-3.45 44.91,-1.24 0.91,0.08 1.85,0.06 2.76,0.12 -16.89,5.13 -33.58,11.28 -50.91,14.86l-20.16 1.94c-0.8,0.18 -1.52,0.52 -2.29,0.75 -2.65,0.09 -5.28,0.28 -7.98,0.17 -5.88,-0.25 -11.9,-0.27 -17.96,0.06l0.48 -26.57zm-4.08 223.4c1.11,0.17 2.23,0.33 3.35,0.44l-1.26 69.11c-1.13,0.17 -2.25,0.35 -3.38,0.52l1.28 -70.07zm-1.98 108.11c1.12,0.21 2.24,0.42 3.35,0.68l-0.26 14.52c-0.5,-0.18 -1,-0.35 -1.5,-0.54 -0.61,0.02 -1.24,0.02 -1.85,0.03l0.26 -14.69zm-91.03 208.07c0.03,-0.07 0.06,-0.13 0.09,-0.19 0.03,0.06 0.06,0.12 0.09,0.18 -0.06,0 -0.12,0 -0.18,0.01zm85.92 70.91c1.12,-0.09 2.25,-0.16 3.37,-0.26l-2.74 149.87c-1.15,0.76 -2.28,1.6 -3.41,2.5l2.78 -152.1zm-36.09 197.77c0.01,0 0.01,0 0,0 0.01,0 0.01,0 0,0l0 0zm32.51 -2.07c1.12,0.09 2.24,0.18 3.36,0.27l-0.89 48.4c-1.12,-0.43 -2.22,-1.02 -3.33,-1.54l0.86 -47.12zm-10.94 54.25c0.02,-0.16 0,-0.27 0.02,-0.43 0.18,0.16 0.37,0.28 0.54,0.44 -0.19,0.01 -0.38,-0.02 -0.57,-0.02zm5.06 267.37c1.12,0.1 2.24,0.14 3.36,0.15l-0.44 24.3c-0.31,0.25 -0.63,0.46 -0.95,0.72 -0.68,-0.06 -1.36,-0.11 -2.04,-0.16 -0.13,-0.07 -0.26,-0.13 -0.39,-0.19l0.46 -24.83zm-78.77 562.41c-1.33,0.11 -2.71,0.13 -4.09,0.15 0.11,-0.11 0.2,-0.15 0.31,-0.28 1.29,0.09 2.52,0.1 3.78,0.14zm714.45 1031.32c3.72,-1.19 7.49,-1.97 11.31,-2.39 4.13,-0.46 9.36,1.9 11.15,-5.46 2,-8.22 -1.71,-13.93 -6.23,-18.55 -6.61,-6.76 -15.54,-5.54 -23.27,-8.64 2.28,-5.16 8.02,-6.6 6.45,-12.1 41.19,1.32 82.24,4.48 123.09,9.95 7.45,0.56 14.9,1.12 22.35,1.68 0,0 0,0 0,0 0,0 0,0 0,0 4.26,-0.1 8.52,0.24 12.76,0.69 -7.54,2.56 -17.16,-2.54 -21.79,10.09 -6.29,17.12 -17.33,12.21 -26.37,9.19 -15.5,-5.17 -32.37,-6 -43.52,5.77 -21.7,22.83 -43.37,19.37 -65.93,9.78zm336.07 132.09c-0.01,0 -0.01,0 0,0 -0.26,0.24 -0.53,0.35 -0.78,0.57 0.08,-0.19 0.17,-0.36 0.25,-0.55l0.53 -0.02 0 -0zm-346.09 518.06c0.03,-0.06 0.06,-0.12 0.09,-0.18 0.03,0.06 0.04,0.12 0.07,0.17l-0.16 0.01zm5362.28 -14.8c0.02,-0.27 0.07,-0.61 0.08,-0.86 0.54,0.22 1.07,0.31 1.62,0.57 -0.57,0.08 -1.13,0.2 -1.7,0.29zm603.25 -199.53l0 0c0.09,-0.27 0.22,-0.45 0.32,-0.7 0.01,0.2 0.02,0.41 0.03,0.63l-0.35 0.07 0 0zm277.11 -81.41l-0.04 -0.02 0.01 0 0.02 0.02 0.4 -0.09c-0.06,0.38 -0.19,0.75 -0.19,1.13l-0.21 -1.04zm129.74 -298.21c0,0 0,0 0,0 0,0 0,0 0,0l0 0zm-34.33 -44.24c0.03,0.16 0.07,0.26 0.09,0.41 -0.21,-0.11 -0.41,-0.17 -0.63,-0.28 0.18,-0.05 0.35,-0.07 0.53,-0.13zm49.68 -286.95c-0.04,-0.03 -0.06,-0.07 -0.1,-0.09l0.13 -0.03c-0.01,0.05 -0.02,0.09 -0.04,0.13zm-141.75 3.6l0 0c0.18,-0.34 0.39,-0.6 0.59,-0.91 0.08,0.22 0.22,0.49 0.31,0.72l-0.9 0.19 0 0zm310.52 -364.18c0,0 0,0 0,0 0,0 0,0 0,0l0 0zm-20.75 -52.52c-0.02,0.16 -0.01,0.27 -0.03,0.42 -0.17,-0.16 -0.36,-0.29 -0.54,-0.45 0.19,0 0.38,0.02 0.57,0.03zm-4.72 -298.75c0.01,0.24 0.07,0.54 0.09,0.78 -0.32,-0.04 -0.64,-0.06 -0.96,-0.09 0.29,-0.26 0.58,-0.45 0.87,-0.69zm201.39 -1378.8l0 0c0,0 0,0 0,0 0,0 0,0 0,0zm-32.38 -50.81c0.01,0.17 0.04,0.28 0.05,0.45 -0.22,-0.13 -0.45,-0.24 -0.67,-0.38 0.2,-0.04 0.42,-0.04 0.62,-0.07zm-60.89 -308.82c0,0 0,0 0,0 0.27,-0.33 0.55,-0.57 0.83,-0.88 0.06,0.24 0.17,0.54 0.24,0.8 -0.35,0.02 -0.71,0.05 -1.07,0.07 0,0 0,0 0,0zm4.26 -568.32c1.45,-0.34 2.96,-0.58 4.47,-0.83 -0.1,0.13 -0.2,0.19 -0.3,0.35 -1.43,0.12 -2.79,0.32 -4.18,0.48zm118.14 -811.45c0,0.16 0.06,0.26 0.06,0.42 -0.37,-0.11 -0.76,-0.19 -1.13,-0.31 0.36,-0.04 0.71,-0.06 1.07,-0.11z"/>
     <path class="fil0" d="M1235.47 1214.94c0.02,-1.43 0.02,-1.41 0,0l0 0z"/>
     <polygon class="fil0" points="7532.31,1435.54 7532.31,1435.54 7532.32,1435.54 "/>
     <path class="fil0" d="M6467.97 7284.11c-1.15,-1.56 -2.25,-2.5 -3.34,-3.15l-2.6 -13.43 -2.52 -2.8c-7.33,-3.93 -14.12,-1.17 -21.06,-0.39l-20.82 3.77c-12.03,3.06 -24.75,2.94 -36.15,8.9 -1.53,1.23 -2.65,2.96 -3.49,5.05 -0.28,-0.4 -0.56,-0.74 -0.84,-1.16 -3.81,-2.2 -7.44,-1.81 -10.96,-0.24 -5.61,5.13 -16.91,3.12 -15.69,16.54 1.14,12.54 8.75,21.74 17.76,27.17 2.23,1.35 4.59,2.19 6.76,3.87 20.09,7.94 38.46,-4.74 58.34,0.58 13.34,0.08 26.58,-0.37 38.26,-8.44 0.25,-1.25 0.3,-2.56 0.15,-3.91 -0.19,-10.84 1.42,-21.77 -3.79,-32.38z"/>
     <path class="fil0" d="M957.71 7015.66c-7.08,-0.56 -14.15,5.25 -21.21,0.69l-3.59 -0.12c-0.96,6.33 -9.34,16.65 4.56,14.53 8.09,-1.24 16.34,0.19 24.53,0.42 3.86,3.68 7.61,3.92 11.16,-1.03 -0.57,-14.13 -8.13,-13.91 -15.45,-14.49z"/>
     <path class="fil0" d="M190.46 4200.35c-8.19,0.06 -15.72,6.81 -24.28,2.66 -1.38,0.07 -2.76,0.13 -4.13,0.2 -0.46,6.74 -9,18.34 6.7,14.85 9.14,-2.04 18.74,-1.28 28.13,-1.79 4.78,3.52 9.09,3.43 12.69,-2.09 -1.98,-14.81 -10.64,-13.89 -19.11,-13.83z"/>
    </g>
    <path class="fil1" d="M7558.55 7459.65l-6419.31 0 0 -1402.67 -44.5 0 0 1447.17 6508.31 0 0 -4809.43 -44.5 0 0 4764.93zm-6463.81 -6463.81l0 4184.62 44.5 0 0 -4140.12 6419.31 0 0 777.86 44.5 0 0 -822.36 -6508.31 0z"/>
   </g>
  </g>
 </g>
</svg>
