<?xml version="1.0" encoding="UTF-8"?>
<!DOCTYPE svg PUBLIC "-//W3C//DTD SVG 1.1//EN" "http://www.w3.org/Graphics/SVG/1.1/DTD/svg11.dtd">
<!-- Creator: CorelDRAW -->
<svg xmlns="http://www.w3.org/2000/svg" xml:space="preserve" width="8.5in" height="11in" version="1.1" style="shape-rendering:geometricPrecision; text-rendering:geometricPrecision; image-rendering:optimizeQuality; fill-rule:evenodd; clip-rule:evenodd"
viewBox="0 0 8500 11000"
 xmlns:xlink="http://www.w3.org/1999/xlink"
 xmlns:xodm="http://www.corel.com/coreldraw/odm/2003">
 <defs>
  <style type="text/css">
   <![CDATA[
    .fil0 {fill:black;fill-rule:nonzero}
   ]]>
  </style>
 </defs>
 <g id="Layer_x0020_1">
  <metadata id="CorelCorpID_0Corel-Layer"/>
  <path class="fil0" d="M7413.09 7826.52l0 72.28c-3.65,3.25 -7.27,6.51 -10.92,9.76 -12.91,-12.12 -37.54,-25.77 -36.2,-36.03 2.56,-19.63 19.89,-37.36 31.09,-55.86 5.33,3.28 10.68,6.57 16.03,9.85zm134.83 269.46c-6.29,31.27 -15.33,64.16 -32.67,90.36 -13.32,20.14 -40.4,31.19 -71.78,53.77 -10.87,-43.37 -34.65,-86.61 -25.96,-121.85 5.61,-22.74 57.81,-36.82 91.37,-48.02 9.74,-3.25 40.31,19.44 39.05,25.75zm-196.76 459.83c-45.94,-21.31 -48.2,-45.33 -31.6,-70.89 6.07,-9.32 23.54,-11.27 35.79,-16.57 -1.27,26.38 -2.53,52.74 -4.19,87.46zm170.77 -1372.35c-28.06,36.36 -78.64,49.62 -97.09,95.61 -0.66,1.62 -6.59,0.57 -9.54,1.94 -17.67,8.28 -40.81,12.47 -51.67,26.27 -22.84,29.05 -51.47,33.92 -82.68,36.32l0 108.99c45.64,13.8 99.45,-2.82 144.87,13.34 20.72,7.38 43.28,9.67 70.2,15.42 -22.84,33.08 -37.87,54.85 -44.57,64.57 -40.77,-9.04 -75.95,-15.79 -110.48,-24.9 -18.56,-4.89 -37.6,-11.37 -53.63,-21.53 -2.2,-1.4 -4.32,-2.95 -6.4,-4.56l0 1288.44c11.25,6.67 22.01,19.08 33.33,37.14 4.04,6.44 14.67,8.76 23.69,13.8 8.63,-61.65 9.7,-62.73 56.12,-60.51 0.83,3.13 3.28,7.18 2.14,9.28 -12.86,23.78 -20.83,47.53 6.7,66.24 39.96,27.15 112.53,9.1 155.57,-34.49 23.3,-23.58 19.5,-43.89 0.76,-66.02 -6.46,-7.65 -13.58,-14.76 -20.29,-22.25 -10,-11.16 -21.66,-21.36 -29.28,-33.98 -6.99,-11.57 -9.57,-25.79 -14.06,-38.85 15.76,-1.46 32.06,-6.11 47.23,-3.73 35.46,5.54 70.45,14.3 105.54,22.17 9.11,2.03 17.86,5.57 26.8,8.41 3.14,4.7 6.29,9.37 9.43,14.04 -8.06,2.75 -18.76,3.17 -23.63,8.71 -12.34,14.04 -22.06,30.37 -32.82,45.79 17.65,7.51 35.73,21.7 52.83,20.59 15.94,-1.03 36.91,-14.81 45.07,-29.04 26.36,-45.91 -7.91,-75.39 -38.72,-99.17 -13.5,-10.39 -38.61,-6.18 -58.52,-7.58 -12.43,-0.87 -24.98,0.13 -37.5,0.31 3.21,-13.21 6.2,-26.49 9.65,-39.64 4.8,-18.17 17.38,-38.06 13.43,-53.94 -8.54,-34.15 -22.82,-67.7 -39.98,-98.6 -11.25,-20.24 -31.06,-36.01 -48.11,-52.65 -12.34,-12.03 -26.49,-22.19 -50.42,-41.91 69.38,0 124.5,11.83 170.88,-3.23 49.81,-16.16 77.83,-13.91 94.97,36.2 59.22,-40.48 58.74,-40.4 46.23,-98.18 -1.92,-8.85 3.56,-19.09 4.5,-28.78 1.33,-13.65 7.01,-35.42 1.16,-39.35 -10.94,-7.36 -29.81,-8.41 -43.63,-5 -46.58,11.48 -89.03,-24.98 -83.83,-72.57 5.55,-50.57 10.96,-102.05 -49.37,-128.34 -5.07,-2.22 -6.42,-12.95 -15.57,-33.06 37.74,15.57 63.39,26.16 90.67,37.41 2.88,-8.32 6.64,-19.26 10.46,-30.2 17.73,-50.86 16.64,-50.91 -36.8,-45.22 -41.12,4.39 -75.36,-4.81 -92.64,-50.71 -16.35,-43.5 -45.73,-71.69 -98.88,-70.54 -52.43,1.16 -87.41,-37.37 -99.6,-79.88 -7.93,-27.67 11.42,-67.19 28.41,-95.48 5.11,-8.47 43.41,2.95 66.5,5.31 21.62,2.23 51.01,14.54 63.35,4.94 39.05,-30.42 71.72,-69.03 108.51,-106.13 -4.48,-2.4 -12.99,-10.79 -18.08,-9.06 -64.64,21.81 -75.86,-22.87 -89.49,-68.11 -3.06,-10.11 -15.77,-20.05 -26.38,-24.72 -43.89,-19.28 -88.7,-36.54 -146.07,-59.75 64.33,-46.8 82.83,-132.12 177.12,-118.38 17.89,2.6 42.63,-12.16 57.11,-26.2 10.18,-9.87 16.09,-36.07 10.07,-47.93 -8.84,-17.36 -28.34,-33.35 -46.84,-39.79 -7.69,-2.67 -26.4,19.35 -36.73,32.73z"/>
  <path class="fil0" d="M7670.34 7217.01c-2.97,5.39 20.07,35.7 28.69,34.63 19.44,-2.44 37.3,-17.4 55.8,-27.28 0.33,-6.33 0.63,-12.67 0.96,-19 -14.5,-9.39 -31.14,-28.48 -42.93,-25.86 -16.75,3.71 -33.69,21.38 -42.52,37.5z"/>
  <path class="fil0" d="M7476.71 7039.38c17.58,8.1 34.57,20.96 52.87,23.23 31.27,3.89 63.61,3.52 94.93,-0.06 12.82,-1.48 24.13,-16.03 36.14,-24.63 -13.85,-8.43 -26.77,-21.25 -41.73,-24.39 -29.37,-6.16 -59.86,-8.97 -89.91,-9.15 -16.94,-0.11 -33.91,7.78 -50.88,12.06 -0.46,7.64 -0.94,15.29 -1.42,22.95z"/>
  <path class="fil0" d="M7442.38 5974.49c-29.26,8.69 -51.06,35.68 -51.6,67.57 -0.26,15.76 4.76,30.48 13.34,42.56 -25.05,22.28 -48.13,48.83 -10.37,85.67 10.22,9.98 17.78,22.78 25.57,37.32 -7.78,6.57 -14.02,14.92 -18.13,24.42 -53.79,-28 -74.73,-81.89 -51.98,-130.42 29.42,-62.72 10.35,-113.6 -51.89,-139.08 -5.24,-2.14 -10.83,-4 -16.38,-5.94l0 454.75c6.79,-6.61 15,-13.15 24.37,-19.8 4.61,29.68 10.11,52.1 10.76,74.68 0.31,10.94 -8.52,22.12 -13.19,33.2 -6.73,-3.5 -15.09,-5.96 -21.95,-9.37l0 125c0.79,0.06 1.51,0.15 2.31,0.2 -0.61,5.44 -1.22,10.9 -1.83,16.35 -0.15,0.15 -0.33,0.31 -0.48,0.44l0 350.71c7.23,2.27 15,6.03 23.65,12.17 27.43,19.5 79.64,23.67 113.62,-19.79 8.65,-11.09 23.89,-17.73 39.57,-23.17 1.75,0.2 3.45,0.46 5.26,0.44 12.56,-0.11 23.32,-5.35 30.75,-13.69 14.04,-7.73 20.7,-18.83 9.76,-34.83 -1.59,-10.44 -6.77,-19.26 -14.35,-25.44 -7.07,-22.27 4.41,-39.55 26.69,-56.76 17.76,-13.74 34.33,-28.98 51.19,-43.3 -38.37,-76 -28.81,-90.23 57.91,-89.44 6.07,0.04 12.27,-0.92 18.37,-2.27 -0.57,2.57 -0.92,5.24 -0.96,7.95 -0.33,22.01 18.19,41.07 40.27,41.4 22.03,0.35 41.07,-18.17 41.43,-40.27 0.17,-11.07 -4.43,-21.38 -11.83,-28.93 21.86,-6.53 43.67,-13.21 65.36,-20.31 20.16,-6.57 42.1,-12.78 57.65,-25.83 6.31,-5.31 3.34,-34.46 -5.11,-42.26 -32.87,-30.4 -69.07,-57 -101.31,-82.41 3.43,-6.93 5.35,-14.61 5.18,-22.56 -0.66,-27.17 -24.85,-50.38 -51.82,-49.72 -27.17,0.65 -50.38,24.85 -49.72,51.82 0.66,27.17 24.85,50.36 51.82,49.72 0.5,-0.02 1,-0.11 1.53,-0.13 -11.27,9 -23.54,17.8 -36.86,24.61 -33.28,17.01 -70.84,23.98 -72.17,72.55 -0.17,6.2 -17.43,16.53 -26.84,16.62 -9.59,0.06 -23.8,-8.08 -27.54,-16.42 -3.21,-7.19 4.46,-20.22 9.2,-29.72 9.48,-19.02 24.09,-36.43 29.3,-56.38 4.48,-17.12 5.98,-44.85 -3.93,-53.79 -10.11,-9.13 -21.77,-13.26 -33.43,-11.69 -1.99,-31.38 -29.11,-57.45 -60.75,-57.61 -20.72,-0.11 -39.57,10.98 -50.8,27.36 -2.56,-20.85 3.89,-43.15 20.16,-62.59 1.9,-2.27 1.7,-6.29 2.49,-9.56 -6.29,-13.19 -12.56,-26.34 -23.1,-48.42 4.67,-1.81 9.15,-3.62 13.73,-5.44 10.44,6.97 22.98,11.07 36.58,11.2 31.82,0.28 58.37,-21.19 65.62,-50.6 24.07,-9.72 21.29,-24.85 11.93,-45.64 -8.41,-18.69 -13.06,-39.09 -14.98,-45.07 33.59,-15.13 69.18,-21.01 72.46,-34.64 8.36,-34.89 -22.23,-39.46 -51.39,-43.98 -9.91,-1.55 -19.26,-8.54 -28.19,-16.4 10.59,-12.52 17.03,-28.65 17.03,-46.19 0,-8.78 -1.7,-17.19 -4.65,-24.98 15.15,-8 29.5,-20.83 44.46,-30.01 -24.41,-21.2 -48.85,-42.41 -82.24,-71.39 -21.8,25.09 -47.65,42.17 -49.55,57.54z"/>
  <path class="fil0" d="M7324.63 5110.63c13.74,4.15 34.13,-13.8 51.52,-21.77 -1.09,-7.4 -2.21,-14.81 -3.3,-22.19 -30.57,-9.19 -60.84,-19.83 -91.89,-26.44l0 47.5c14,9.48 28.22,18.23 43.68,22.91z"/>
  <path class="fil0" d="M7763.61 7489.15c14.83,8.02 29.57,22.45 44.53,22.65 26.25,0.35 52.83,-7.12 78.83,-13.21 8.63,-2.01 22.38,-9.76 22.41,-14.94 0.04,-10 -5.39,-24.15 -13.28,-29.15 -13.25,-8.39 -30.18,-10.96 -40.31,-14.28 -24.83,3.32 -45.4,1.33 -60.49,9.48 -13.67,7.4 -21.35,25.88 -31.69,39.46z"/>
  <path class="fil0" d="M7415.26 7060.43c-7.45,11.18 -23.15,25.11 -20.55,32.95 5,15.11 20.4,26.8 31.47,39.9 3.69,-3.34 7.43,-6.69 11.51,-10.37 -0.63,2.44 -1.09,5.09 -1.13,8.08 -0.15,16.2 8.74,25.94 24.96,26.38 17.49,0.48 27.3,-9.28 27.04,-26.82 -0.26,-16.38 -10.29,-24.28 -26.25,-25.55 -1.99,0.17 -3.89,0.48 -5.68,0.87 1.66,-1.49 3.34,-2.99 5.13,-4.61 -19.52,-17.14 -33.02,-29 -46.49,-40.83z"/>
  <path class="fil0" d="M7820.76 6293.69c-21.94,-8.04 -48,-4.94 -72.35,-6.4 -1.44,5.26 -2.91,10.55 -4.37,15.83 19.37,11.94 37.78,26.07 58.44,34.96 10.77,4.63 25.48,0.02 38.44,-0.42 -6.49,-15.31 -9.5,-40.09 -20.16,-43.98z"/>
  <path class="fil0" d="M7320.85 5485.91c4,13.04 17.1,23.28 33.65,43.41 9.24,-20.4 20.07,-33.24 17.12,-40.29 -4.96,-11.79 -18.71,-19.92 -28.76,-29.57 -7.88,9 -23.85,20.44 -22.01,26.44z"/>
  <path class="fil0" d="M1468.59 9591.7c3.63,-1.07 7.08,-2.08 10.55,-3.11 -24.18,-12.35 -46.65,-27.58 -66.93,-45.26 4.8,15.91 7.44,32.86 9.76,49.29 1.86,13.31 -3.06,27.59 -4.91,41.43 14.46,-7.29 30.75,-12.44 42.74,-22.63 7.73,-6.58 9.15,-20.57 8.8,-19.73z"/>
  <path class="fil0" d="M7360.99 7084.72c-0.35,-20.79 -50.01,-51.15 -80.04,-56.8l0 95.71c19.44,-3.19 38.87,-6.46 57.98,-11.07 9.48,-2.3 22.21,-18.32 22.06,-27.84z"/>
  <path class="fil0" d="M7280.95 1910.86l0 24.24c2.34,-7.49 3.84,-15.07 3.91,-22.86 -1.22,-0.5 -2.57,-0.92 -3.91,-1.38z"/>
  <path class="fil0" d="M7072.06 9379.39c-1.11,-0.12 -1.94,-0.06 -2.31,0.31 -20.61,20.09 -60.12,22.78 -69.2,54.14 29.11,-10.4 54.05,-29.58 71.52,-54.45z"/>
  <path class="fil0" d="M5671.23 9655.09c8.6,-9.17 16.4,-19.22 24.59,-30.53l-123.06 0c19.35,13.51 43.89,25.91 62.46,38.22 7.47,4.96 28.8,-0.02 36.01,-7.69z"/>
  <path class="fil0" d="M7058.17 9271.83l0 -71.81c20.64,11.07 33.15,24.54 40.79,38.96l0 -122.01c-22.19,-8.95 -45.62,-0.67 -67,25.3 -8.69,10.57 -25.24,16.5 -39.33,20.43 -31.4,8.75 -63.98,13.47 -95.06,23.13 -7.62,2.36 -11.33,17.35 -16.83,26.54 9.74,4.83 21.62,15.94 28.89,13.48 45.25,-15.35 77.59,6.53 110.45,32 9.17,7.09 22.67,8.56 38.09,13.99z"/>
  <path class="fil0" d="M8032 7520.94c16.31,-0.5 32.52,-4.06 48.76,-6.66l-4.56 -28.37c-17.12,3.78 -34.24,7.56 -51.36,11.33 2.4,8.28 5.02,23.78 7.16,23.69z"/>
  <path class="fil0" d="M5933.59 9636.24c-0.66,11.5 8.69,23.57 13.43,35.38l14.61 -2.31c2.33,-14.75 4.67,-29.55 7.07,-44.74l-35.4 0c0.37,3.57 0.54,7.37 0.28,11.68z"/>
  <path class="fil0" d="M1536.87 5308.22c-8.19,18.85 -14.08,32.21 -19.65,45.59 -0.35,0.83 -0.65,1.68 -1,2.54 -13.32,-22.28 -22.23,-37.19 -31.14,-52.06l7.3 -8.65c13.54,3.82 27.14,7.67 44.5,12.58zm5064.01 120.5c-14.2,48 6.05,78.46 48.17,107.11 3.17,2.14 5.98,4.76 8.67,7.6 -30.55,-0.39 -62.15,-5.96 -92.94,-7.06 -15.66,-0.54 -31.38,0.72 -47.08,1.16 3.93,-14.85 7.86,-29.7 11.77,-44.55 0.7,-2.67 1.33,-5.33 1.98,-8.02 19.31,-14.89 28.09,-32.73 30.33,-52.34 11.14,-7.1 24.41,-8.67 39.09,-3.91zm283.41 20.81c-1.38,15.77 -0.98,31.97 -4.65,47.19 -3.39,14.02 -16.55,27.26 -15.94,40.4 1.11,24.22 -4.83,36.49 -16.31,41.97 -26.25,-9.17 -51.06,-23.06 -77.46,-32.19 17.54,-9.02 31.03,-22.41 33.22,-48.04 10.79,-2.51 21.57,-5 32.34,-7.49 -1.7,-7.64 -3.43,-15.26 -5.15,-22.89 -8.48,1.79 -16.95,3.58 -25.44,5.35 4.32,-10.37 16.14,-22.58 25.48,-25.64 16.09,-5.28 35.77,0.37 53.92,1.33zm113.93 99.06c-5.04,5.63 -9.54,11.9 -13.32,18.61 -7.89,14.04 8.56,41.73 13.95,63.22 4.78,1.57 9.54,3.14 14.33,4.74 -11.4,15.7 -22.8,31.41 -34.2,47.11 -5.41,-4.3 -10.83,-8.58 -16.22,-12.86 -5.48,-15.33 -10.98,-30.73 -17.93,-50.14 31.47,-4.52 38.44,-21.44 29.72,-52.13 -3.34,-11.77 -6.57,-23.56 -9.87,-35.35 12.3,10.26 23.37,15.33 33.54,16.81zm-110.02 178.65c-1.14,-8.63 -2.93,-18.95 -5.11,-31.62 -4.83,-27.78 -5.13,-45.42 2.27,-56.73 0.15,-0.11 0.28,-0.24 0.44,-0.35 3.5,-2.81 6.46,-5.65 8.91,-8.5 7.04,-4.3 16.84,-6.99 29.94,-8.67 -8.45,19.96 -15.53,35.12 -11.75,46.73 12.14,37.45 -3.02,51.17 -24.7,59.14zm-427.76 -86.5c-4.41,-20.96 -17.1,-30.26 -32.19,-33.32 15.96,-0.92 27.06,10.05 39.16,34.37 -2.38,-0.35 -4.65,-0.7 -6.97,-1.05zm208.4 151.27c-12.54,-2.62 -25.11,-5.18 -37.76,-7.07 -15.35,-2.31 -30.73,-4.43 -46.12,-6.35 31.2,-36.78 56.73,-4.94 83.88,13.43zm-118.56 606.15l1.26 17.86c-6.44,3.54 -12.91,7.06 -19.35,10.59 -8.67,-6.53 -19.04,-13.63 -35.09,-25.29 15.74,-1.81 28.19,-4.54 38.06,-7.99 5.05,1.59 10.07,3.21 15.11,4.83zm386.72 53.81c0.66,1.72 -16.75,10.22 -25.77,15.57 -6.48,-18.21 -12.97,-36.43 -19.46,-54.64 7.06,-3.08 14.13,-6.16 21.19,-9.24 8.45,15.94 17.75,31.56 24.04,48.31zm-460.88 -15.35c0.17,-0.68 0.35,-1.33 0.5,-1.99 0.59,1.18 1.16,2.38 1.73,3.58 -0.74,-0.53 -1.49,-1.07 -2.23,-1.59zm338.9 198.31c27.87,62.8 20.2,89.71 -46.73,116.76 11.84,-46.47 21.29,-83.57 30.72,-120.65 5.33,1.29 10.68,2.6 16.01,3.89zm-5226.66 172.89c-16.51,5.31 -37.76,-4.11 -56.84,-6.81 3.84,-4.8 7.71,-9.63 11.62,-14.52 16.9,-1.2 30.53,-12.91 36.1,-34.88 2.8,-11.05 7.1,-18.52 12.69,-23.39 20.18,41.03 34.68,67.3 -3.56,79.6zm5488.58 317.06c-3.56,9.96 -7.09,19.89 -10.66,29.83 -49.74,9.41 -87.68,78.2 -150.96,21.95 -3.69,-3.3 -12.76,-2.12 -18.89,-0.85 -58.46,12.04 -57.85,12.19 -53.83,-49.26 2.86,-43.74 3.78,-87.61 14.39,-135.9 58.66,70.1 102.68,153.76 219.95,134.24zm-427.12 99.3c-2.54,-6.22 -5.07,-12.47 -7.62,-18.69 -31.64,-2.64 -63.26,-5.28 -97.22,-8.12 23.96,-57 89.27,-81.32 135.59,-51.93 9.63,6.11 14.94,33.3 9.63,45.05 -6.51,14.39 -26.31,22.73 -40.38,33.69zm271.09 52.87c-53.35,22.87 -78.66,-1.33 -102.35,-29.44 2.84,-5.68 5.68,-11.35 8.52,-17.03 28.91,14.32 57.83,28.65 93.84,46.47zm74.9 121.31c9.59,3.58 17.56,31.88 14.02,46.14 -8.67,35.05 -3.5,57.35 32.74,71.56 9.37,3.67 12.69,22.75 23.98,44.98 -35.03,-4.11 -56.87,-1.92 -73.77,-10.02 -15.98,-7.69 -29.94,-24.41 -38.94,-40.44 -8.47,-15.13 -11.38,-34.37 -12.84,-52.13 -1.31,-15.9 -3.13,-38.06 5.79,-46.93 10.96,-10.92 35.53,-18.19 49.02,-13.17zm-65.38 806.55c-13.13,7.8 -25.48,18.28 -39.68,22.1 -6.33,1.73 -16.29,-9.98 -30.77,-19.76 19.04,-14.54 30.62,-28.13 44.74,-31.84 5.61,-1.46 16.97,19.02 25.7,29.5zm-5357.16 474.31c-5.48,6.46 -10.96,12.93 -16.47,19.39 -14.63,-9.3 -29.26,-18.61 -43.91,-27.93 8.45,-8.12 21.75,-24.59 24.52,-22.97 13.5,7.84 24.17,20.55 35.86,31.51zm4480.13 48.79c-28.06,32.58 -64.62,46.9 -106.2,41.58 -2.86,-6.46 -5.7,-12.93 -8.56,-19.39 35.16,-22.01 70.31,-44.05 120.02,-75.17 -2.06,25.55 2.2,44.31 -5.26,52.98zm730.25 -41.69c57.94,38.54 96.68,64.31 140.44,93.41 -33.43,28.97 -54.26,36.66 -74.4,-0.14 -18.76,-34.31 -41.41,-27.3 -62.61,-1.03 -7.36,9.08 -12.21,21.52 -21.42,27.46 -15.24,9.84 -33.06,15.66 -49.81,23.17 -0.33,-17.35 -8.12,-42.57 0.37,-50.64 30.83,-29.28 24.35,-98.51 67.43,-92.22zm-369.28 194.26c-34.68,13.56 -72.35,19.5 -108.84,28.45 -1.81,-5.22 -3.63,-10.45 -5.44,-15.68 32.04,-26.23 38.35,-84.26 97.66,-76.02 14.67,2.04 28.11,13.18 42.1,20.14 -8.3,14.91 -13.26,38.33 -25.48,43.11zm-301.06 81.99c-3.63,-14.22 -14.22,-31.48 -9.59,-42.14 16.4,-37.87 46.82,-24.66 74.44,-16.84l9.15 18.3c-24.68,13.56 -49.33,27.12 -74.01,40.68zm-157.12 31c-25.59,-18.67 -39.59,-28.88 -61.41,-44.8 24.02,-16.24 41.1,-27.8 70.34,-47.57 -3.43,35.37 -5.63,58.24 -8.93,92.37zm-155.85 0.56c-6.22,-4.72 -13.39,-17.69 -10.94,-22.73 10.87,-22.6 25,-43.63 37.95,-65.22 5.2,1.93 10.42,3.86 15.61,5.78 -6.83,26.49 -12.93,53.2 -21.36,79.17 -1.07,3.31 -17.01,6.23 -21.27,3.01zm-3.93 183.1c-88.27,13.75 -194.29,16.2 -252.05,121.09 -38.35,-33.42 -30.57,-98.91 18.82,-116.07 50.75,-17.62 103.84,-28.48 154.48,-46.31 17.07,-6.01 29.17,-25.16 44.72,-36.7 15.44,-11.46 32.38,-20.92 49.26,-31.63 -6.33,45.51 -10.48,75.35 -15.24,109.63zm87.72 77.77c-5.52,13.27 -11.05,26.55 -16.57,39.82l-49.29 -37.09c3.97,-7.42 7.93,-14.83 11.9,-22.26 17.99,6.51 35.99,13.02 53.96,19.53zm-895.94 18.37c46.76,-33.37 87.09,-64.67 130.39,-91.07 9.28,-5.65 40.38,3.54 42.37,10.98 5.28,19.83 2.73,43.13 -2.91,63.32 -1.13,4.09 -29.48,0.59 -45.29,0.59 -53.31,38.69 -62.52,41.3 -124.56,16.17zm-3255.93 -10.84c-6.05,-12.37 7.09,-34.14 11.79,-51.77 10.13,1.28 20.29,2.56 30.44,3.85 1.83,24.44 3.69,48.88 5.55,73.33 -16.7,-8.09 -41.36,-12.29 -47.78,-25.41zm3385.52 132.91c6.99,3.65 5.07,24.4 7.19,37.38 -4.17,3.13 -8.34,6.26 -12.52,9.4 -19.46,-13.32 -38.91,-26.64 -58.39,-39.96 2.67,-6.39 5.33,-12.79 7.97,-19.18 18.87,3.6 39.44,3.86 55.75,12.36zm-3504.71 -4166.82c4.65,-18.98 -3.19,-39.7 -5.96,-59.24 17.43,2.57 35.77,8.49 56.34,12.34 -17.38,34.07 -35.31,51.31 -59.66,51.67 3.08,-1.57 6.22,-3.19 9.28,-4.76zm4717.84 -77.65c30.9,-5.5 61.08,-10.85 91.2,-16.23 0.96,5.4 1.92,10.79 2.88,16.19 -17.01,7.66 -33.76,16.35 -50.75,23.56 -26.97,11.46 -33.65,2.46 -42.58,-21.84 -0.2,-0.57 -0.52,-1.11 -0.74,-1.68zm-2321.85 -10.98c0.02,-0.13 0.02,-0.26 0.06,-0.37 0.07,0.13 0.15,0.29 0.24,0.44 -0.11,-0.02 -0.22,-0.04 -0.3,-0.06zm-115.87 -19.79c-2.44,-4.08 -4.91,-8.19 -7.38,-12.27 17.58,-10.31 39,-30.13 54.74,-35.92 -1.16,4.96 -2.31,9.93 -3.47,14.89 11.62,3.56 23.28,7.09 38.37,11.7 8.26,6.86 15.53,14.41 21.77,22.54 -3.06,5.22 -5.98,10.28 -8.76,15.33 -36.1,-6.16 -65.73,-11.22 -95.28,-16.27zm-583.28 -65.19c7.31,-25.37 25.68,-44.53 53.7,-50.94 4.21,-0.96 8.56,-1.35 13.04,-1.4 -5.94,6.37 -12.25,16.33 -18.17,22.69 10.81,5.39 22.86,16.83 32.21,14.96 12.89,-2.6 25.16,-8.3 37.39,-14.19 -0.79,13.61 -3.26,27.17 -10.59,35.22 -35.05,38.46 -83.05,32.23 -107.57,-6.33zm-812.52 -84.33c-1.53,-4.76 -6.72,-10.07 -13.17,-14.59 27.06,-1.59 31.47,29.39 46.23,45.05 -14.57,2.21 -24.94,-5.07 -33.06,-30.46zm-548.13 -30.69c14.81,-6.81 30.16,-19.98 44.46,-18.93 18.21,1.33 35.14,18.83 53.48,20.61 16.01,1.57 33.19,-8.95 58.53,-16.83 -2.4,4.8 -4.67,9.28 -6.94,13.8 -2.54,0.26 -5.18,0.68 -7.99,1.4 -5.96,1.49 -10.92,7.04 -15.66,13.34 -5.13,-3.62 -10.37,-7.2 -15.11,-11.09 -13.32,17.8 -29.65,34.48 -41.69,52.74 -20.79,-16.55 -43.02,-34.28 -69.07,-55.03zm1132.46 -58.28c8.73,3.41 17.47,6.88 26.38,10.18 -10.81,12.19 -20.74,21.55 -29.98,28.19 0.83,-12.78 2.12,-25.57 3.61,-38.37zm-613.99 -85.43c-1.07,-2.67 -2.16,-5.35 -3.28,-8.06 10.2,-0.26 20.46,-0.5 20.55,-1.61 1.59,-19.07 -0.02,-38.39 -0.79,-57.65 -10.92,0.35 -21.81,0.7 -32.71,1.07l0 29.39c-19.98,-39.9 -49.33,-75.06 -108.94,-77.52 2.27,-4.3 4.54,-8.6 6.81,-12.89 34.57,-8.56 69.44,-16.09 103.62,-25.96 42.93,-12.38 85.01,-27.78 128.1,-39.57 13.82,-3.78 30.7,-3.34 44.11,1.22 7.95,2.69 16.44,17.47 15.96,26.34 -0.33,5.96 -15.85,15.66 -24.72,15.79 -36.38,0.61 -73.05,-4.7 -109.15,-1.88 -17.56,1.37 -38.13,12.51 -49.18,25.94 -4.7,5.7 10.46,29.2 18.45,43.59 18.26,32.84 37.63,65.07 60.12,103.66 -27.93,11.93 -48.78,28.19 -68.96,-21.86zm-438.44 -204.25c-0.41,-5.94 -0.83,-11.9 -1.27,-17.86 19.7,-10.79 39.37,-21.56 59.07,-32.34 5.44,3.91 10.9,7.84 16.36,11.75 -4.87,19.17 -9.76,38.33 -14.63,57.48 -19.85,-6.33 -39.68,-12.67 -59.53,-19.02zm-386.72 -53.81c-0.63,-1.73 16.75,-10.22 25.77,-15.57 6.49,18.21 12.97,36.43 19.46,54.64 -7.05,3.08 -14.11,6.16 -21.18,9.24 -8.45,-15.94 -17.75,-31.56 -24.04,-48.3zm5228.25 400.04c18.61,1.57 34.33,37.34 51.36,57.52 -19.3,9.02 -38.24,19.02 -58.02,26.82 -42.71,16.83 -70.97,2.8 -93.18,-37.93 -7.73,-14.19 -33.61,-18.48 -56.28,-29.83 -1.22,2.51 0.55,-5.31 3.08,-5.57 51.06,-5.2 102.68,-15.26 153.04,-11.01zm-2917.95 132.84c0.11,0.04 0.2,0.09 0.3,0.13 -1.81,-0.26 -3.56,-0.54 -5.26,-0.83 1.77,-0.07 3.45,0.09 4.96,0.7zm1971.22 28.02c-1.74,0.59 -3.49,1.2 -5.22,1.79 -0.42,-1.46 -0.74,-2.93 -1.2,-4.41 2.2,0.94 4.3,1.77 6.42,2.62zm-3975.57 106.13c15.33,2.31 30.7,4.43 46.1,6.35 -3.26,3.87 -6.46,6.81 -9.63,9.26 -15.57,-5.66 -31.42,-11.59 -47.78,-17.56 3.78,0.66 7.54,1.38 11.31,1.94zm-183.96 -849.99c-27.86,-62.81 -20.2,-89.71 46.74,-116.77 -11.84,46.47 -21.3,83.57 -30.73,120.65 -5.33,-1.29 -10.68,-2.6 -16.01,-3.89zm5226.66 -172.89c16.51,-5.31 37.76,4.11 56.84,6.81 -17.6,21.99 -35.22,43.98 -59.59,74.42 -20.61,-41.99 -35.99,-68.77 2.75,-81.24zm-5488.58 -317.08c3.56,-9.94 7.1,-19.87 10.66,-29.81 49.77,-9.41 87.68,-78.2 150.96,-21.94 3.69,3.3 12.75,2.12 18.89,0.85 58.46,-12.03 57.85,-12.19 53.83,49.27 -2.86,43.74 -3.78,87.61 -14.39,135.89 -58.66,-70.1 -102.68,-153.76 -219.95,-134.26zm427.13 -99.28c2.53,6.22 5.07,12.47 7.62,18.69 31.64,2.67 63.26,5.29 97.22,8.13 -23.96,57 -89.27,81.32 -135.59,51.93 -9.63,-6.11 -14.94,-33.3 -9.63,-45.05 6.51,-14.39 26.31,-22.73 40.38,-33.7zm-271.07 -52.87c53.33,-22.86 78.64,1.33 102.35,29.46 -2.86,5.66 -5.7,11.33 -8.54,17.01 -28.91,-14.33 -57.83,-28.65 -93.81,-46.47zm-74.93 -121.31c-9.59,-3.58 -17.56,-31.88 -14.02,-46.14 8.67,-35.05 3.49,-57.35 -32.74,-71.56 -9.37,-3.67 -12.69,-22.76 -23.98,-44.98 35.03,4.1 56.86,1.92 73.77,10.02 15.98,7.69 29.94,24.41 38.94,40.44 8.47,15.13 11.37,34.37 12.84,52.13 1.31,15.9 3.12,38.06 -5.79,46.93 -10.96,10.92 -35.53,18.19 -49.02,13.17zm65.38 -806.55c13.12,-7.78 25.5,-18.28 39.68,-22.1 6.33,-1.72 16.29,9.98 30.77,19.76 -19.04,14.54 -30.62,28.13 -44.75,31.84 -5.61,1.46 -16.97,-19.02 -25.7,-29.5zm5357.16 -474.31l16.46 -19.39c14.63,9.3 29.28,18.61 43.92,27.93 -8.45,8.13 -21.75,24.59 -24.52,22.98 -13.5,-7.84 -24.17,-20.55 -35.86,-31.51zm-4480.13 -48.79c28.06,-32.58 64.62,-46.91 106.2,-41.58 2.86,6.46 5.7,12.93 8.56,19.39 -35.16,22.01 -70.31,44.04 -120.02,75.17 2.05,-25.57 -2.2,-44.31 5.26,-52.98zm-730.25 41.69c-57.94,-38.54 -96.68,-64.31 -140.44,-93.4 33.43,-28.98 54.27,-36.67 74.4,0.13 18.78,34.31 41.41,27.3 62.61,1.02 7.36,-9.08 12.2,-21.51 21.42,-27.45 15.24,-9.85 33.08,-15.66 49.81,-23.17 0.33,17.34 8.13,42.56 -0.37,50.64 -30.83,29.28 -24.35,98.51 -67.43,92.22zm369.28 -194.27c34.68,-13.56 72.35,-19.5 108.84,-28.46 1.81,5.24 3.62,10.46 5.44,15.68 -32.04,26.25 -38.35,84.27 -97.66,76.04 -14.68,-2.06 -28.08,-13.19 -42.1,-20.16 8.3,-14.89 13.25,-38.32 25.48,-43.11zm301.05 -81.98c3.63,14.22 14.22,31.47 9.59,42.13 -16.4,37.87 -46.82,24.68 -74.44,16.83 -3.06,-6.09 -6.09,-12.19 -9.15,-18.28 24.68,-13.56 49.35,-27.12 74.01,-40.69zm157.12 -31.01c25.59,18.67 39.59,28.89 61.41,44.81 -24.02,16.22 -41.1,27.8 -70.34,47.56 3.43,-35.38 5.63,-58.24 8.93,-92.37zm155.86 -0.55c6.24,4.72 13.39,17.69 10.96,22.73 -10.9,22.6 -25.02,43.63 -37.98,65.21 -5.2,-1.92 -10.39,-3.84 -15.61,-5.76 6.84,-26.49 12.93,-53.22 21.36,-79.16 1.07,-3.32 17.01,-6.25 21.27,-3.02zm3.93 -183.11c88.27,-13.74 194.29,-16.18 252.05,-121.09 38.35,33.43 30.57,98.92 -18.82,116.09 -50.73,17.6 -103.84,28.48 -154.48,46.3 -17.08,6.01 -29.15,25.16 -44.72,36.71 -15.44,11.47 -32.39,20.92 -49.24,31.65 6.31,-45.51 10.46,-75.36 15.22,-109.65zm-87.72 -77.76c5.52,-13.28 11.05,-26.53 16.57,-39.81 16.42,12.36 32.87,24.72 49.29,37.08 -3.98,7.43 -7.93,14.85 -11.9,22.25 -18,-6.51 -35.99,-13.02 -53.96,-19.52zm895.93 -18.37c-46.75,33.37 -87.09,64.67 -130.39,91.06 -9.28,5.66 -40.38,-3.54 -42.37,-10.98 -5.29,-19.83 -2.73,-43.13 2.91,-63.31 1.13,-4.1 29.48,-0.59 45.29,-0.59 53.3,-38.7 62.52,-41.32 124.56,-16.19zm3255.94 10.85c6.05,12.36 -7.1,34.13 -11.79,51.76l-30.44 -3.84 -5.54 -73.33c16.7,8.1 41.36,12.3 47.78,25.42zm-3385.5 -132.93c-7.01,-3.65 -5.09,-24.39 -7.2,-37.39 4.17,-3.12 8.34,-6.24 12.51,-9.39 19.46,13.32 38.92,26.64 58.39,39.96 -2.66,6.4 -5.33,12.78 -7.97,19.17 -18.87,-3.6 -39.44,-3.86 -55.73,-12.36zm3596.1 3607.39c-24.63,-7.38 -43.89,-32.73 -76.32,-58.59 25.2,-4.43 31.44,-6.31 37.76,-6.53 31.82,-1.11 56.85,10.68 79.6,27.15l0 -457.37c-19.22,-9.59 -29.09,-21.38 -11.68,-47.89 4.04,-6.14 7.91,-12.41 11.68,-18.74l0 -575.38c-26.84,-2.95 -51.07,-5.63 -82.57,-9.11 39.13,-41.27 52.61,-47.78 82.57,-15.85l0 -1343.74c-12.91,-1.2 -23.1,-17.56 -35.31,-51.65 13.19,5.37 24.63,10.05 35.31,14.39l0 -128.34c-5.44,8.87 -11.37,18.39 -17.88,29.22 -15.48,-21.31 -32.19,-38.72 -29.79,-41.93 13.8,-18.58 31.09,-34.57 47.67,-51.1l0 -771.07c0,-81.63 -66.39,-148.02 -147.99,-148.02l-1198.85 0c-8.74,2.25 -18.47,3.1 -29.33,2.31 -13.76,-0.98 -29.13,6.57 -42.24,13.26 -32.93,16.75 -54.92,16.07 -70.38,-15.57l-2597.42 0c0.83,14.69 2.77,29.63 -0.18,43.52 -6.51,30.83 -5.83,63.07 -40.31,84.78 -37.89,23.82 -108.88,13.76 -129,-21.64 41.86,-38.59 77.96,-74.91 117.69,-106.65l-182.61 0c-8.82,13.21 -17.64,26.31 -21.7,40.64 -3.87,-14.24 -7.99,-27.65 -11.93,-40.64l-113.67 0c-0.94,14.85 3.21,30.4 5.94,46.91 2.44,14.98 -13.02,47.15 -16.44,46.6 -27.8,-4.37 -54.61,-14.87 -81.87,-23.08 -21.86,-6.55 -43.89,-12.51 -65.84,-18.74 -1.38,20.2 -2.75,40.38 -5,73.2 -6.14,4.58 -26.25,14.98 -39.55,31.01 -8.82,10.61 -7.95,29.28 -11.4,44.35 11.9,1.77 23.78,4 35.75,5.18 10.29,0.98 22.78,-2.49 30.31,2.29 4.74,3.02 6.2,20.86 1.9,26.19 -6.2,7.69 -18.59,11.94 -29.07,14.33 -45.56,10.39 -91.39,19.59 -140.11,29.83 51.01,98.83 50.05,101.85 -27.12,140.7 -28.61,14.39 -53.63,15.61 -77.2,-10.52 -8.47,-9.41 -21.8,-18.26 -33.94,-19.92 -49.42,-6.77 -62.45,-31.14 -46.34,-77.5 3.78,-10.9 -4.02,-37.28 -9.3,-38.09 -51.32,-7.77 -50.73,-50.36 -68.07,-85.32 -25.62,-51.67 -3.34,-94.93 18.26,-131.07 17.38,-29.11 28.02,-43.98 27.82,-56.34l-129.58 0c0.07,5.87 0.65,11.59 2.19,17.07 13.28,47.59 -19.07,98.81 -68.9,101.83 -15.13,0.89 -29.63,12.64 -44.42,19.43 13.74,8.13 26.67,20.68 41.43,23.5 32.45,6.16 46.12,16.77 27.52,50.51 -25.92,46.97 -20.44,55.21 31.99,73.14 17.12,5.85 39.37,17.16 45.31,31.69 24.09,58.92 51.17,111 122.75,121.83 12.78,1.92 24.09,13.63 36.08,20.81 -9.46,10.5 -17.06,24.39 -28.74,30.93 -41.58,23.17 -84.57,43.85 -132.49,68.24 20.96,12.54 36.43,21.78 62.8,37.52 -64,11.59 -110.39,5.81 -156.64,-20.79 -42.1,-24.22 -87.76,-42.43 -132.55,-61.67 -10.16,-4.35 -23.41,-3.76 -34.88,-2.38 -60.51,7.27 -92.35,-15.02 -104.82,-74.2 -3.1,-14.76 -2.78,-34.2 -12.06,-42.76 -15.24,-14.06 -36.62,-26.95 -56.28,-28.39 -9.59,-0.72 -22.69,24.63 -31.3,39.85 -5.44,9.65 -3.78,23.11 -8.34,33.5 -15.39,35.11 1.05,56.6 31.65,66.87 19.63,6.59 42.37,6.03 63.59,5.33 43.57,-1.42 64.22,14.72 58.79,55.38 -18.76,-30.59 -38.15,-54.37 -70.01,-19.92 -3.04,3.28 -14,3.34 -18.48,0.48 -26.16,-16.64 -54.53,-15.33 -62.59,13.28 -5.89,20.98 5.26,50.56 17.1,71.63 10.37,18.43 32.32,30.35 62.24,56.67 -32.15,6.83 -64.31,14.76 -64.66,13.56 -10.48,-36.45 -38.11,-44.35 -65.84,-51.6l0 167.39c5.48,3.95 11.73,8.39 18.89,13.08 -6.64,5.63 -12.86,10.94 -18.89,16.07l0 1938.25c44.33,18.71 94.73,11.77 147.06,-0.92 15.11,82.85 11.77,158.93 -28.76,225.19 -35.07,-16.53 -61.89,-30.09 -89.47,-41.86 -26.49,-11.33 -30.48,-24.81 -7.03,-43.28 8.56,-6.72 17.69,-12.71 33.37,-23.87 -19.91,-9.2 -37.91,-17.82 -55.16,-25.75l0 472.48c18.43,7.36 32.37,21.97 40.6,46.62 4.76,14.24 -18.72,44.03 -36.1,58.29 -1.53,1.24 -3.02,2.25 -4.5,3.3l0 66.43c8.45,8.63 15.05,19.91 18.93,33.13 -6.51,0.79 -12.84,2.12 -18.93,4.26l0 69.4c18.15,0.7 34.09,1.4 49.59,4.22 11.75,2.14 21.88,13.12 32.76,20.09 -10.31,4.21 -20.26,10.31 -30.96,12.25 -7.75,1.4 -14.87,1.4 -21.57,0.35 -2.62,-3.62 -5.37,-7.47 -8.28,-11.9 -2.01,2.78 -4.02,5.37 -5.98,7.86 -5.4,-2.2 -10.53,-5.17 -15.55,-8.63l0 1724.02c26.84,2.94 51.08,5.63 82.57,9.11 -39.13,41.27 -52.61,47.78 -82.57,15.85l0 1343.74c12.91,1.2 23.11,17.56 35.31,51.65 -13.19,-5.37 -24.63,-10.04 -35.31,-14.39l0 128.34c5.44,-8.84 11.38,-18.39 17.89,-29.22 15.48,21.31 32.19,38.72 29.79,41.93 -13.8,18.58 -31.1,34.57 -47.67,51.1l0 771.07c0,81.61 66.39,148.01 148,148.01l1198.85 0c8.73,-2.25 18.47,-3.1 29.33,-2.32 13.76,0.98 29.13,-6.57 42.23,-13.24 32.93,-16.76 54.93,-16.07 70.39,15.56l2597.42 0c-0.83,-14.7 -2.77,-29.62 0.18,-43.52 6.51,-30.83 5.83,-63.06 40.31,-84.76 37.89,-23.84 108.88,-13.77 129,21.63 -41.86,38.6 -77.96,74.91 -117.69,106.66l182.61 0c8.82,-13.22 17.65,-26.32 21.71,-40.64 3.89,14.24 7.99,27.65 11.92,40.64l113.67 0c0.94,-14.84 -3.21,-30.41 -5.92,-46.9 -2.47,-14.98 12.99,-47.15 16.42,-46.61 27.8,4.38 54.62,14.89 81.87,23.08 21.86,6.57 43.89,12.51 65.84,18.74 1.37,-20.18 2.75,-40.36 5,-73.2 6.16,-4.57 26.25,-14.96 39.57,-30.99 8.8,-10.61 7.93,-29.28 11.37,-44.35 -11.9,-1.77 -23.78,-4 -35.74,-5.17 -10.29,-1 -22.78,2.48 -30.29,-2.3 -4.76,-3.02 -6.22,-20.85 -1.92,-26.18 6.22,-7.68 18.58,-11.94 29.07,-14.34 45.55,-10.39 91.39,-19.58 140.11,-29.83 -51.01,-98.82 -50.03,-101.83 27.12,-140.69 28.61,-14.4 53.63,-15.61 77.2,10.51 8.49,9.41 21.79,18.26 33.93,19.92 49.42,6.78 62.46,31.15 46.34,77.51 -3.78,10.89 4.02,37.27 9.3,38.07 51.32,7.79 50.73,50.36 68.07,85.33 25.61,51.68 3.34,94.94 -18.26,131.07 -17.38,29.11 -28.02,43.99 -27.82,56.34l129.59 0c-0.07,-5.87 -0.66,-11.6 -2.19,-17.07 -13.28,-47.59 19.06,-98.83 68.9,-101.83 15.13,-0.91 29.63,-12.66 44.42,-19.44 -13.74,-8.13 -26.64,-20.68 -41.4,-23.49 -32.47,-6.17 -46.15,-16.79 -27.54,-50.52 25.92,-46.97 20.44,-55.2 -31.99,-73.14 -17.12,-5.85 -39.37,-17.16 -45.31,-31.68 -24.09,-58.92 -51.17,-111 -122.73,-121.83 -12.8,-1.94 -24.11,-13.63 -36.1,-20.82 9.46,-10.51 17.06,-24.4 28.74,-30.91 41.58,-23.18 84.58,-43.85 132.49,-68.26 -20.96,-12.53 -36.43,-21.76 -62.78,-37.52 63.98,-11.58 110.37,-5.79 156.62,20.8 42.1,24.21 87.77,42.44 132.56,61.67 10.15,4.35 23.41,3.75 34.87,2.37 60.51,-7.27 92.35,15.02 104.82,74.22 3.1,14.75 2.77,34.19 12.06,42.76 15.24,14.06 36.62,26.94 56.28,28.39 9.59,0.7 22.69,-24.65 31.29,-39.86 5.44,-9.65 3.78,-23.1 8.34,-33.51 15.4,-35.1 -1.05,-56.58 -31.64,-66.85 -19.63,-6.59 -42.37,-6.02 -63.59,-5.33 -43.57,1.43 -64.22,-14.71 -58.79,-55.37 18.76,30.58 38.15,54.38 70.01,19.9 3.04,-3.28 14,-3.33 18.47,-0.48 26.16,16.65 54.53,15.35 62.59,-13.27 5.9,-20.99 -5.26,-50.55 -17.1,-71.62 -10.37,-18.44 -32.32,-30.37 -62.24,-56.68 32.15,-6.81 64.31,-14.76 64.66,-13.56 10.48,36.44 38.11,44.35 65.84,51.59l0 -167.38c-5.48,-3.93 -11.72,-8.39 -18.89,-13.08 6.64,-5.64 12.87,-10.94 18.89,-16.07l0 -1938.25c-44.33,-18.72 -94.73,-11.75 -147.06,0.92 -15.11,-82.83 -11.77,-158.93 28.76,-225.19 35.07,16.53 61.89,30.09 89.47,41.86 26.49,11.33 30.48,24.81 7.03,43.28 -8.56,6.73 -17.69,12.71 -33.37,23.87 19.92,9.19 37.91,17.82 55.16,25.75l0 -472.48c-18.41,-7.36 -32.36,-21.97 -40.59,-46.63 -4.76,-14.24 18.74,-44.02 36.1,-58.28 1.53,-1.24 3.01,-2.25 4.5,-3.3l0 -66.45c-9.65,-9.85 -16.94,-23.08 -20.48,-38.76 -10.22,-45.31 -38.06,-62.41 -84.62,-59.09 -23.89,1.7 -48.57,-8.02 -77.72,-13.48 23.41,-45.86 47.76,-61.32 87.46,-45.97 11.92,4.61 28.48,7.93 39.15,3.26 5.04,-2.21 10.02,-4.19 15,-5.94 4.74,7.78 11.81,16.25 19.67,28.21 9.63,-13.43 19.87,-23.61 21.53,-28.87l0 -2.55c-0.76,-1.49 -1.59,-2.91 -2.51,-4.28 0.83,-0.02 1.68,0.09 2.51,0.11l0 -44.94c-21.33,-4.28 -42.3,-8.23 -62.06,-12.17 11.44,-26.4 18.67,-42.61 25.51,-58.98 4.06,-9.78 7.51,-19.85 11.25,-29.78 8.34,3.56 17.82,5.83 25.31,10.33l0 -85.3c-6.64,-1.72 -13.36,-3.67 -20.22,-6.09 -8.47,-3.01 -16.73,-4.26 -24.68,-4.19 1.64,-1.68 3.28,-3.41 4.91,-5.13 9.28,-9.89 14.63,-23.47 21.75,-35.37 -10.68,-6.29 -21.43,-12.49 -32.04,-18.91 -14.83,-8.95 -29.57,-18.08 -51.91,-31.77 75.19,-27.54 97.35,-55.78 76.96,-94.25 8.36,5.74 16.7,10.26 24.98,10.15 0.09,0 0.18,0 0.24,-0.02l0 -67.46c-4.02,1.37 -8.01,2.81 -11.94,4.37 -9.21,3.63 -16.75,11.55 -24.11,19.91 -0.33,-13.23 5.28,-25.31 17.21,-39.52 23.26,-27.76 19.59,-48.65 -22.19,-61.17z"/>
  <path class="fil0" d="M7638.94 8449.31c3.65,2.01 23.58,-14.72 22.6,-16.99 -6.4,-14.67 -16.51,-27.76 -30.49,-49.13 -14.15,17.17 -29.5,32.02 -27.8,34.33 9.37,12.71 21.88,24.19 35.69,31.8z"/>
  <path class="fil0" d="M8114.5 7818.44c9.69,3.45 27.56,-16.01 41.71,-25.03 -23.61,-16.14 -47.24,-32.25 -73.5,-50.2 -18.35,15.13 -28.59,23.59 -38.81,32.02 23.3,15.09 45.16,34.13 70.6,43.22z"/>
  <path class="fil0" d="M6026.11 9666.11c18.94,9.07 37.26,22.57 57.06,25.34 9.72,1.35 22.21,-17.22 33.43,-26.77 -12.84,-12.44 -24.2,-32.28 -38.96,-35.25 -14.92,-3.02 -33.22,10.66 -50.05,17.02 -0.5,6.56 -0.98,13.11 -1.49,19.66z"/>
  <path class="fil0" d="M7298.01 8933c6.66,2.52 18.83,-9.49 42.74,-22.76 -26.01,-16.5 -42.93,-30.68 -59.79,-38.35l0 53.6c5.59,2.76 11.25,5.32 17.06,7.52z"/>
  <path class="fil0" d="M7459.11 9405.14c26.14,-21.43 24.94,-43.77 1.96,-70.76 -18.71,12.98 -35.83,24.84 -56.58,39.23 -12.25,-16.67 -23.43,-30.87 -33.5,-45.81 -11.88,-17.62 -18.93,-41.09 -34.85,-52.94 -62.17,-46.31 -62,-81.31 8.36,-134.95 -18.26,-4.17 -46.82,-17.44 -52.74,-10.73 -4.39,4.98 -7.84,10.81 -10.81,17.04l0 148.35c0,30.69 -4.3,60.38 -12.19,88.6 10.09,4.56 22.3,13.24 41.14,26.88 16.16,11.69 27.56,30.83 44.64,40.16 46.25,25.24 41.43,50.85 10.5,86.34 -9.09,10.42 -8.98,41.02 -0.17,51.55 9.69,11.57 40.03,20.07 51.23,13.25 24.94,-15.18 43.57,-40.74 67.52,-64.85 -88.01,-38.1 -91.48,-62.73 -28.22,-127.9 1.18,-1.2 2.38,-2.38 3.69,-3.45z"/>
  <path class="fil0" d="M7419.86 9061.16c-13.26,19.83 -38.41,40.22 -37.49,59.37 2.38,50.31 20.15,99.77 24.04,150.17 3.06,39.69 18.63,49.33 50.36,33.15 30.99,-15.79 44.81,1.73 55.25,23.83 7.64,16.23 9.45,35.27 13.52,53.14 10,44.21 55.6,84.1 84.03,69.42 35.2,-18.17 67.24,-42.46 106.76,-68.08 -15.13,-10.21 -29.33,-17.56 -40.75,-27.97 -20.9,-19.07 -46.3,-36.8 -58.55,-60.83 -15.81,-30.99 -20.53,-67.63 -29.92,-101.41 14.83,-24.63 34.48,-53.2 49.9,-83.9 23.63,-47.05 -29.04,-56.81 -44.59,-84.9 -3.26,-5.88 -6.11,-12.68 -11.05,-16.8 -36.06,-30.1 -72.59,-59.62 -120.85,-99.02l0 193.29c-15.98,-15.5 -28.32,-27.48 -40.66,-39.47z"/>
  <path class="fil0" d="M7627.21 8577.67c24.24,13.8 38.43,27.32 44.48,24.33 21.62,-10.68 40.46,-26.95 60.36,-41.12 -14.33,-11.53 -31.88,-34.85 -42.32,-32.04 -19.46,5.28 -34.79,25.79 -62.52,48.83z"/>
  <path class="fil0" d="M7652.3 7634.04c-0.46,7.91 -0.74,19.61 -5.59,22.86 -51.19,34.24 -9.78,50.73 14.68,62.15 32.3,15.07 46.49,35.51 44.52,70.41 -0.76,13.8 3.65,27.91 5.55,40.66 38.81,-8.63 71.89,-15.98 103.3,-22.95 -24.55,-32.04 -62.57,-60.58 -67.37,-93.93 -4.67,-32.28 24.78,-69.51 37.84,-101.17 27.47,-1.31 47.67,-2.27 71.37,-3.41 -25.33,-48.61 -80.93,-77.44 -121.79,-68.64 -57.04,12.25 -79.27,37.85 -82.5,94.01z"/>
  <path class="fil0" d="M6870.19 1299.26c3.87,22.95 16.49,44.42 26.25,66.36l54.53 0c10.5,0 20.9,0.55 31.16,1.51 -13.34,-31.73 -26.42,-63.33 -37.84,-95.5 -11.99,-33.74 -37.39,-29.18 -56.45,-19.22 -11.48,5.98 -20.15,31.95 -17.65,46.84z"/>
  <path class="fil0" d="M6190.2 1059.76c29.13,-6.35 54.81,-11.97 81.56,-17.82 -19.92,-44.85 -19.92,-44.85 -81.56,17.82z"/>
  <path class="fil0" d="M6043.94 991.63c8.73,37.02 45.38,59.83 84.97,51.56 39.55,-8.28 50.29,-32.43 41.47,-71.26 -2.27,-10.07 9.81,-32.15 18.98,-34.52 43.11,-11.2 87.5,-17.47 131.44,-25.51 -0.13,-5.87 -0.26,-11.75 -0.39,-17.65 -15.59,-3.01 -31.07,-7.16 -46.82,-8.84 -37.21,-3.98 -75.21,-3.41 -111.68,-10.74 -69.75,-14.04 -134.19,48.13 -117.96,116.96z"/>
  <path class="fil0" d="M7237.72 1434.65c9.69,35 17.67,63.83 28.48,102.92 11.18,-14.98 18.71,-29.09 29.89,-39.07 14.09,-12.56 30.73,-30.05 47.02,-30.85 46.52,-2.36 64.7,-23.5 39.05,-62.2 -16.38,-24.67 -46.6,-40.18 -78.66,-66.39 -6.42,44.29 -10.35,71.39 -14.61,100.76 -20.79,-2.12 -36.56,-3.69 -51.17,-5.17z"/>
  <path class="fil0" d="M7377 1615.57c1.42,7.6 11.11,17.91 18.26,19.02 7.86,1.22 21.73,-4.52 24.92,-11.11 8.91,-18.39 24.48,-45.16 17.54,-56.95 -11.16,-19 -38.24,-28.67 -58.59,-42.28 -3.78,4.52 -7.54,9.04 -11.31,13.56 2.81,25.96 4.41,52.17 9.19,77.76z"/>
  <path class="fil0" d="M7349.41 1314.54c8.93,9.72 31.43,7.01 47.85,9.87 -3.38,-14.33 -2.73,-31.97 -11.11,-42.17 -12.31,-14.94 -31.1,-24.55 -47.13,-36.45 -5.07,3.67 -10.13,7.31 -15.2,10.96 8.06,19.7 12.12,43.08 25.59,57.78z"/>
  <path class="fil0" d="M5392.56 1004.2c10.88,-13.36 24.61,-26.14 22.89,-28.78 -8.19,-12.49 -19.37,-24.54 -32.3,-31.44 -3.76,-2.01 -16.88,13.56 -25.72,21.07 10.39,11.57 20.77,23.15 35.13,39.15z"/>
  <path class="fil0" d="M7338.91 1621.6c-9.74,-6.42 -25.07,-5.85 -37.84,-5.83 -9.94,0 -19.87,0.28 -29.79,0.61 6.27,25.4 9.67,51.91 9.67,79.23l0 28.74c6.83,-9.72 14.02,-19.09 22.1,-27.63 25.09,-26.53 36.12,-11.03 40.2,18.28 2.51,17.89 8.95,35.22 13.61,52.8 24.57,-31.67 5.13,-131 -17.95,-146.2z"/>
  <path class="fil0" d="M5912.78 723.7c-3.15,4.15 11.33,21.62 24.39,44.74 16.81,-24.81 28.19,-39.09 35.8,-55.14 1.35,-2.84 -16.4,-20.28 -19.68,-18.78 -15.11,6.99 -30.79,16.33 -40.51,29.18z"/>
  <path class="fil0" d="M7111.01 1398.46c-3.62,1.07 -7.07,2.07 -10.55,3.1 24.17,12.36 46.65,27.58 66.93,45.27 -4.8,-15.92 -7.44,-32.87 -9.76,-49.31 -1.86,-13.3 3.06,-27.58 4.91,-41.43 -14.46,7.29 -30.75,12.45 -42.74,22.65 -7.73,6.57 -9.15,20.57 -8.8,19.72z"/>
  <path class="fil0" d="M3613.77 1229.31c-5.85,-34.35 6.2,-50.18 36.93,-49.92 41.28,0.35 46.45,-21.7 35.84,-52.15 -10.59,-30.33 1.09,-40.38 29.02,-42.5 9.98,-0.74 21.93,-0.83 29.22,-6.27 14.35,-10.64 26.07,-24.81 38.89,-37.54 -16.4,-8.8 -37.98,-29.04 -48.28,-24.39 -41.23,18.67 -111.48,-3.71 -114.78,74.09 -0.22,5.22 -7.01,12.04 -12.43,14.87 -47.65,25.09 -82.48,85.45 -153.04,48.06 22.19,62.61 -52.19,149.39 -128.25,142.89 13.71,-18.83 36.69,-28.63 52.26,-45.36 32.17,-34.5 15.22,-74.51 -1.31,-108.34 -7.05,-14.46 -33.52,-25.64 -52.02,-27.06 -48.09,-3.71 -96.83,-3.71 -144.91,0.04 -19.83,1.55 -41.06,13.41 -57.3,26.14 -26.43,20.7 -49.29,45.94 -81.37,76.65 -6.66,-32.28 -9.2,-52.04 -14.94,-70.84 -9.94,-32.65 -50.91,-50.73 -82.05,-36.25 -34.11,15.83 -29.7,36.73 -11.44,65.06 8.98,13.93 4.32,36.67 5.83,55.43l9.11 -8.26c22.56,24.46 40.77,58.9 68.68,71 38.41,16.66 60.97,48.09 91.59,70.95l61.39 0c2.36,-2.03 3.97,-4.08 4,-5.79 0.13,-9.76 -5.39,-22.67 -12.97,-28.89 -26.81,-22.06 -56.1,-41.08 -82.94,-63.11 -5.15,-4.24 -3.41,-16.9 -3.1,-14.96 35.75,0 68.81,-1.53 101.63,0.55 21.62,1.37 46.93,2.23 63.31,13.69 18.52,12.93 32.85,36.05 40.81,57.74 3.17,8.65 -13.93,26.88 -24.61,38.09 -0.85,0.89 -1.72,1.79 -2.57,2.69l315.94 0c0.02,-9.83 1.46,-17.69 5.74,-20.35 48,-29.83 45.44,-73.05 38.13,-115.96z"/>
  <path class="fil0" d="M4814.8 914.71c2.45,4.52 4.89,9.04 7.34,13.56 21.19,0 44.24,5.13 63,-1.62 15.2,-5.48 25.27,-25.24 37.61,-38.67 -14.33,-5.41 -31.69,-18.71 -42.32,-14.61 -23.67,9.15 -43.96,27.02 -65.62,41.34z"/>
  <path class="fil0" d="M4125.23 1174.37c-33.19,19.57 -65.23,47.87 -94.38,-6.69 31.47,2.23 62.91,4.46 94.38,6.69zm774.89 35.75c-34.5,51.47 -71.56,87.26 -131.29,92.42 -7.84,0.68 -15.94,4.82 -22.8,9.17 -37.21,23.54 -51.76,18.61 -54.57,-30.13 -1.48,-26.12 -26.73,-50.88 -42.58,-78.57 79.99,-48.83 161.14,-15.72 251.24,7.12zm229.56 1.46c-16.57,16.14 -32.28,33.33 -50.03,48.02 -10.05,8.3 -24.44,11.11 -35.22,18.76 -57.67,40.88 -57.5,41.14 -116.35,-24.44 67.8,-19.11 130,-36.64 192.21,-54.18 3.12,3.95 6.27,7.91 9.39,11.83zm185.36 63.92c-32.58,2.14 -57.3,3.76 -82.02,5.37 3.08,-12.67 2.07,-31.86 10,-36.82 25.31,-15.83 49.77,-13.34 72.02,31.45zm403.54 77c-20.26,-2.14 -42.34,-0.72 -59.29,-9.39 -11.77,-6 -15.35,-28.06 -22.58,-42.93 4.63,-2.12 9.26,-4.22 13.89,-6.33 22.67,19.54 45.31,39.11 67.98,58.66zm-2009.05 -50.58c5.94,-16.31 21.23,-29.24 32.76,-43.54 7.67,10.94 15.35,21.88 28.5,40.57 -14.76,13.61 -26.07,24.02 -37.39,34.42 -8.56,-10.7 -26.29,-24.74 -23.87,-31.45zm2430.65 -27.73c27.82,2.16 55.01,3.08 81.7,7.23 6.37,1 15.63,12.97 15.37,19.59 -0.31,7.82 -7.78,18.83 -15.09,22.32 -24.28,11.59 -72.02,-16.94 -81.98,-49.13zm340.8 -60.58c3.32,-3.58 6.62,-7.16 9.94,-10.76 122.8,41.38 132.91,50.59 106.04,112.22 -42.02,-36.75 -79.01,-69.09 -115.98,-101.46zm-2044.16 -288.52c-72.54,31.62 -159.46,38.39 -208.74,113.54 -3.28,5 -11.46,10.42 -16.8,9.89 -69.51,-6.96 -40.77,33.74 -28.83,63.24 -71.47,36.01 -237.59,4.61 -282.62,-55.44 -37.65,41.84 -125.74,19.96 -123.69,97.44 -27.34,14.46 -67.22,29.98 -65.86,35.7 13.1,55.25 -34.07,65.54 -59.96,92.46 -10.2,10.59 -12.36,29.94 -15.66,45.82 -2.58,12.36 -2.97,25.31 -4.5,37.89l2091.68 0c0.09,-3.49 0.09,-7.05 -0.11,-10.74 5.83,3.54 11.59,7.14 17.41,10.74l1124.51 0c-8.93,-9.3 -17.38,-18.8 -21.53,-29.89 -10.22,-27.45 -10.61,-58.42 -18.56,-86.94 -15.92,-57.04 -52.37,-67.91 -92.96,-23.43 -31.06,34.02 -70.23,35.11 -93.31,12.45 -26.8,-26.31 -63.64,-55.6 -55.93,-106.5 2.62,-17.4 -12.23,-37.47 -19.09,-56.32 -14,13.56 -27.91,27.19 -42.06,40.57 -2.33,2.19 -5.65,3.32 -11.16,6.4 -9.09,-2.88 -19.87,-8.54 -31.07,-9.5 -61.21,-5.26 -130.28,2.6 -154.07,55.51 -23.78,52.89 -44.11,54.16 -86.13,2.23 14.54,-6.22 30.44,-8.84 39.85,-18.06 13.8,-13.54 22.97,-31.8 34.13,-48.04 -17.27,-9.26 -37.08,-29.13 -51.3,-25.72 -38.43,9.22 -84.62,2.07 -110.67,48.15 -8.06,14.24 -40.2,25.2 -58.13,21.62 -63.37,-12.62 -96.63,21.8 -126.11,67.96 -6.9,10.81 -16.47,19.92 -24.22,29.13 -47.63,-21.81 -48.48,-27.21 -20.33,-113.99 22.8,-2.25 47.17,-1.05 68.72,-8.3 10.85,-3.65 24.68,-23.98 22.93,-34.37 -3.82,-22.56 -11.31,-50.49 -27.52,-63.31 -17.01,-13.47 -47.28,-18.93 -69.35,-14.85 -22.74,4.19 -39.64,22.8 -22.45,53.74 21.2,38.19 -4.98,52.06 -37.37,55.93 -38.15,4.54 -52.74,28.26 -52.24,62.11 0.94,63.42 32.36,95.13 96.39,105.04 12.53,1.94 23.69,12.73 35.48,19.41 -16.53,19.83 -31.62,41.36 -51.01,57.78 -3.19,2.71 -26.64,-15.63 -38.46,-26.67 -18.69,-17.49 -34.11,-38.54 -53.31,-55.36 -38.28,-33.54 -78.18,-65.25 -114.95,-95.67 36.73,-40.07 70.95,-77.41 105.17,-114.76 -3.08,-5.35 -6.16,-10.7 -9.24,-16.05 -50.8,13.8 -107.96,84.71 -144.85,-12.84 25.86,-36.25 -2.47,-67.7 -31.09,-75.97 -69.6,-20.09 -35.94,49.83 -55.43,81.19 -7.49,-10.83 -12.86,-16.7 -16.12,-23.56 -16.38,-34.68 -43.3,-20.29 -64.62,-10.57 -11.79,5.4 -17.73,23.65 -26.31,36.1 17.14,11.03 33.28,24.42 51.78,32.19 11.29,4.76 26.23,0.9 51.49,0.9 -52.87,25.22 -93.24,44.05 -133.25,63.68 -56.36,27.69 -105.61,71.56 -179.33,40.03 -43.28,-18.52 -64.16,-45.59 -39.72,-96.13 30.16,29.63 64.01,51.58 94.17,4.85 7.2,-11.18 2.71,-41.84 -7.43,-50.27 -54.79,-45.57 -75.3,-42.87 -112.83,-2.07 -29.52,-7.19 -54.42,-20.59 -76.48,-16.93 -36.25,6.03 -57.11,33.98 -57.32,72.72 -0.13,25.48 -5.33,35.62 -35.93,29.18 -30.48,-6.4 -63.44,-1.81 -95.26,-0.63 -17.99,0.65 -38.54,10.87 -53.31,5.07 -49.96,-19.7 -98.09,-18.85 -147.99,-2.3 -9.35,3.1 -21.44,-2.09 -46.38,-5.26 20.05,-25.13 30.48,-45.81 47.19,-57.65 34.55,-24.48 39.5,-43.15 4.19,-66.8 -16.64,-11.13 -43.63,-5.7 -64.94,-11.42 -19.15,-5.13 -36.97,-15.26 -55.38,-23.19 8.8,-16.38 15.33,-34.63 26.94,-48.68 15.46,-18.67 34.87,-34.07 52.61,-50.86 -3.17,-4.08 -6.33,-8.14 -9.5,-12.23 -10.72,2.34 -21.8,3.65 -32.1,7.19 -60.17,20.55 -121.68,38.11 -179.79,63.46z"/>
  <path class="fil0" d="M5714.14 990.69c-2.05,1.83 6.2,22.97 13.5,26.01 29.11,12.03 59.44,21.53 89.99,29.44 7.71,2.01 23.59,-3.39 25.55,-8.95 3.1,-8.82 1.42,-25.53 -4.83,-30.38 -22.93,-17.75 -48.57,-32.01 -75.45,-49 -20.5,13.13 -36.06,21.44 -48.76,32.89z"/>
  <path class="fil0" d="M5695.06 902.37c-2.88,-6.75 -5.76,-13.49 -8.65,-20.22l-66.19 22.39c8.69,12.82 14.89,33.19 26.53,37.01 33.63,11.03 41.91,-14.83 48.3,-39.18z"/>
  <path class="fil0" d="M7302.11 4705.22c40.07,-6.14 34.98,-28.85 23.41,-54.9 -5.41,-12.17 -16.07,-22.73 -18.76,-35.22 -12.71,-59.4 5.83,-120.87 -19.46,-181.34 -2.62,-6.27 -4.61,-12.78 -6.35,-19.39l0 302.21c6.81,-5.35 13.69,-10.22 21.16,-11.35z"/>
  <path class="fil0" d="M7508.89 3766.19c-18.04,-8.95 -29.61,-19.67 -38.89,-17.97 -10.37,1.9 -18.63,15.11 -27.82,23.39 10.83,8.65 20.85,22.25 32.74,24.13 7.62,1.2 17.99,-14.92 33.98,-29.55z"/>
  <path class="fil0" d="M7651.74 3738.02c20.7,3.76 41.38,7.51 62.08,11.27 0.7,-14.65 7.91,-35.07 0.94,-42.87 -23.69,-26.54 -43.5,-10.26 -63.02,31.6z"/>
  <path class="fil0" d="M7637.35 3417.03c10.2,0.61 20.39,1.46 30.59,2.14 -0.61,2.3 -0.79,5.22 -1.18,7.3 0.92,10.05 6.24,15.68 16.33,15.55 4.54,-0.06 13.06,-0.37 9.57,-7.01 -3.02,-5.7 -7.86,-11.25 -13.32,-15.26 7.1,0.33 14.2,0.5 21.27,0.3 6.66,-0.22 13.06,-8.54 19.59,-13.15 -0.35,-7.14 -0.7,-14.28 -1.05,-21.42 -24.04,2.31 -48.35,3.41 -71.96,8.01 -4.63,0.9 -6.64,15.35 -9.85,23.54z"/>
  <path class="fil0" d="M7591.38 3734.11c-18.48,26.69 -31.31,57.24 -46.28,87.02 7.86,15.05 11.25,31.51 20.48,36.01 7.14,3.5 22.36,-6.75 32.6,-13.1 15.35,-9.52 29.68,-20.77 44.16,-31.64 30.57,-23.02 12.07,-46.47 -4.52,-63.26 -10.7,-10.81 -43.5,-19.3 -46.45,-15.02z"/>
  <path class="fil0" d="M7405.47 4582.29c-7.36,4.15 -14.72,8.28 -22.1,12.43 10.87,26.38 20.2,53.61 33.32,78.7 -18.5,14.02 -30.7,36.06 -30.86,60.65 -0.28,41.84 34.4,76.93 76.26,77.2 41.84,0.26 76.93,-34.4 77.2,-76.28 0.26,-41.32 -33.57,-76 -74.75,-77.09 -0.15,-0.39 -0.2,-0.85 -0.39,-1.2 -16.53,-26.69 -38.67,-49.88 -58.68,-74.4z"/>
  <path class="fil0" d="M7612.32 4036.74c8.23,2.75 16.46,5.5 24.7,8.26 -1.05,-41.89 72.2,-14.63 50.23,-67.7 -4.52,-10.94 -48.92,-5.39 -74.93,-7.43l0 66.87z"/>
  <path class="fil0" d="M7316.81 4770.77c-7.03,-4.13 -17.78,-3.41 -23.04,-8.69 -4.74,-4.72 -8.87,-10.04 -12.82,-15.52l0 69.38c8.78,1.13 17.56,1.92 26.34,1.74 15.42,-0.28 30.59,-14.32 45.88,-22.17 -12.07,-8.34 -23.76,-17.34 -36.36,-24.74z"/>
  <path class="fil0" d="M7686.2 2297.32c5.96,1.93 16.86,-11.55 25.5,-18.02 -11.18,-10.31 -21.14,-22.95 -34.13,-29.76 -5.18,-2.69 -17.12,7.56 -35.7,16.69 20.11,14.89 30.99,26.81 44.33,31.09z"/>
  <path class="fil0" d="M7280.95 2070.52l0 214.49c12.3,0.15 24.98,0.48 38.59,0.48 8.61,43.7 0.87,96.04 50.91,129.37 23.85,-56.36 3.06,-98.81 -18.21,-143.39 -12.17,-25.53 -28.59,-67.83 -17.28,-82.13 30.55,-38.59 29.13,-78.66 27.47,-120.65 -0.5,-12.71 -8.34,-33.52 -16.59,-35.6 -13.37,-3.34 -32.34,2.19 -44.27,10.59 -8.43,5.96 -14.13,15.83 -20.61,26.84z"/>
  <path class="fil0" d="M7525.65 1895.93c-32.85,6.49 -55.43,27.3 -45.7,58.98 4.74,15.44 35.13,23 53.91,34.11 2.12,-3.71 4.24,-7.4 6.36,-11.11 5.02,0 10.72,1.55 14.96,-0.26 18.5,-7.93 47.17,-12.84 52.24,-26.33 7.07,-18.8 0.26,-46.15 -9.13,-65.76 -2.7,-5.63 -34.79,2.45 -53.3,4.89 -6.57,0.87 -12.78,4.19 -19.33,5.48z"/>
  <path class="fil0" d="M7432.51 1887.21c11.68,1.46 33.02,-15.13 36.82,-27.45 3.47,-11.2 -7.89,-37.21 -17.95,-40.46 -35.4,-11.44 -73.33,-14.74 -109.78,-23.35 -20.44,-4.83 -40.56,-11.05 -60.65,-17.32l0 82.77c43.78,52.61 101.2,19.59 151.56,25.81z"/>
  <path class="fil0" d="M7285.32 2513.41c0.41,-21.1 0.26,-46.15 -4.37,-71.19l0 93.53c2.62,-7.23 4.24,-14.67 4.37,-22.34z"/>
  <path class="fil0" d="M7449.37 2806.97c6.09,5.39 30.51,2.62 33.85,-3.41 21.62,-39.02 -2.2,-115.87 -44.96,-147.58 -25.59,41.12 -19.83,123.58 11.11,150.98z"/>
  <path class="fil0" d="M7326.92 3910.24c15.55,-6.29 30.03,-12.14 43.11,-17.43 12.75,41.82 23.58,77.33 34.39,112.81 -4.02,3.49 -8.04,6.99 -12.06,10.48 -20.37,-32.95 -40.75,-65.93 -65.45,-105.87zm-14.63 -454.44c7.06,-4.24 19.22,-14.3 21.49,-12.44 24.87,20.59 47.19,15.81 72.39,0.11 3.78,-2.36 27.45,13.63 28.26,22.41 3.34,35.84 1.4,72.15 1.4,108.31 -4.46,1.7 -8.89,3.39 -13.34,5.09 -35.88,-40.22 -71.78,-80.43 -110.19,-123.47zm62.54 887.33c-1.42,14.94 16.44,43.55 28.54,45.4 24.09,3.69 50.35,-6.83 90.32,-14.15 -3.28,-3.71 -6.29,-7.31 -9.19,-10.87 26.7,-8.78 46.07,-33.26 46.91,-63.24 1.07,-37.89 -27.78,-68.98 -65.6,-70.73 -19.26,-0.87 -36.82,5.96 -49.81,17.8 20.35,-45.71 3.04,-73.31 -42.06,-78.4 -14.08,-1.59 -28.5,-0.24 -45.79,-0.24 15.72,-24.74 30.48,-47.98 42.69,-67.17 10.9,0.76 21.64,1.53 32.41,2.29 8.39,24.79 31.27,41.78 59.59,41.69 24.87,-0.09 45.51,-13.41 55.69,-33.56 12.47,0.89 24.94,1.77 37.39,2.64 1.74,-6.77 3.47,-13.54 5.2,-20.31 -12.97,-9.26 -25.18,-22.38 -38.44,-30.29 -7.75,-26.47 -31.88,-44.64 -61.65,-44.07 -1.27,0.02 -2.47,0.15 -3.69,0.24 -3.56,-13.54 -0.09,-29.37 11.37,-45.8 24.15,6.14 46.45,11.79 68.72,17.47 -1.18,-28.98 -1.22,-58.04 -4.19,-86.83 -0.94,-9.11 -7.69,-20.42 -15.29,-25.35 -0.59,-0.39 -1.26,-0.76 -1.9,-1.16 1.75,-5.44 2.69,-11.2 2.6,-17.14 -0.39,-29.94 -25.55,-55.08 -55.49,-55.45 -30.83,-0.37 -57.1,25.92 -56.69,56.76 0,0.5 0.07,0.98 0.09,1.48 -16.2,-14.43 -23.45,-40.13 -19.83,-75.6 1.53,-14.94 -3.17,-35.56 -13.06,-45.67 -27.04,-27.58 -8.54,-52.8 4.45,-72.61 5.98,-9.13 23.8,-15.57 38.83,-16.38 3.61,22.52 23.04,39.42 46.63,38.94 14.96,-0.31 28.06,-7.78 36.31,-19.02 32.61,9.72 67,20.74 106.42,32.56 2.05,-70.65 1.74,-133.36 6.33,-195.73 3.98,-54.07 -8.17,-95.32 -66.41,-108.97 16.49,-20.94 36.08,-37.23 43.37,-57.85 5.77,-16.33 2.43,-43.3 -8.32,-55.44 -7.25,-8.21 -37.34,-4.35 -52,3.67 -37.8,20.64 -35.79,57.39 -27.34,93.51 3.67,15.59 0.2,31.03 -7.8,37.06 -1.22,-18.41 -13.04,-27.69 -31.95,-29.2 -5.61,0.57 -10.5,1.88 -14.74,3.82 -17.84,-18.58 -32.54,-41.17 -36.67,-63 -8.73,-46.21 -28.43,-60.8 -69.86,-58.98 -47.04,2.08 -54.16,-6.92 -42.3,-53.91 3.26,-12.91 4.7,-26.45 9.57,-38.68 4.91,-12.3 13.06,-23.32 19.78,-34.92 9.96,11.09 22.84,20.72 29.39,33.56 27.45,53.68 53,108.31 79.25,162.63 20.09,-43.35 25.57,-85.63 38.22,-125.65 7.34,-23.15 21.56,-52.21 40.94,-61.65 32.98,-16.05 33.46,-36.71 29.26,-65.27 -6.81,-46.49 -10.29,-93.53 -18.82,-139.65 -5.98,-32.3 -18.06,-63.46 -27.43,-95.15 -6.03,1.16 -12.06,2.31 -18.08,3.47 0,18.85 -3.78,38.68 0.76,56.36 10.02,39 26.62,76.39 35.75,115.57 4.59,19.68 -1.31,41.8 -2.66,66.3 -64.88,-25.59 -118.82,-46.89 -173.09,-68.31 43.52,-54.79 54,-85.85 47.02,-131.88 -5.04,-33.17 -3.78,-68.18 -14.06,-99.49 -15.66,-47.72 -34.26,-96.02 -61.54,-137.54 -4.63,-7.03 -17.31,-9.7 -31.95,-10.33l0 1562.95c64.05,26.7 100.45,60.03 93.88,129.47z"/>
  <path class="fil0" d="M1030.11 5954.98c-2.31,-4.72 15.2,-19.22 29.79,-36.53 10.24,18.43 20.87,29.33 21,40.35 0.13,9.57 -11.66,19.26 -18.19,28.91 -11.44,-10.63 -26.16,-19.65 -32.6,-32.74zm174.79 -401.81c4.87,0.28 9.72,0.57 14.59,0.87 0,24.2 0.87,48.43 -0.74,72.52 -0.33,4.72 -11.7,13.32 -15.59,12.14 -7.57,-2.25 -17.51,-9.09 -19.33,-15.94 -7.31,-27.52 -0.09,-51.43 21.07,-69.59zm73.2 926.68c-8.02,5 -16.27,11.55 -25.03,17.56 9.3,3.52 18.06,6.81 26.95,10.18 1.75,14.87 4.98,29.72 10.66,44.53 -0.61,0.65 -1.24,1.31 -1.83,1.98 -10.09,11.94 -17.23,26.4 -25.66,39.74 11.69,6.9 25.01,20.42 35.46,22.54l0 -1116.85c-14.3,-3.41 -26.88,-7.45 -33.02,-16.07 -14.87,-20.92 -14.24,-52.89 -22.28,-89.31 -4.19,-3.3 -17.54,-13.8 -35.42,-27.89 40.97,-22.56 65.1,4.91 90.71,16.86l0 -67.96c-1.37,0.96 -2.81,1.75 -4.26,2.17 -33.13,9.11 -66.61,18.91 -100.59,22.51 -32.91,3.47 -43,9.11 -24.09,42.72 8.08,14.37 6.18,43.37 -3.65,56.04 -8.19,10.52 -42.69,15.94 -51.67,7.99 -9.74,-8.65 -18.95,-13.91 -27.76,-16.75 0.68,-3.56 1.07,-7.21 1.05,-10.9 -0.13,-32.52 -28.06,-60.25 -60.52,-60.1 -32.49,0.15 -60.25,28.08 -60.09,60.51 0.13,29.22 22.71,54.51 50.81,59.24 9.28,9.61 19,19.66 28.74,29.77 -3.32,4.11 -6.64,8.21 -9.96,12.31 6.07,-1.55 12.36,-4.93 18.15,-4.24 10.26,1.27 20.24,5 30.33,7.71 -3.49,10 -5.31,21.14 -11,29.68 -4.78,7.16 -13.82,15.24 -21.49,15.79 -10.42,0.74 -30.77,-5.98 -30.62,-8.34 2.84,-38.83 -27.08,-36.34 -50.97,-46.39 5.94,24.96 20.13,47.83 13.98,69.73 -8.17,6.97 -14.7,15.83 -18.83,25.79 -0.02,0 -0.02,0.02 -0.04,0.04 -1.18,0.92 -1.85,3.1 -2.12,5.96 -1.77,5.81 -2.77,11.9 -2.77,18.15 -0.07,21.79 11.46,41.71 28.52,53.89 -0.74,5.46 -2.27,11.14 -4.56,17.19 -4.26,11.33 -6.29,23.5 -12.41,47.19 41.38,-11.2 72.15,-20.94 103.57,-27.43 15.81,-3.25 32.85,-0.57 49.33,-0.57 1.53,6.44 3.04,12.86 4.56,19.3 -17.36,9.5 -34.46,19.5 -52.17,28.28 -10,4.96 -23.78,5.13 -30.99,12.32 -0.83,0.85 -1.64,1.46 -2.47,2.23 -5.96,-1.62 -12.17,-2.49 -18.5,-2.34 -9.5,0.2 -18.65,2.43 -27.01,6.25 -1.9,-1.49 -3.85,-3.06 -5.81,-4.94 -26.73,-25.53 -54.55,-49.94 -86.3,-78.85 -9.17,24.96 -26.01,60.31 -22.43,62.54 33.69,20.75 31.91,63.9 55.2,85.41 26.42,24.44 17.56,31.8 -4.39,44.63 -7.82,4.59 -18.76,6.57 -23.5,13.19 -20.96,29.09 -37.06,21.79 -53.09,-4.19 -1.61,-2.62 -7.8,-2.43 -2.66,-1 -5.66,34.74 -10.74,66.02 -14.98,92.02 25.88,0 63.41,-3.8 64.4,0.59 7.06,31.54 28.59,40.86 51.8,49.7 -1.88,6.53 -2.93,13.45 -2.95,20.7 -0.11,35.75 23.59,64.38 56.74,71.48 -0.31,0.35 -0.52,0.79 -0.85,1.11 -8.93,8.95 -31.57,4.24 -49.18,5.79 -14,4.67 -31.23,8.21 -46.32,15.96 -19.98,10.24 -38.26,23.78 -57.28,35.9 17.41,10.18 34.83,20.35 51.21,29.92 -8.08,9.54 -21.42,25.31 -34.76,41.06 19.26,-7.53 33.13,-27.54 46.43,-27.19 11.49,0.31 22.63,12.12 33.89,22.39 -1.77,6.29 -2.78,12.84 -2.78,19.57 0.09,40.57 34.61,75.32 75.28,75.69 4.81,0.04 9.52,-0.44 14.11,-1.33 1.46,6.22 1.64,11.75 -0.63,16.03 -9.98,18.87 -10.05,36.56 -7.49,53.83 -1.88,-0.15 -3.76,-0.28 -5.68,-0.28 -41.67,0.13 -76.54,35.22 -76.41,76.87 0.13,41.69 35.2,76.56 76.87,76.43 25.68,-0.09 48.76,-13.45 62.68,-33.46 12.51,3.21 26.66,2.45 41.64,-2.8 -3.71,-69.18 -7.38,-137.53 -11.05,-205.86 7.71,11.35 16.31,22.17 25.18,32.8 5.46,27.69 15.31,48.5 52.48,39.68 25.85,-6.16 51.49,-15.2 77.65,-17.45 2.86,27.43 1.11,55.2 1.9,83.05z"/>
  <path class="fil0" d="M2920.31 9647.05c11.77,6.02 15.35,28.07 22.58,42.94l-13.89 6.33c-22.67,-19.55 -45.31,-39.1 -67.98,-58.66 20.26,2.14 42.36,0.72 59.29,9.38zm1949.76 41.19c-5.94,16.33 -21.22,29.26 -32.76,43.55 -7.67,-10.94 -15.35,-21.87 -28.5,-40.59 14.76,-13.59 26.07,-24 37.39,-34.41 8.56,10.7 26.29,24.73 23.87,31.44zm-939.35 98.92c-79.99,48.85 -161.14,15.73 -251.24,-7.12 34.5,-51.47 71.56,-87.26 131.29,-92.41 7.84,-0.67 15.96,-4.83 22.8,-9.17 37.21,-23.54 51.76,-18.62 54.57,30.13 1.48,26.12 26.73,50.87 42.58,78.56zm618.03 35.33c-31.47,-2.23 -62.91,-4.46 -94.36,-6.69 33.17,-19.57 65.21,-47.87 94.36,6.69zm-1098.83 -43.91c16.57,-16.14 32.28,-33.33 50.03,-48.02 10.05,-8.3 24.44,-11.12 35.22,-18.76 57.67,-40.88 57.5,-41.14 116.35,24.44 -67.81,19.11 -130,36.64 -192.19,54.17 -3.15,-3.94 -6.27,-7.89 -9.41,-11.83zm-185.36 -63.92c32.58,-2.13 57.3,-3.76 82.02,-5.37 -3.08,12.68 -2.07,31.87 -10,36.82 -25.31,15.84 -49.77,13.36 -72.02,-31.45zm-825.14 1.31c-27.82,-2.16 -55.01,-3.07 -81.69,-7.23 -6.38,-1 -15.64,-12.97 -15.37,-19.57 0.31,-7.84 7.78,-18.84 15.09,-22.33 24.28,-11.6 72.02,16.94 81.98,49.13zm-340.8 60.58c-3.32,3.59 -6.61,7.18 -9.93,10.76 -122.8,-41.38 -132.91,-50.59 -106.05,-112.21 42.02,36.75 79.01,69.1 115.98,101.45zm-342.57 -35.18c15.92,57.03 52.37,67.91 92.96,23.43 31.05,-34.02 70.23,-35.13 93.31,-12.45 26.8,26.32 63.63,55.61 55.93,106.5 -2.62,17.41 12.23,37.47 19.09,56.32 14,-13.55 27.91,-27.18 42.08,-40.56 2.31,-2.2 5.66,-3.32 11.14,-6.42 9.08,2.89 19.87,8.54 31.07,9.5 61.21,5.26 130.28,-2.59 154.06,-55.51 23.78,-52.9 44.11,-54.15 86.13,-2.22 -14.54,6.22 -30.44,8.83 -39.85,18.06 -13.8,13.53 -22.97,31.79 -34.13,48.03 17.28,9.26 37.08,29.15 51.3,25.74 38.43,-9.22 84.62,-2.07 110.67,-48.14 8.06,-14.24 40.2,-25.21 58.13,-21.64 63.4,12.64 96.63,-21.79 126.11,-67.94 6.9,-10.81 16.46,-19.93 24.22,-29.15 47.63,21.83 48.48,27.22 20.33,114 -22.8,2.25 -47.17,1.05 -68.72,8.3 -10.85,3.65 -24.68,23.99 -22.93,34.37 3.82,22.56 11.31,50.5 27.52,63.32 17.01,13.46 47.28,18.93 69.35,14.85 22.76,-4.2 39.63,-22.8 22.45,-53.74 -21.2,-38.19 4.98,-52.05 37.37,-55.92 38.15,-4.56 52.74,-28.26 52.24,-62.12 -0.94,-63.41 -32.37,-95.12 -96.39,-105.04 -12.54,-1.94 -23.69,-12.71 -35.48,-19.41 16.53,-19.83 31.62,-41.35 51.01,-57.78 3.19,-2.7 26.64,15.63 38.46,26.67 18.69,17.48 34.11,38.54 53.3,55.36 38.28,33.54 78.18,65.24 114.96,95.65 -36.73,40.07 -70.95,77.42 -105.17,114.76 3.08,5.35 6.16,10.71 9.24,16.06 50.79,-13.81 107.96,-84.7 144.85,12.83 -25.86,36.26 2.46,67.7 31.09,75.97 69.6,20.1 35.94,-49.83 55.43,-81.18 7.51,10.82 12.86,16.69 16.11,23.56 16.38,34.67 43.31,20.28 64.62,10.56 11.81,-5.38 17.73,-23.64 26.31,-36.09 -17.14,-11.03 -33.28,-24.42 -51.78,-32.2 -11.29,-4.75 -26.23,-0.88 -51.5,-0.88 52.87,-25.22 93.25,-44.05 133.26,-63.69 56.36,-27.68 105.61,-71.56 179.33,-40.02 43.28,18.5 64.16,45.6 39.72,96.12 -30.16,-29.63 -64.01,-51.58 -94.17,-4.84 -7.21,11.18 -2.71,41.83 7.43,50.27 54.79,45.59 75.3,42.85 112.83,2.08 29.52,7.17 54.42,20.59 76.48,16.92 36.25,-6.03 57.11,-33.98 57.32,-72.71 0.13,-25.48 5.33,-35.62 35.92,-29.18 30.49,6.41 63.44,1.81 95.26,0.65 18,-0.66 38.54,-10.9 53.33,-5.07 49.94,19.69 98.07,18.85 147.97,2.28 9.35,-3.1 21.44,2.11 46.38,5.27 -20.05,25.15 -30.48,45.81 -47.19,57.65 -34.55,24.47 -39.5,43.16 -4.19,66.8 16.64,11.15 43.63,5.71 64.95,11.43 19.17,5.14 36.97,15.27 55.38,23.2 -8.8,16.37 -15.33,34.63 -26.95,48.66 -15.46,18.67 -34.87,34.06 -52.61,50.87 3.17,4.07 6.33,8.15 9.5,12.22 10.72,-2.33 21.8,-3.64 32.1,-7.17 60.16,-20.57 121.68,-38.12 179.79,-63.46 72.55,-31.64 159.46,-38.39 208.75,-113.54 3.28,-5 11.46,-10.43 16.8,-9.89 69.51,6.97 40.77,-33.73 28.82,-63.24 71.5,-36 237.59,-4.61 282.63,55.45 37.67,-41.84 125.74,-19.95 123.69,-97.43 27.34,-14.46 67.22,-29.98 65.86,-35.72 -13.1,-55.24 34.07,-65.54 59.96,-92.46 10.2,-10.58 12.36,-29.93 15.66,-45.81 2.58,-12.36 2.97,-25.31 4.5,-37.88l-2091.68 0c-0.09,3.48 -0.09,7.04 0.11,10.74 -5.83,-3.55 -11.6,-7.16 -17.41,-10.74l-1124.51 0c8.93,9.31 17.38,18.79 21.53,29.89 10.22,27.46 10.61,58.41 18.56,86.94z"/>
  <path class="fil0" d="M932.41 7596.68c4.63,-0.89 6.64,-15.35 9.85,-23.54 -21.09,-1.24 -42.23,-3.65 -63.26,-3.01 -6.66,0.22 -13.06,8.54 -19.59,13.15 0.35,7.14 0.7,14.28 1.05,21.42 24.04,-2.31 48.35,-3.41 71.95,-8.02z"/>
  <path class="fil0" d="M1137.42 7218.56c-10.83,-8.65 -20.86,-22.25 -32.74,-24.13 -7.62,-1.2 -17.97,14.91 -33.98,29.55 18.04,8.95 29.61,19.67 38.89,17.97 10.37,-1.9 18.65,-15.09 27.82,-23.39z"/>
  <path class="fil0" d="M672.65 6464.81c-4.63,9.24 -7.49,29.09 -4.09,30.9 14.35,7.69 31.19,12.6 47.45,13.85 6.79,0.52 20.99,-11.03 20.7,-16.51 -2.16,-41.4 29.89,-60.91 54.79,-80.91 25.24,-20.31 22.8,-36.62 9.67,-59.55 1.77,0.15 3.58,0.28 5.39,0.28 36.07,0.06 66.78,-30.81 66.45,-66.85 -0.33,-36.16 -31.47,-66.54 -67.48,-65.82 -36.16,0.72 -66.3,32.21 -65.19,68.13 0.85,27.97 20.05,52.15 45.51,60.95 -13.41,37.95 -31.14,62.3 -67.37,34.02 -16.84,29.5 -32.54,54.9 -45.86,81.5z"/>
  <path class="fil0" d="M927.87 7252.15c-20.7,-3.76 -41.38,-7.51 -62.09,-11.27 -0.7,14.65 -7.91,35.07 -0.94,42.87 23.69,26.53 43.5,10.26 63.02,-31.6z"/>
  <path class="fil0" d="M1130.24 8183.2c-6.09,-5.39 -30.51,-2.6 -33.85,3.41 -21.62,39.02 2.2,115.87 44.96,147.58 25.59,-41.12 19.83,-123.58 -11.11,-150.98z"/>
  <path class="fil0" d="M917.43 5456.72c-13.67,15.98 -25.66,27.38 -34.15,40.96 -4.61,7.36 -3.3,18.43 -4.67,27.82 12.06,1.7 27.69,9.06 35.53,4.11 26.77,-16.99 26.31,-40.75 3.3,-72.89z"/>
  <path class="fil0" d="M690.38 5704.51c-21.67,-4.63 -43.31,-9.24 -64.97,-13.87 -0.09,9.22 -4.15,22.14 0.39,27.01 20,21.38 41.97,15.79 62.83,2.6 0.59,-5.26 1.18,-10.5 1.75,-15.74z"/>
  <path class="fil0" d="M722.42 5429.92c-26.19,13.56 -38.46,33.06 -21.69,53.89 8.45,10.53 31.95,8.98 48.65,12.89 2.03,-4.46 4.06,-8.93 6.09,-13.39 -10.9,-17.63 -21.82,-35.22 -33.06,-53.39z"/>
  <path class="fil0" d="M1137.38 5013.17c-1.97,-36.75 -35.33,-53.63 -68.81,-48.11 -1.01,0.17 -1.99,0.52 -2.99,0.76 -6.2,-14.61 -20.29,-24.44 -37.69,-24.61 -23.8,-0.26 -41.91,17.43 -42.15,41.16 -0.26,23.83 17.43,41.93 41.16,42.17 1.49,0.02 2.86,-0.24 4.28,-0.35 16.68,14.46 34.65,30.07 56.49,49.03 23,-26.47 50.56,-44.03 49.7,-60.06z"/>
  <path class="fil0" d="M3187.04 9985.96c-10.87,13.37 -24.61,26.15 -22.89,28.79 8.19,12.49 19.37,24.54 32.3,31.44 3.76,2 16.88,-13.56 25.72,-21.07 -10.39,-11.58 -20.77,-23.16 -35.14,-39.17z"/>
  <path class="fil0" d="M1691.77 9737.76c11.49,-5.99 20.16,-31.96 17.65,-46.86 -3.86,-22.94 -16.49,-44.41 -26.25,-66.35l-54.53 0c-10.5,0 -20.9,-0.55 -31.17,-1.52 13.35,31.73 26.43,63.34 37.85,95.5 11.99,33.73 37.39,29.17 56.45,19.22z"/>
  <path class="fil0" d="M2884.54 10087.8c2.88,6.74 5.77,13.48 8.65,20.22 22.06,-7.46 44.13,-14.93 66.19,-22.39 -8.67,-12.81 -14.87,-33.19 -26.51,-37.01 -33.63,-11.04 -41.93,14.82 -48.33,39.18z"/>
  <path class="fil0" d="M2389.42 9930.4c-29.15,6.37 -54.83,11.98 -81.58,17.82 19.94,44.87 19.94,44.87 81.58,-17.82z"/>
  <path class="fil0" d="M1294.28 8476.76c-0.41,21.09 -0.26,46.14 4.37,71.17l0 -93.51c-2.62,7.23 -4.24,14.67 -4.37,22.34z"/>
  <path class="fil0" d="M2865.46 9999.48c2.06,-1.85 -6.2,-22.98 -13.49,-26.01 -29.11,-12.04 -59.44,-21.54 -90,-29.44 -7.71,-2 -23.58,3.39 -25.55,8.96 -3.1,8.83 -1.42,25.52 4.85,30.37 22.91,17.76 48.54,32 75.43,49.01 20.5,-13.14 36.05,-21.45 48.76,-32.89z"/>
  <path class="fil0" d="M2626.31 10295.64c15.11,-6.98 30.79,-16.32 40.51,-29.18 3.15,-4.15 -11.33,-21.6 -24.39,-44.73 -16.81,24.81 -28.19,39.08 -35.79,55.14 -1.33,2.84 16.4,20.29 19.68,18.77z"/>
  <path class="fil0" d="M3764.8 10075.45c-2.44,-4.52 -4.89,-9.03 -7.33,-13.55 -21.19,0 -44.24,-5.14 -63,1.61 -15.2,5.48 -25.26,25.24 -37.6,38.67 14.32,5.41 31.69,18.72 42.32,14.61 23.67,-9.15 43.96,-27.02 65.62,-41.34z"/>
  <path class="fil0" d="M2535.67 9998.54c-8.74,-37.02 -45.38,-59.83 -84.97,-51.55 -39.55,8.28 -50.3,32.43 -41.47,71.25 2.27,10.06 -9.8,32.14 -18.98,34.52 -43.11,11.21 -87.5,17.48 -131.44,25.51 0.13,5.88 0.26,11.76 0.39,17.63 15.59,3.03 31.07,7.18 46.82,8.86 37.21,3.96 75.21,3.39 111.68,10.74 69.75,14.06 134.22,-48.13 117.97,-116.96z"/>
  <path class="fil0" d="M1147.09 9102.94c-11.69,-1.44 -33.02,15.14 -36.82,27.47 -3.47,11.19 7.88,37.21 17.95,40.46 35.4,11.44 73.33,14.73 109.78,23.34 20.44,4.83 40.55,11.05 60.64,17.31l0 -82.77c-43.78,-52.61 -101.19,-19.59 -151.55,-25.81z"/>
  <path class="fil0" d="M1053.96 9094.24c32.84,-6.48 55.44,-27.3 45.7,-58.97 -4.74,-15.44 -35.14,-23 -53.92,-34.12 -2.12,3.7 -4.24,7.41 -6.35,11.12 -5.02,0 -10.7,-1.55 -14.96,0.27 -18.5,7.93 -47.17,12.84 -52.24,26.34 -7.08,18.8 -0.26,46.14 9.13,65.74 2.71,5.65 34.79,-2.45 53.31,-4.89 6.57,-0.87 12.78,-4.19 19.33,-5.48z"/>
  <path class="fil0" d="M1298.65 8919.64l0 -214.48c-12.29,-0.15 -24.98,-0.48 -38.59,-0.48 -0.85,-4.35 -1.53,-8.78 -2.12,-13.28 0.87,-2.75 1.09,-6.18 1.48,-9.11 -0.39,-4.1 -1.77,-7.19 -3.71,-9.65 -3.82,-35.33 -8.34,-71.89 -46.56,-97.33 -23.85,56.36 -3.06,98.81 18.21,143.39 12.16,25.53 28.58,67.83 17.27,82.13 -30.55,38.59 -29.13,78.65 -27.47,120.65 0.5,12.7 8.37,33.53 16.62,35.6 13.34,3.34 32.34,-2.18 44.24,-10.6 8.43,-5.96 14.13,-15.82 20.61,-26.84z"/>
  <path class="fil0" d="M893.41 8692.84c-5.96,-1.9 -16.86,11.56 -25.51,18.02 11.18,10.31 21.14,22.95 34.13,29.77 5.18,2.69 17.12,-7.56 35.7,-16.69 -20.09,-14.89 -30.99,-26.82 -44.33,-31.1z"/>
  <path class="fil0" d="M1230.19 9675.63c-8.93,-9.73 -31.43,-7.01 -47.85,-9.87 3.39,14.31 2.73,31.96 11.12,42.16 12.31,14.95 31.09,24.56 47.12,36.45 5.07,-3.65 10.13,-7.3 15.2,-10.96 -8.06,-19.69 -12.1,-43.07 -25.59,-57.78z"/>
  <path class="fil0" d="M1341.89 9555.52c-9.7,-35.01 -17.67,-63.83 -28.48,-102.93 -11.18,15 -18.71,29.09 -29.9,39.07 -14.08,12.57 -30.72,30.05 -47.02,30.87 -46.51,2.35 -64.7,23.49 -39.04,62.19 16.38,24.69 46.6,40.19 78.66,66.38 6.42,-44.28 10.35,-71.38 14.61,-100.74 20.79,2.1 36.56,3.69 51.17,5.17z"/>
  <path class="fil0" d="M1202.61 9374.59c-1.42,-7.59 -11.12,-17.91 -18.26,-19.02 -7.86,-1.22 -21.73,4.52 -24.92,11.13 -8.91,18.38 -24.48,45.15 -17.54,56.93 11.16,19.01 38.24,28.67 58.59,42.28l11.31 -13.56c-2.82,-25.97 -4.41,-52.17 -9.19,-77.77z"/>
  <path class="fil0" d="M1240.69 9368.57c9.74,6.41 25.07,5.84 37.87,5.83 9.92,-0 19.85,-0.29 29.77,-0.62 -6.27,-25.39 -9.68,-51.91 -9.68,-79.22l0 -28.74c-6.83,9.72 -14.02,19.1 -22.1,27.64 -25.09,26.52 -36.12,11.02 -40.2,-18.28 -2.49,-17.89 -8.93,-35.23 -13.6,-52.82 -24.55,31.67 -5.13,131.01 17.95,146.22z"/>
  <path class="fil0" d="M6556.73 8909.89c-17.34,21.42 -30.16,33.18 -36.38,47.75 -1.59,3.72 20.55,25.25 26.77,23.22 18.48,-6.03 34.44,-19.72 51.39,-30.42 -11.07,-10.76 -22.17,-21.52 -41.78,-40.55z"/>
  <path class="fil0" d="M1780.54 1939.25c-11.07,22.43 -26.25,39.98 -26.6,57.83 -0.28,15.5 12.93,36.06 26.43,45.33 9.22,6.35 37.78,2.01 42.26,-6.09 6.83,-12.38 4.83,-34.17 -1.64,-48.22 -7.8,-16.94 -24.17,-29.96 -40.44,-48.85z"/>
  <path class="fil0" d="M2553.48 1324.06c-18.93,-9.09 -37.23,-22.58 -57.06,-25.35 -9.7,-1.35 -22.21,17.23 -33.44,26.77 12.84,12.45 24.2,32.28 38.96,35.25 14.94,3.01 33.24,-10.66 50.05,-17.01l1.48 -19.65z"/>
  <path class="fil0" d="M2022.87 2080.28c17.34,-21.42 30.16,-33.17 36.38,-47.76 1.59,-3.71 -20.55,-25.24 -26.78,-23.21 -18.47,6.03 -34.44,19.72 -51.38,30.42 11.07,10.76 22.17,21.51 41.78,40.55z"/>
  <path class="fil0" d="M2646.01 1353.94c0.65,-11.51 -8.69,-23.56 -13.43,-35.38l-14.61 2.31c-2.34,14.74 -4.67,29.55 -7.07,44.74l35.4 0c-0.37,-3.58 -0.55,-7.38 -0.28,-11.68z"/>
  <path class="fil0" d="M1521.44 1718.34l0 71.8c-20.64,-11.07 -33.15,-24.55 -40.8,-38.96l0 122.01c22.19,8.95 45.62,0.68 67,-25.29 8.69,-10.57 25.24,-16.51 39.33,-20.44 31.41,-8.76 63.99,-13.47 95.06,-23.13 7.62,-2.36 11.33,-17.36 16.83,-26.53 -9.74,-4.83 -21.62,-15.94 -28.89,-13.48 -45.25,15.35 -77.59,-6.53 -110.46,-31.99 -9.17,-7.1 -22.67,-8.58 -38.08,-14z"/>
  <path class="fil0" d="M2775.81 1267.57c-9.54,11.69 -23.39,22.04 -27.52,35.38 -4.72,15.29 1.22,33.52 -1.13,49.96 -0.59,4.13 -1.14,8.43 -1.79,12.71l86.89 0c-9.32,-26.69 -17.19,-48.85 -26.64,-70.25 -5.04,-11.42 -19.59,-18.65 -29.81,-27.8z"/>
  <path class="fil0" d="M2118.28 1721.66c18.1,-23.72 32.82,-35.73 36.29,-50.4 1.99,-8.34 -14.43,-21.05 -22.58,-31.8 -11.7,11.46 -27.63,21.12 -33.54,35.05 -3.47,8.15 9.04,23.06 19.83,47.15z"/>
  <path class="fil0" d="M1172.56 4908.15c26.1,-22.82 52.52,-49.99 13.3,-88.27 -18.54,-18.11 -28.3,-45.2 -46.65,-75.98 27.1,6.16 49.16,17.67 65.69,32.37 3.52,9.13 10.24,16.7 18.72,21.44 17.93,27.14 21.2,60.07 6.77,90.84 -8.1,17.23 -12.38,33.54 -13.26,48.7 -15.31,8.37 -25.55,24.09 -26.25,43.22 -1.16,30.64 21.25,54.29 51.6,54.5 12.51,0.09 23.76,-3.82 32.65,-10.59 2.33,1.11 4.65,2.23 7.14,3.26 5.24,2.14 10.83,4 16.38,5.94l0 -454.75c-6.79,6.62 -15,13.15 -24.37,19.81 -2.69,-17.3 -5.65,-32.1 -7.82,-45.94 0.44,-2.12 0.74,-4.32 0.68,-6.7 -0.11,-4.46 -1.2,-8.19 -2.94,-11.4 -0.31,-3.56 -0.57,-7.1 -0.68,-10.64 -0.31,-10.94 8.52,-22.12 13.19,-33.19 6.72,3.5 15.09,5.96 21.94,9.37l0 -125c-0.78,-0.07 -1.5,-0.15 -2.31,-0.2 0.61,-5.44 1.22,-10.9 1.83,-16.35 0.15,-0.15 0.33,-0.29 0.48,-0.44l0 -350.72c-7.23,-2.27 -15,-6.03 -23.65,-12.16 -27.43,-19.5 -79.64,-23.67 -113.62,19.78 -12.71,16.27 -39.57,23.06 -61.28,30.33 -23.56,7.88 -39.46,20.96 -22.56,43.11 26.25,34.39 15.59,57.26 -13.84,80.01 -17.76,13.74 -34.33,28.98 -51.19,43.31 38.37,75.99 28.8,90.23 -57.91,89.44 -9.76,-0.09 -19.81,2.3 -29.26,5.05 -41.25,12.05 -82.52,24.04 -123.36,37.39 -20.16,6.57 -42.11,12.8 -57.65,25.83 -6.31,5.31 -3.34,34.46 5.11,42.26 34.28,31.71 72.33,59.33 105.59,85.76 19.5,-15.2 44.87,-41.38 75.6,-57.09 33.28,-17.01 70.84,-23.98 72.19,-72.54 0.15,-6.2 17.41,-16.53 26.82,-16.62 9.59,-0.07 23.82,8.08 27.54,16.42 3.21,7.19 -4.45,20.22 -9.19,29.72 -9.48,19.02 -24.09,36.43 -29.31,56.39 -4.48,17.12 -5.98,44.85 3.93,53.81 19.8,17.87 45.57,16.64 65.64,-9.3 5.87,-7.62 24.39,-14.04 32.02,-10.39 51.65,24.81 62.98,81.43 27.17,124.19 -1.9,2.27 -1.7,6.29 -2.49,9.56 6.29,13.19 12.56,26.33 23.1,48.41 -39.72,15.5 -75.58,30.81 -112.33,43.46 -16.05,5.53 -21.99,13.02 -22.32,22.52 -1.79,-0.39 -3.63,-0.7 -5.61,-0.87 -17.03,1.14 -27.04,9.72 -27.01,27.19 0.04,16.05 8.91,25.66 24.96,26.38 9.76,0.46 17.3,-2.36 22.14,-8 3.71,11.36 6.05,21.05 7.3,24.87 -33.59,15.13 -69.18,21.01 -72.46,34.63 -8.37,34.9 22.23,39.46 51.38,44 15.64,2.43 29.85,18.37 43.2,29.96 34.15,29.68 67.78,17.95 95.28,-6.09z"/>
  <path class="fil0" d="M2234.98 1757.52c-6.55,-6.05 -13.1,-12.08 -19.65,-18.13 -14.24,15.26 -29.13,30.05 -41.58,46.67 -1.18,1.57 13.1,14.72 20.22,22.47 13.67,-16.99 27.34,-34 41.01,-51.01z"/>
  <path class="fil0" d="M1281.59 2057.17c-6.66,-2.53 -18.82,9.48 -42.74,22.76 26.01,16.51 42.93,30.68 59.79,38.35l0 -53.59c-5.59,-2.78 -11.24,-5.33 -17.06,-7.52z"/>
  <path class="fil0" d="M1298.65 9079.3l0 -24.24c-2.33,7.49 -3.84,15.08 -3.91,22.87 1.22,0.5 2.57,0.93 3.91,1.37z"/>
  <path class="fil0" d="M6461.32 9268.51c-18.08,23.71 -32.8,35.73 -36.3,50.41 -1.98,8.34 14.44,21.04 22.58,31.78 11.7,-11.45 27.62,-21.12 33.54,-35.04 3.47,-8.14 -9.04,-23.07 -19.83,-47.15z"/>
  <path class="fil0" d="M2908.37 1335.09c-8.61,9.17 -16.4,19.22 -24.59,30.53l123.06 0c-19.35,-13.52 -43.89,-25.92 -62.45,-38.22 -7.47,-4.98 -28.81,0 -36.01,7.69z"/>
  <path class="fil0" d="M6799.06 9050.92c11.09,-22.43 26.25,-39.99 26.6,-57.83 0.28,-15.5 -12.93,-36.05 -26.43,-45.33 -9.22,-6.36 -37.78,-2 -42.26,6.09 -6.83,12.39 -4.83,34.19 1.64,48.22 7.8,16.95 24.17,29.96 40.44,48.85z"/>
  <path class="fil0" d="M6344.62 9232.65c6.55,6.04 13.1,12.08 19.68,18.12 14.22,-15.28 29.11,-30.04 41.56,-46.66 1.18,-1.57 -13.1,-14.72 -20.2,-22.49l-41.04 51.02z"/>
  <path class="fil0" d="M1507.55 1610.77c1.11,0.13 1.94,0.07 2.33,-0.3 20.59,-20.09 60.1,-22.78 69.19,-54.14 -29.11,10.4 -54.05,29.57 -71.52,54.44z"/>
  <path class="fil0" d="M1298.65 5180.3c-7.23,6.72 -7.12,15.48 0,25.9l0 -25.9z"/>
  <path class="fil0" d="M1218.63 3905.45c0.33,20.79 49.99,51.14 80.01,56.8l0 -95.71c-19.43,3.19 -38.87,6.46 -57.98,11.07 -9.46,2.29 -22.21,18.32 -22.04,27.84z"/>
  <path class="fil0" d="M1380.56 1305.09c-7.57,-12.19 -20.37,-22.78 -33.56,-28.74 -3.41,-1.55 -23.35,17.8 -21.84,24.44 2.71,12.07 15.79,21.84 29.24,38.35 12.54,-15.85 28.35,-30.55 26.16,-34.04z"/>
  <path class="fil0" d="M4965.83 9760.87c5.85,34.35 -6.2,50.18 -36.93,49.92 -41.25,-0.35 -46.45,21.7 -35.83,52.14 10.59,30.33 -1.09,40.39 -29.02,42.49 -9.98,0.75 -21.9,0.84 -29.22,6.27 -14.35,10.65 -26.07,24.82 -38.89,37.54 16.4,8.8 37.98,29.06 48.28,24.39 41.23,-18.65 111.48,3.72 114.78,-74.09 0.22,-5.22 7.01,-12.02 12.43,-14.88 47.65,-25.08 82.48,-85.43 153.04,-48.05 -22.17,-62.61 52.19,-149.4 128.25,-142.9 -13.71,18.82 -36.69,28.64 -52.26,45.36 -32.17,34.52 -15.22,74.51 1.31,108.35 7.06,14.44 33.52,25.62 52.04,27.05 48.07,3.71 96.83,3.72 144.89,-0.05 19.83,-1.56 41.06,-13.41 57.3,-26.13 26.44,-20.7 49.31,-45.95 81.37,-76.67 6.66,32.29 9.22,52.05 14.94,70.84 9.94,32.66 50.91,50.73 82.07,36.26 34.09,-15.83 29.68,-36.74 11.42,-65.05 -8.98,-13.94 -4.32,-36.67 -5.83,-55.42 -3.04,2.75 -6.07,5.5 -9.11,8.25 -22.56,-24.46 -40.77,-58.89 -68.68,-70.99 -38.41,-16.66 -60.97,-48.09 -91.59,-70.95l-61.39 0c-2.36,2.02 -3.97,4.08 -4,5.78 -0.13,9.76 5.39,22.67 12.97,28.9 26.81,22.04 56.12,41.07 82.94,63.11 5.15,4.24 3.41,16.89 3.1,14.95 -35.75,0 -68.81,1.53 -101.63,-0.54 -21.62,-1.37 -46.93,-2.22 -63.31,-13.69 -18.52,-12.94 -32.84,-36.06 -40.81,-57.75 -3.17,-8.65 13.93,-26.88 24.61,-38.08 0.85,-0.9 1.72,-1.78 2.6,-2.68l-315.97 0c-0.02,9.83 -1.46,17.68 -5.74,20.35 -48,29.82 -45.44,73.04 -38.13,115.97z"/>
  <path class="fil0" d="M1166.51 3163.65l0 -72.28c3.65,-3.26 7.27,-6.51 10.92,-9.76 12.91,12.12 37.54,25.77 36.21,36.06 -2.56,19.63 -19.89,37.34 -31.1,55.84 -5.33,-3.28 -10.68,-6.55 -16.03,-9.85zm-134.83 -269.46c6.29,-31.27 15.35,-64.16 32.67,-90.37 13.32,-20.13 40.4,-31.16 71.78,-53.76 10.88,43.37 34.66,86.61 25.96,121.85 -5.61,22.73 -57.8,36.82 -91.37,48.02 -9.74,3.25 -40.31,-19.44 -39.05,-25.75zm196.76 -459.84c45.94,21.31 48.19,45.34 31.6,70.89 -6.07,9.33 -23.52,11.27 -35.79,16.57 1.26,-26.38 2.53,-52.74 4.19,-87.46zm-170.77 1372.35c28.06,-36.36 78.64,-49.61 97.09,-95.6 0.65,-1.62 6.59,-0.57 9.54,-1.94 17.67,-8.28 40.81,-12.47 51.67,-26.27 22.84,-29.04 51.5,-33.91 82.68,-36.31l0 -108.99c-45.64,-13.8 -99.43,2.81 -144.87,-13.34 -20.72,-7.38 -43.26,-9.67 -70.21,-15.42 22.84,-33.08 37.87,-54.86 44.57,-64.57 40.8,9.04 75.95,15.79 110.48,24.89 18.56,4.89 37.61,11.38 53.63,21.54 2.21,1.39 4.33,2.94 6.4,4.56l0 -1288.44c-11.24,-6.66 -22.03,-19.07 -33.32,-37.13 -4.04,-6.44 -14.67,-8.78 -23.69,-13.8 -8.63,61.65 -9.7,62.72 -56.12,60.49 -0.83,-3.12 -3.28,-7.16 -2.14,-9.26 12.89,-23.78 20.83,-47.54 -6.7,-66.26 -39.96,-27.14 -112.53,-9.08 -155.57,34.5 -23.3,23.56 -19.5,43.89 -0.76,66.02 6.48,7.64 13.58,14.76 20.29,22.25 10,11.16 21.66,21.36 29.3,33.98 6.97,11.57 9.54,25.79 14.04,38.85 -15.77,1.46 -32.06,6.11 -47.24,3.73 -35.46,-5.55 -70.45,-14.3 -105.54,-22.17 -9.11,-2.03 -17.86,-5.57 -26.8,-8.41 -3.15,-4.7 -6.29,-9.37 -9.43,-14.04 8.06,-2.75 18.76,-3.17 23.63,-8.71 12.34,-14.04 22.06,-30.38 32.82,-45.8 -17.65,-7.51 -35.72,-21.69 -52.83,-20.59 -15.94,1.02 -36.9,14.81 -45.07,29.04 -26.36,45.93 7.91,75.38 38.72,99.17 13.5,10.39 38.61,6.18 58.53,7.58 12.43,0.87 24.98,-0.13 37.5,-0.31 -3.21,13.21 -6.2,26.49 -9.65,39.63 -4.8,18.17 -17.38,38.06 -13.43,53.94 8.54,34.15 22.82,67.7 39.98,98.6 11.24,20.24 31.05,36.01 48.11,52.65 12.34,12.03 26.49,22.19 50.43,41.91 -69.36,0 -124.5,-11.83 -170.88,3.23 -49.81,16.16 -77.83,13.91 -94.97,-36.2 -59.22,40.48 -58.74,40.4 -46.23,98.18 1.92,8.84 -3.56,19.09 -4.5,28.78 -1.33,13.65 -7.01,35.42 -1.16,39.35 10.94,7.36 29.81,8.41 43.63,5 46.58,-11.49 89.05,24.98 83.83,72.57 -5.55,50.57 -10.96,102.05 49.37,128.34 5.07,2.23 6.42,12.95 15.57,33.06 -37.74,-15.57 -63.39,-26.16 -90.67,-37.41 -2.88,8.32 -6.64,19.26 -10.46,30.2 -17.73,50.86 -16.64,50.9 36.8,45.22 41.12,-4.39 75.36,4.8 92.64,50.71 16.35,43.5 45.72,71.69 98.88,70.54 52.43,-1.16 87.42,37.39 99.6,79.88 7.93,27.67 -11.42,67.19 -28.41,95.47 -5.11,8.47 -43.41,-2.94 -66.5,-5.3 -21.6,-2.23 -51.01,-14.55 -63.35,-4.94 -39.05,30.42 -71.72,69.03 -108.51,106.13 4.5,2.4 12.99,10.79 18.08,9.06 64.64,-21.81 75.87,22.87 89.49,68.11 3.06,10.11 15.77,20.05 26.4,24.72 43.87,19.28 88.69,36.54 146.05,59.75 -64.33,46.8 -82.81,132.12 -177.13,118.39 -17.89,-2.6 -42.61,12.16 -57.11,26.2 -10.18,9.87 -16.09,36.07 -10.07,47.93 8.85,17.36 28.35,33.35 46.84,39.79 7.69,2.67 26.4,-19.35 36.73,-32.74z"/>
  <path class="fil0" d="M1184.89 3896.78c-5,-15.11 -20.39,-26.8 -31.47,-39.9 -9.56,8.6 -19.13,17.23 -35.57,32.01 19.52,17.15 33.02,29 46.49,40.84 7.44,-11.18 23.15,-25.11 20.55,-32.95z"/>
  <path class="fil0" d="M5803.79 9722.59c9.54,-11.67 23.39,-22.02 27.52,-35.37 4.72,-15.29 -1.22,-33.53 1.13,-49.96 0.59,-4.13 1.14,-8.43 1.79,-12.71l-86.89 0c9.33,26.69 17.19,48.85 26.64,70.24 5.05,11.43 19.59,18.65 29.81,27.8z"/>
  <path class="fil0" d="M777.12 4652.08c-10.76,-4.63 -25.48,-0.02 -38.43,0.42 6.48,15.31 9.5,40.09 20.16,43.98 21.94,8.04 48,4.93 72.35,6.4 1.44,-5.26 2.91,-10.55 4.37,-15.83 -19.35,-11.94 -37.78,-26.07 -58.44,-34.96z"/>
  <path class="fil0" d="M997 4748.82c9.56,-23.34 16.14,-48.74 18.3,-73.9 0.83,-9.78 -11.69,-21.69 -20.2,-30.64 -2.53,-2.67 -13.56,-0.57 -18.32,2.75 -25.33,17.82 -49.92,36.71 -81.74,60.4 24.24,15.72 42.43,30.35 63.02,39.77 11.51,5.24 37.12,6 38.94,1.61z"/>
  <path class="fil0" d="M1102.89 3950.79c-17.58,-8.1 -34.57,-20.96 -52.87,-23.24 -31.25,-3.86 -63.61,-3.54 -94.93,0.07 -12.82,1.48 -24.13,16.03 -36.14,24.63 13.84,8.43 26.77,21.25 41.73,24.39 29.37,6.16 59.85,8.98 89.91,9.15 16.94,0.11 33.91,-7.78 50.88,-12.06 0.46,-7.65 0.94,-15.29 1.42,-22.95z"/>
  <path class="fil0" d="M7199.04 9685.08c7.58,12.19 20.37,22.79 33.57,28.74 3.41,1.55 23.34,-17.8 21.86,-24.44 -2.73,-12.09 -15.81,-21.85 -29.26,-38.35 -12.53,15.85 -28.34,30.55 -26.16,34.05z"/>
  <path class="fil0" d="M927.3 3356.13c0.46,-7.91 0.74,-19.61 5.59,-22.87 51.19,-34.24 9.78,-50.73 -14.67,-62.15 -32.3,-15.07 -46.49,-35.51 -44.53,-70.41 0.76,-13.8 -3.65,-27.91 -5.52,-40.66 -38.83,8.63 -71.91,15.98 -103.31,22.95 24.55,32.04 62.57,60.58 67.37,93.93 4.67,32.28 -24.79,69.51 -37.85,101.17 -27.47,1.31 -47.67,2.27 -71.37,3.41 25.33,48.61 80.95,77.44 121.79,68.64 57.04,-12.25 79.27,-37.85 82.5,-94.01z"/>
  <path class="fil0" d="M940.66 2540.86c-3.65,-2.01 -23.58,14.72 -22.6,16.99 6.4,14.7 16.51,27.76 30.49,49.14 14.15,-17.17 29.5,-32.02 27.8,-34.33 -9.37,-12.71 -21.86,-24.2 -35.69,-31.8z"/>
  <path class="fil0" d="M952.39 2412.5c-24.24,-13.8 -38.44,-27.32 -44.48,-24.33 -21.6,10.68 -40.46,26.95 -60.36,41.12 14.35,11.53 31.88,34.87 42.32,32.04 19.46,-5.29 34.81,-25.79 62.52,-48.83z"/>
  <path class="fil0" d="M909.26 3773.16c2.97,-5.4 -20.07,-35.73 -28.7,-34.64 -19.43,2.45 -37.3,17.41 -55.8,27.28 -0.33,6.33 -0.63,12.67 -0.96,19 14.5,9.39 31.14,28.48 42.96,25.85 16.73,-3.71 33.67,-21.38 42.5,-37.49z"/>
  <path class="fil0" d="M465.1 3171.73c-9.7,-3.45 -27.56,16.01 -41.71,25.02 23.61,16.14 47.23,32.26 73.5,50.21 18.34,-15.13 28.59,-23.59 38.81,-32.02 -23.3,-15.09 -45.16,-34.13 -70.6,-43.22z"/>
  <path class="fil0" d="M1159.74 1929.01c13.26,-19.83 38.41,-40.2 37.5,-59.37 -2.38,-50.29 -20.13,-99.76 -24.04,-150.16 -3.06,-39.7 -18.63,-49.33 -50.36,-33.15 -30.99,15.79 -44.81,-1.72 -55.22,-23.85 -7.67,-16.22 -9.48,-35.27 -13.52,-53.13 -10.02,-44.22 -55.62,-84.1 -84.05,-69.42 -35.2,18.17 -67.24,42.45 -106.77,68.07 15.13,10.22 29.33,17.58 40.75,27.97 20.9,19.07 46.3,36.8 58.55,60.84 15.81,30.99 20.55,67.63 29.92,101.41 -14.83,24.63 -34.48,53.2 -49.9,83.9 -23.63,47.04 29.04,56.8 44.59,84.88 3.25,5.9 6.11,12.69 11.05,16.81 36.05,30.09 72.59,59.62 120.87,99.01l0 -193.29c15.96,15.51 28.3,27.47 40.64,39.46z"/>
  <path class="fil0" d="M815.99 3501.02c-14.83,-8.02 -29.57,-22.45 -44.51,-22.65 -26.27,-0.35 -52.85,7.14 -78.83,13.21 -8.65,2.01 -22.41,9.76 -22.43,14.94 -0.04,10 5.39,24.15 13.28,29.15 13.26,8.39 30.18,10.96 40.31,14.28 24.83,-3.32 45.4,-1.33 60.49,-9.48 13.67,-7.41 21.36,-25.88 31.69,-39.46z"/>
  <path class="fil0" d="M1120.5 1585.02c-26.14,21.44 -24.94,43.78 -1.94,70.78 18.72,-12.99 35.81,-24.85 56.56,-39.24 12.25,16.66 23.43,30.88 33.5,45.81 11.88,17.63 18.93,41.1 34.85,52.94 62.17,46.31 62,81.32 -8.37,134.96 18.26,4.17 46.82,17.45 52.74,10.74 4.39,-5 7.84,-10.81 10.81,-17.06l0 -148.34c0,-30.7 4.3,-60.38 12.19,-88.6 -10.09,-4.56 -22.3,-13.26 -41.15,-26.88 -16.16,-11.68 -27.56,-30.83 -44.63,-40.16 -46.25,-25.24 -41.43,-50.86 -10.5,-86.35 9.08,-10.42 9,-41.04 0.17,-51.56 -9.7,-11.56 -40.03,-20.07 -51.23,-13.24 -24.94,15.18 -43.56,40.73 -67.52,64.84 88,38.11 91.48,62.74 28.21,127.9 -1.18,1.2 -2.38,2.38 -3.69,3.45z"/>
  <path class="fil0" d="M547.61 3469.22c-16.31,0.5 -32.52,4.06 -48.76,6.66 1.53,9.46 3.06,18.91 4.56,28.37 17.12,-3.78 34.24,-7.56 51.36,-11.31 -2.4,-8.3 -5.04,-23.8 -7.16,-23.71z"/>
  <path class="fil0" d="M1103.88 6722.58c-0.15,-41.67 -35.81,-76.8 -77.35,-76.26 -40.75,0.57 -74.95,34.7 -75.6,75.43 -0.68,41.51 34.39,77.26 76.06,77.52 41.56,0.26 77.02,-35.11 76.89,-76.69z"/>
  <path class="fil0" d="M873.56 6505.73c-0.74,-36.75 -30.83,-65.78 -67.74,-65.36 -36.78,0.44 -66.1,30.24 -65.97,67.11 0.11,36.84 29.61,66.41 66.45,66.63 37.87,0.2 68.02,-30.46 67.26,-68.37z"/>
  <path class="fil0" d="M873.38 6722.06c-0.39,-36.73 -30.68,-66.34 -67.43,-65.93 -36.73,0.39 -66.34,30.68 -65.93,67.41 0.39,36.73 30.69,66.34 67.41,65.95 36.73,-0.41 66.37,-30.68 65.95,-67.44z"/>
  <path class="fil0" d="M872.35 6944.04c0.37,-34.81 -29.44,-65.4 -64.49,-66.19 -34.7,-0.78 -65.6,28.74 -66.84,63.85 -1.22,34.66 27.95,65.75 63.24,67.43 35.46,1.68 67.72,-29.15 68.09,-65.1z"/>
  <path class="fil0" d="M870.11 6069.5c-0.72,-35.33 -28.74,-62.35 -64.25,-61.93 -35.38,0.41 -62.67,28.15 -62.57,63.59 0.09,35.46 27.52,63 62.96,63.22 36.44,0.24 64.62,-28.37 63.85,-64.88z"/>
  <path class="fil0" d="M868.93 7160.54c0.65,-35.88 -26.38,-63.61 -62.04,-63.7 -34.74,-0.06 -61.78,26.25 -62.41,60.78 -0.66,35.86 26.36,63.59 62.04,63.68 34.74,0.09 61.78,-26.22 62.41,-60.75z"/>
  <path class="fil0" d="M867.5 5855.76c0.22,-32.34 -27.34,-60.51 -59.83,-61.15 -32.23,-0.65 -60.71,26.64 -61.78,59.18 -1.09,33.11 27.82,62.63 61.1,62.43 32.37,-0.22 60.3,-28.11 60.51,-60.47z"/>
  <path class="fil0" d="M864.89 7380.42c0.33,-32.85 -24.79,-58.53 -57.54,-58.85 -32.84,-0.33 -58.52,24.79 -58.83,57.54 -0.33,32.84 24.79,58.52 57.54,58.85 32.82,0.33 58.52,-24.78 58.83,-57.54z"/>
  <path class="fil0" d="M1143.78 7415.99c4.45,-1.7 8.89,-3.38 13.34,-5.09 35.88,40.22 71.78,80.43 110.19,123.47 -7.06,4.24 -19.22,14.31 -21.49,12.45 -24.87,-20.59 -47.19,-15.81 -72.39,-0.11 -3.78,2.36 -27.43,-13.63 -28.26,-22.38 -3.34,-35.86 -1.4,-72.17 -1.4,-108.34zm31.4 -431.44c4.02,-3.5 8.04,-6.99 12.06,-10.48 20.37,32.98 40.75,65.93 65.44,105.87 -15.55,6.29 -30.02,12.14 -43.11,17.43 -12.75,-41.82 -23.58,-77.33 -34.39,-112.81zm-72.7 -40.53c24.22,15.85 28.54,42.98 8.41,71.8 -14.32,-3.63 -27.95,-7.1 -41.36,-10.5 19.74,-13.61 32.84,-36.25 32.95,-61.3zm198.44 1087.91c0.02,-5.85 -0.78,-11.46 -2.27,-16.75l0 -1238.66c-64.05,-26.71 -100.45,-60.01 -93.88,-129.48 1.42,-14.94 -16.44,-43.54 -28.54,-45.4 -24.09,-3.69 -50.36,6.83 -90.32,14.15 21.94,24.78 34.26,46.93 53.09,58.07 29.26,17.31 41.93,31.25 25.29,67.35 -21.51,46.69 -4.26,74.88 41.38,80.04 14.09,1.59 28.5,0.24 45.8,0.24 -15.72,24.74 -30.48,47.98 -42.69,67.17 -49.31,-3.47 -97,-6.86 -144.37,-10.2 -11.22,-6.53 -24.17,-10.29 -37.82,-10.09 -40.97,0.57 -74.9,35.27 -74.31,75.97 0,1.4 0.17,2.78 0.26,4.15l-9.94 -3.32c1.05,41.89 -72.19,14.63 -50.22,67.72 4.54,10.92 48.91,5.37 74.93,7.41l0 -32.39c14.02,18.8 36.36,31.1 60.95,30.75 4.98,-0.09 9.83,-0.68 14.56,-1.7 0.68,22.8 1.22,45.6 3.56,68.22 0.15,1.42 0.48,2.93 0.89,4.43 -5.63,-1.57 -11.55,-2.56 -17.71,-2.71 -41.04,-0.96 -73.94,30.64 -74.31,71.32 -0.02,1.96 0.09,3.93 0.22,5.85 -6.09,4.54 -12.12,9.13 -18.19,13.69 -30.57,23.02 -12.08,46.47 4.52,63.26 10.7,10.81 43.5,19.3 46.45,15.02 6.22,-9 11.79,-18.45 17.03,-28.17 6.33,2.01 13.02,3.19 20,3.37 39.92,0.92 72.79,-29.5 74.27,-68.77 0.59,-15.61 -3.58,-30.16 -11.16,-42.24 2.54,0.11 4.94,-0.09 7.06,-0.78 67.22,-22.12 104.82,9.83 97.44,82.17 -1.51,14.94 3.17,35.55 13.06,45.66 27.04,27.58 8.54,52.81 -4.46,72.61 -7.71,11.77 -35.24,19.24 -50.86,15.61 -54.96,-12.76 -108.62,-31.12 -177.32,-51.71 -0.55,19.09 -0.94,37.54 -1.29,55.62 -7.95,11.03 -12.69,24.63 -12.82,39.61 -0.13,14.33 3.89,27.5 10.94,38.39 -0.7,20.92 -1.66,41.56 -3.17,62.11 -2.14,29.15 0.48,54.53 12.43,73.92 -9.57,11.01 -15.33,25.44 -15.4,41.56 -0.11,21.64 10.05,40.31 25.9,51.76 -5.57,16.35 -2.23,43 8.43,55.03 7.25,8.21 37.34,4.34 51.99,-3.65 29.55,-16.14 34.72,-42.12 31.56,-69.94 5.81,-9.78 9.11,-21.33 8.93,-33.83 -0.11,-9.5 -2.27,-18.34 -5.94,-26.29 4.94,-4.15 11.71,-4.65 19.7,0.98 28.52,20.13 58.11,54.35 64.24,86.87 8.74,46.21 28.43,60.8 69.86,58.98 47.04,-2.07 54.16,6.93 42.3,53.92 -3.26,12.91 -4.7,26.44 -9.57,38.67 -4.91,12.32 -13.06,23.32 -19.78,34.92 -9.96,-11.09 -22.84,-20.7 -29.39,-33.57 -27.45,-53.68 -53,-108.31 -79.25,-162.62 -20.09,43.35 -25.57,85.65 -38.22,125.65 -4.46,14.02 -11.44,30.16 -20.55,42.84 0.07,-1.2 0.17,-2.38 0.17,-3.58 0.13,-31.93 -24.28,-56.87 -56.08,-57.26 -31.91,-0.39 -57.21,23.85 -57.89,55.44 -0.72,33.04 24.46,58.72 57.37,58.53 2.01,0 3.98,-0.11 5.92,-0.31 -1.74,9.26 -0.87,19.59 0.85,31.25 4.26,29.11 7.31,58.39 11.03,87.57 -5.46,-2.19 -11.33,-3.52 -17.58,-3.6 -26.99,-0.35 -49.05,21.16 -49.42,48.2 -0.35,27.01 21.19,49.07 48.22,49.42 12.93,0.17 24.65,-4.76 33.48,-12.84 6.18,22.15 14,43.98 20.53,66.06 6.03,-1.16 12.06,-2.31 18.08,-3.48 0,-18.84 3.78,-38.67 -0.77,-56.36 -10.02,-39 -26.62,-76.39 -35.75,-115.56 -4.59,-19.68 1.31,-41.8 2.67,-66.3 64.88,25.59 118.82,46.89 173.09,68.31 -4.37,5.5 -8.34,10.74 -12.08,15.81 -24.44,7.07 -41.4,29.24 -41.03,56.52 0.11,8.21 1.81,15.92 4.83,22.84 -1.22,11.62 -0.72,23.54 1.27,36.71 5.04,33.17 3.78,68.18 14.06,99.49 2.03,6.18 4.1,12.38 6.24,18.56 -10.66,9.08 -17.47,22.52 -17.25,37.65 0.37,27.04 22.47,48.54 49.46,48.17 1.2,-0.02 2.33,-0.31 3.54,-0.42 6,11.56 12.47,22.8 19.57,33.57 4.61,7.03 17.3,9.7 31.93,10.33l0 -291.46c1.42,-5.09 2.23,-10.46 2.27,-16.07z"/>
  <path class="fil0" d="M647.1 6506.56c-0.44,-30 -26.07,-55.31 -56.02,-55.3 -29.96,0.02 -55.56,25.38 -55.93,55.38 -0.37,29.81 24.76,55.8 54.75,56.56 30.79,0.79 57.63,-25.81 57.19,-56.65z"/>
  <path class="fil0" d="M862.37 5635.33c0.41,-29.68 -25.22,-55.88 -55.06,-56.3 -29.67,-0.41 -55.9,25.22 -56.3,55.06 -0.41,29.7 25.22,55.9 55.05,56.32 29.68,0.39 55.91,-25.24 56.3,-55.07z"/>
  <path class="fil0" d="M646.03 6286.68c0.09,-28.82 -24.48,-54.13 -53.48,-55.05 -29.63,-0.94 -56.23,24.94 -56.32,54.79 -0.09,28.83 24.5,54.11 53.48,55.03 29.63,0.94 56.23,-24.92 56.32,-54.77z"/>
  <path class="fil0" d="M646.81 6723.65c0.54,-29.61 -25.03,-55.99 -54.83,-56.54 -29.63,-0.55 -55.99,25.05 -56.54,54.85 -0.54,29.61 25.05,55.97 54.86,56.52 29.61,0.55 55.97,-25.02 56.52,-54.83z"/>
  <path class="fil0" d="M1027.2 5146.62c-29.35,0.09 -51.71,22.62 -51.63,52.02 0.05,21.25 11.93,38.78 29.61,46.84 -6.92,15.74 -13.89,31.4 -19.48,47.54 -2.33,6.7 1.38,15.5 2.31,23.37 7.93,-2.47 19.2,-2.44 23.19,-7.84 14.26,-19.2 16.35,-39.13 8.54,-58.87 2.56,0.37 5.16,0.61 7.82,0.59 29.35,-0.09 51.74,-22.62 51.65,-51.99 -0.09,-29.35 -22.62,-51.74 -52.02,-51.65z"/>
  <path class="fil0" d="M644.48 6943.03c-0.26,-29.81 -24,-53.13 -53.83,-52.87 -29.81,0.26 -53.13,24 -52.87,53.83 0.26,29.79 24.02,53.13 53.83,52.87 29.81,-0.28 53.13,-24.02 52.87,-53.83z"/>
  <path class="fil0" d="M642.82 6073.06c1.02,-29.24 -20.7,-52.78 -49.62,-53.79 -29.22,-1 -52.78,20.72 -53.76,49.61 -1,29.22 20.72,52.78 49.62,53.79 29.22,1 52.78,-20.72 53.76,-49.61z"/>
  <path class="fil0" d="M859.31 7597.29c0.92,-30.53 -21.66,-54.25 -51.95,-54.57 -29.48,-0.3 -52.39,21.47 -53.29,50.67 -0.92,30.53 21.67,54.24 51.95,54.57 29.48,0.31 52.39,-21.46 53.28,-50.66z"/>
  <path class="fil0" d="M642.16 7158.83c-0.13,-27.32 -23.3,-50.56 -50.62,-50.8 -27.28,-0.26 -50.84,22.65 -51.45,49.98 -0.61,27.19 22.03,51.1 49.35,52.08 28.19,1.03 52.87,-22.97 52.72,-51.27z"/>
  <path class="fil0" d="M757.88 5419.74c0.35,27.04 22.43,48.57 49.42,48.22 27.04,-0.37 48.57,-22.43 48.22,-49.42 -0.37,-27.06 -22.43,-48.57 -49.42,-48.22 -2.27,0.04 -4.41,0.44 -6.57,0.74 30.25,-20.11 55.27,-36.75 83.38,-55.47 -14.17,-14.67 -30.05,-32.76 -47.87,-48.67 -6.81,-6.11 -19.87,-12.01 -26.77,-9.35 -6.62,2.56 -12.14,16.11 -12.58,25.11 -1.51,29.53 -0.63,59.16 -0.59,89.14 -21.64,5.26 -37.52,24.72 -37.21,47.91z"/>
  <path class="fil0" d="M638.71 5854.62c-0.37,-26.6 -20.48,-46.58 -47.11,-46.8 -27.71,-0.24 -48.46,20.66 -48.06,48.39 0.37,26.58 20.5,46.56 47.1,46.78 27.71,0.24 48.46,-20.64 48.07,-48.37z"/>
  <path class="fil0" d="M637.19 7380.35c0.33,-25.75 -21.69,-47.41 -47.39,-46.62 -24.78,0.74 -45.12,21.99 -44.7,46.73 0.39,24.83 21.31,45.38 46.1,45.35 24.81,-0.04 45.66,-20.66 45.99,-45.46z"/>
  <path class="fil0" d="M852.74 7810.82c-0.07,-24.81 -20.68,-45.64 -45.49,-45.97 -24.74,-0.31 -45.93,20.09 -46.6,44.85 -0.68,24.74 19.41,46.21 44.2,47.24 25.72,1.07 47.93,-20.33 47.89,-46.12z"/>
  <path class="fil0" d="M632.8 5633.93c-0.37,-23.67 -18.65,-41.28 -42.45,-40.88 -23.67,0.37 -41.28,18.65 -40.88,42.45 0.39,23.67 18.65,41.28 42.45,40.88 23.67,-0.39 41.28,-18.65 40.88,-42.45z"/>
  <path class="fil0" d="M411.12 6508.29c0.61,-21.66 -17.86,-41.12 -39.63,-41.73 -21.66,-0.61 -41.12,17.86 -41.73,39.64 -0.61,21.66 17.86,41.12 39.64,41.73 21.64,0.61 41.12,-17.86 41.73,-39.63z"/>
  <path class="fil0" d="M410.7 6725.09c1.4,-21.14 -17.12,-41.56 -38.61,-42.59 -21.18,-1.02 -41.34,17.82 -41.97,39.26 -0.63,21.31 18.45,41.1 39.92,41.34 20.33,0.24 39.29,-17.49 40.66,-38.02z"/>
  <path class="fil0" d="M846.5 5199.14c0.46,-21.58 -19.5,-41.3 -41.04,-40.51 -20.7,0.76 -38.94,19.85 -38.59,40.4 0.37,20.7 19.11,39.2 39.77,39.22 20.63,0.04 39.44,-18.41 39.85,-39.11z"/>
  <path class="fil0" d="M630.61 7597.49c1.35,-21.36 -17.6,-41.49 -39.22,-41.65 -20.57,-0.15 -39.22,17.95 -39.77,38.61 -0.52,20.5 17.3,39.46 37.98,40.38 20.42,0.94 39.68,-16.62 41.01,-37.34z"/>
  <path class="fil0" d="M409.57 6285.89c-0.39,-20.96 -18.91,-38.89 -39.79,-38.5 -20.96,0.39 -38.87,18.91 -38.48,39.79 0.37,20.96 18.89,38.89 39.77,38.5 20.98,-0.39 38.89,-18.91 38.5,-39.79z"/>
  <path class="fil0" d="M407.56 6942.53c-0.48,-21.36 -16.59,-36.65 -38.11,-36.14 -21.33,0.48 -36.64,16.59 -36.14,38.08 0.48,21.36 16.6,36.65 38.09,36.17 21.38,-0.5 36.64,-16.6 36.16,-38.11z"/>
  <path class="fil0" d="M1064.31 8247.38c0.09,-21.34 -15.4,-37 -36.71,-37.1 -21.31,-0.11 -36.99,15.37 -37.1,36.69 -0.11,21.34 15.37,37 36.69,37.1 21.34,0.11 37.02,-15.37 37.13,-36.69z"/>
  <path class="fil0" d="M406.25 6070.05c-0.53,-19.35 -17.41,-35.4 -36.73,-34.87 -19.37,0.5 -35.4,17.38 -34.9,36.71 0.5,19.37 17.38,35.42 36.73,34.9 19.35,-0.5 35.4,-17.38 34.9,-36.73z"/>
  <path class="fil0" d="M842.17 8030.53c-0.63,-19.06 -18.43,-36.2 -37.17,-34.2 -20.4,2.19 -32.45,14.43 -33.59,35.09 -1.05,19.02 16.66,35.92 35.72,35.66 19.09,-0.28 35.66,-17.58 35.03,-36.56z"/>
  <path class="fil0" d="M1278.45 8467.72c-0.11,-19.09 -17.25,-35.8 -36.27,-35.33 -19.07,0.46 -36.3,18.06 -34.48,36.88 1.96,20.46 14.17,32.54 34.79,33.87 19,1.22 36.06,-16.36 35.97,-35.42z"/>
  <path class="fil0" d="M624.63 5419.98c-0.96,-18.61 -10.31,-31.36 -30.4,-33.91 -18.74,-2.38 -36.2,12.36 -36.34,31.2 -0.13,19.76 10.11,32.34 30.14,34.94 18.74,2.43 35.48,-12.38 36.6,-32.23z"/>
  <path class="fil0" d="M403.69 7160.38c1.57,-18.76 -14.35,-34.72 -33.24,-34.79 -19.81,1.7 -31.67,12.23 -33.3,32.17 -1.55,18.76 14.39,35.35 33.21,34.57 19.94,-0.81 31.69,-12.06 33.32,-31.95z"/>
  <path class="fil0" d="M620.74 7809.94c-0.33,-17.45 -12.1,-26.84 -29.98,-29.39 -16.35,2.43 -28.59,11.29 -29.24,28.78 -0.74,18.69 10.72,30.92 29.31,31.14 18.65,0.22 30.29,-11.86 29.92,-30.53z"/>
  <path class="fil0" d="M400.7 5854.6c-3.08,-17.43 -12.65,-29.04 -30.2,-28.8 -18.65,0.24 -30.24,12.14 -29.65,30.79 0.52,17.31 12.06,28.56 29.52,28.45 18.8,-0.13 28.35,-12.43 30.33,-30.44z"/>
  <path class="fil0" d="M831.93 4990.04c34.89,2.91 70.65,0.44 108.01,0.44 -24.24,-53.33 -77.09,-87.68 -119.45,-74.86 -16.88,5.11 -28.69,26.99 -42.8,41.25 3.06,2.4 6.05,5.22 9.06,8.1 -3.74,4.11 -5.92,9.7 -6.03,17.06 -0.26,17.54 9.56,27.28 27.03,26.8 13.48,-0.35 21.8,-7.23 24.18,-18.78z"/>
  <path class="fil0" d="M396.99 7382.08c1.13,-17.03 -7.41,-27.91 -24.87,-28.89 -17.23,-0.96 -26.75,8.36 -28.78,26.57 1.22,15.68 9,26.4 26.69,26.67 15.99,0.22 25.92,-8.3 26.97,-24.35z"/>
  <path class="fil0" d="M1047.47 8467.59c0.09,-11.81 -7.69,-18.13 -20.31,-20.46 -10.11,1.42 -18.65,6.75 -19.76,18.5 -1.22,12.97 6.14,21.56 19,22.25 12.97,0.68 20.96,-7.29 21.07,-20.29z"/>
  <path class="fil0" d="M173.31 6504.84c-1.33,-10.48 -9,-15.85 -18.5,-16.53 -11.69,1.9 -18.69,8.3 -18.56,18.85 0.17,11.79 8.02,19.5 19.76,18.63 11.49,-0.83 18.8,-8.89 17.3,-20.94z"/>
  <path class="fil0" d="M827.43 8246.94c-1.42,-10.11 -6.75,-18.65 -18.5,-19.76 -12.97,-1.24 -21.56,6.14 -22.25,19 -0.68,12.97 7.29,20.94 20.29,21.05 11.81,0.11 18.13,-7.67 20.46,-20.29z"/>
  <path class="fil0" d="M612.11 5197.7c-0.24,-13.19 -8.23,-19.63 -23.13,-20.7 -10.22,1.86 -18.87,7.36 -18.91,20.94 -0.04,13.06 6.81,20.99 19.92,21.47 14.33,0.52 22.36,-7.31 22.12,-21.71z"/>
  <path class="fil0" d="M391.42 5634.82c0.26,-13.17 -7.38,-19.96 -21.51,-21.57 -11.27,1.09 -19.83,6.72 -20.51,20.07 -0.65,12.97 5.96,21.38 19,22.34 14.13,1 22.76,-6.29 23.02,-20.83z"/>
  <path class="fil0" d="M389.02 7596.68c0.74,-11.83 -6.83,-18.52 -18.58,-20.35 -10.48,1.33 -18,7.23 -18.61,17.67 -0.68,11.81 6.72,19.63 18.52,19.96 10.63,0.31 18.04,-6.88 18.67,-17.28z"/>
  <path class="fil0" d="M173.48 6722.08c-0.83,-11.66 -8.71,-18.98 -20.59,-17.8 -10.37,1.03 -16.09,8.61 -17.01,19.07 2.29,11.72 9.08,19.19 20.96,17.99 10.33,-1.07 17.38,-8.58 16.64,-19.26z"/>
  <path class="fil0" d="M607.48 8031.25c-0.5,-11.68 -7.25,-16.81 -18.58,-15.83 -5.96,0.5 -11.01,2.71 -11.38,6.48 4.24,13.26 8.52,23.76 19.7,24.55 7.36,0.52 10.59,-7.73 10.26,-15.2z"/>
  <path class="fil0" d="M171.23 6286.31c-0.04,-8.76 -4.41,-15.68 -13.26,-15.66 -12.88,0.02 -9.19,13.08 -12.97,17.73 -1.53,10.92 2.03,15.33 10.92,14.57 10.09,-0.87 15.35,-6.55 15.31,-16.64z"/>
  <path class="fil0" d="M169.05 6951.07c3.98,-11.13 2.01,-20.04 -12.69,-23.34 -1,10.02 -5.9,19.89 3.82,27.87 5.13,4.21 7.8,-1.51 8.87,-4.52z"/>
  <path class="fil0" d="M7383.07 5170.6c-0.13,43.13 34.13,78.42 77.37,79.69 43.96,1.29 80.71,-33.83 81.63,-78 0.92,-43.98 -34.52,-80.47 -78.66,-81 -44.07,-0.5 -80.21,35.18 -80.34,79.31z"/>
  <path class="fil0" d="M7384.97 5607.92c0.37,43.52 34.72,77.11 78.46,76.74 43.52,-0.37 77.11,-34.72 76.74,-78.48 -0.37,-43.5 -34.72,-77.09 -78.49,-76.72 -43.5,0.37 -77.09,34.72 -76.71,78.46z"/>
  <path class="fil0" d="M7383.7 5386.42c0.02,43.61 34.09,78.18 77.63,78.79 44.63,0.66 80.12,-34.31 80.1,-78.9 -0.04,-43.61 -34.09,-78.18 -77.63,-78.81 -44.63,-0.63 -80.12,34.33 -80.1,78.92z"/>
  <path class="fil0" d="M7384.57 4949.14c-0.39,43.85 32.91,78.29 76.39,78.94 44.96,0.67 79.73,-33.52 79.6,-78.31 -0.15,-43.74 -33.96,-77.55 -77.68,-77.68 -43.8,-0.13 -77.91,33.41 -78.31,77.04z"/>
  <path class="fil0" d="M7386.63 5821.36c-0.92,41.12 34.59,77.22 75.95,77.2 40.33,0 75.03,-34.11 75.93,-74.67 0.92,-41.12 -34.59,-77.22 -75.95,-77.22 -40.35,0 -75.03,34.11 -75.93,74.69z"/>
  <path class="fil0" d="M7389.66 4518.76c-0.09,41.25 31.51,73.03 72.7,73.11 28.54,0.04 52.52,-15.07 64.64,-38.02 3.73,3.78 7.47,7.58 11.11,11.46 6.59,-6.46 19.98,-15.66 18.67,-18.91 -7.23,-17.84 -15.29,-35.72 -25.42,-52.04 -9.78,-28.5 -36.19,-48.24 -68.61,-48.33 -41.23,-0.09 -73,31.54 -73.09,72.72z"/>
  <path class="fil0" d="M7612.47 5385.37c-0.68,37.61 31.14,70.63 69.16,71.78 37.54,1.11 70.82,-30.38 72.42,-68.53 1.57,-38.37 -31.62,-72.81 -70.45,-73.05 -37.67,-0.24 -70.45,31.93 -71.13,69.79z"/>
  <path class="fil0" d="M7612.32 5170.8c0.02,37.63 31.86,70.06 69.66,70.93 38.41,0.89 72.22,-32.32 72.22,-70.93 0,-37.63 -31.86,-70.06 -69.66,-70.93 -38.39,-0.9 -72.22,32.32 -72.22,70.93z"/>
  <path class="fil0" d="M7613.59 4949.17c-0.61,38.21 31.01,70.4 69.38,70.6 38.28,0.2 70.21,-31.75 69.97,-70.01 -0.22,-38.39 -32.43,-69.97 -70.65,-69.33 -37.45,0.63 -68.09,31.3 -68.7,68.75z"/>
  <path class="fil0" d="M7614.41 5605.78c-0.7,38.87 30.01,70.14 68.85,70.12 37.87,0 68.16,-29.74 68.83,-67.59 0.7,-38.85 -30,-70.12 -68.85,-70.1 -37.85,0 -68.16,29.74 -68.83,67.57z"/>
  <path class="fil0" d="M7616.1 4735.35c0.35,37.13 29.54,66.15 66.71,66.34 38.24,0.2 67.98,-29.72 67.61,-68 -0.35,-37.12 -29.52,-66.12 -66.72,-66.32 -38.24,-0.22 -67.98,29.7 -67.61,67.98z"/>
  <path class="fil0" d="M7616.67 5822.43c-0.11,36.56 29.85,66.69 66.41,66.8 36.56,0.11 66.69,-29.87 66.8,-66.43 0.09,-36.56 -29.87,-66.69 -66.43,-66.78 -36.56,-0.11 -66.69,29.85 -66.78,66.41z"/>
  <path class="fil0" d="M7619.11 4520.23c0.74,34.9 29.31,62.89 64.16,62.89 35.81,0 64.93,-29.68 64.16,-65.43 -0.76,-34.89 -29.31,-62.89 -64.16,-62.89 -35.83,0 -64.94,29.68 -64.16,65.43z"/>
  <path class="fil0" d="M7621.12 6043.67c0.15,34.52 26.78,61.39 61.23,61.8 22.93,0.26 42.45,-10.96 53.48,-28.48 7.93,0.55 15.76,-0.17 23.28,-2.44 16.88,-5.11 28.7,-26.99 42.8,-41.25 -14.17,-11.2 -27.43,-30.22 -42.74,-32.06 -10.55,-1.26 -21.16,-1.94 -31.86,-2.27 -10.96,-10.9 -26.07,-17.58 -43.13,-17.78 -35.69,-0.42 -63.22,26.88 -63.07,62.48z"/>
  <path class="fil0" d="M7838.52 5384.37c-1.33,32.04 25.7,60.93 58.33,62.3 32.04,1.35 60.93,-25.7 62.3,-58.33 1.33,-32.04 -25.7,-60.93 -58.33,-62.3 -32.04,-1.33 -60.93,25.7 -62.3,58.33z"/>
  <path class="fil0" d="M7838.17 5170.64c-0.09,32.49 27.97,60.71 60.51,60.8 32.49,0.11 60.71,-27.95 60.8,-60.49 0.11,-32.5 -27.95,-60.71 -60.49,-60.82 -32.5,-0.09 -60.71,27.97 -60.82,60.51z"/>
  <path class="fil0" d="M7623.61 4296.76c-1.01,32.67 26.53,61.01 59.44,61.17 31.86,0.13 58.9,-26.12 59.88,-58.18 0.98,-32.67 -26.56,-61.01 -59.44,-61.14 -31.86,-0.15 -58.92,26.12 -59.88,58.15z"/>
  <path class="fil0" d="M7840.04 4949.49c-0.35,33.41 26.71,60.14 60.1,59.4 32.45,-0.74 57.85,-27.01 57.48,-59.46 -0.37,-32.41 -26.43,-58.13 -58.83,-58.11 -32.39,0.02 -58.42,25.77 -58.74,58.18z"/>
  <path class="fil0" d="M7840.87 5607.72c0.33,32.95 26.14,57.91 59.27,57.28 31.9,-0.59 56.36,-25.35 56.65,-57.33 0.28,-33.1 -24.94,-58.59 -57.98,-58.57 -33.04,0 -58.26,25.53 -57.93,58.61z"/>
  <path class="fil0" d="M7842.22 4730.85c-1.81,31.73 21.69,58.48 52.94,60.28 31.73,1.83 58.48,-21.67 60.27,-52.94 1.81,-31.73 -21.69,-58.48 -52.93,-60.27 -31.73,-1.81 -58.48,21.69 -60.28,52.93z"/>
  <path class="fil0" d="M7627.65 6246c-2.03,-1.05 -4.06,-2.1 -6.11,-3.04 -11.49,-5.24 -37.13,-6.01 -38.94,-1.62 -9.57,23.35 -16.14,48.74 -18.3,73.9 -0.83,9.78 11.68,21.68 20.2,30.64 2.54,2.66 13.58,0.57 18.32,-2.75 16.07,-11.31 31.86,-23.06 49.37,-36.19 8.45,5.41 18.48,8.67 29.39,8.93 33.06,0.76 58.79,-24.33 58.66,-57.24 -0.11,-31.86 -24.74,-56.56 -56.6,-56.73 -27.76,-0.15 -50.31,18.34 -55.99,44.09z"/>
  <path class="fil0" d="M7842.86 5822.04c-0.37,29.81 24.79,55.8 54.75,56.56 30.81,0.76 57.63,-25.81 57.19,-56.67 -0.44,-29.98 -26.09,-55.31 -56.04,-55.27 -29.96,0.04 -55.53,25.37 -55.91,55.38z"/>
  <path class="fil0" d="M7630.64 4082.38c-0.15,30.55 22.97,53.39 53.59,52.93 29.3,-0.46 51.49,-22.93 51.65,-52.3 0.15,-30.55 -22.98,-53.39 -53.59,-52.94 -29.28,0.44 -51.49,22.93 -51.65,52.3z"/>
  <path class="fil0" d="M7847.57 6042.84c-0.26,27.63 21.93,50.8 49.51,51.74 28.54,0.98 52.74,-22.19 53,-50.78 0.26,-27.63 -21.93,-50.8 -49.51,-51.73 -28.54,-0.98 -52.74,22.19 -53,50.77z"/>
  <path class="fil0" d="M7846.22 4518.07c-0.44,29.52 21.22,52.5 50.42,53.5 30.53,1.05 54.38,-21.44 54.79,-51.71 0.41,-29.52 -21.23,-52.5 -50.43,-53.5 -30.53,-1.05 -54.37,21.44 -54.79,51.71z"/>
  <path class="fil0" d="M7851.68 4298.81c0.26,26.64 20.37,46.54 47.06,46.58 27.65,0.04 48.11,-21.14 47.23,-48.96 -0.83,-26.4 -21.6,-45.86 -48.33,-45.31 -26.49,0.55 -46.23,21.03 -45.97,47.69z"/>
  <path class="fil0" d="M7638.44 3858.78c-2.05,23.96 18.39,46.93 42.89,48.2 23,1.2 44.77,-18.26 46.78,-41.78 2.03,-23.96 -18.41,-46.93 -42.89,-48.19 -23,-1.2 -44.77,18.26 -46.78,41.77z"/>
  <path class="fil0" d="M8068.01 5384.56c-0.92,25.99 19.37,47.58 45.22,48.17 26.03,0.59 47.28,-19.89 47.54,-45.86 0.28,-25.99 -20.53,-46.97 -46.49,-46.91 -24.94,0.06 -45.38,19.78 -46.27,44.59z"/>
  <path class="fil0" d="M7853.41 6259.36c0.31,24.39 22.32,45.67 46.54,44.96 23.45,-0.68 43.83,-21.18 44.31,-44.63 0.5,-24.26 -20.88,-46.12 -45.25,-46.23 -24.33,-0.11 -45.9,21.62 -45.6,45.9z"/>
  <path class="fil0" d="M8069.17 5607.48c0.28,24.2 22.3,45.46 46.3,44.79 23.26,-0.65 43.65,-21.14 44.15,-44.37 0.52,-24.07 -20.85,-45.93 -45.03,-46.06 -24.13,-0.13 -45.71,21.53 -45.42,45.64z"/>
  <path class="fil0" d="M8067.77 5171.65c0.41,26.16 21.18,46.19 47.47,45.77 26.16,-0.41 46.19,-21.18 45.77,-47.48 -0.41,-26.16 -21.18,-46.19 -47.47,-45.77 -26.16,0.42 -46.19,21.19 -45.77,47.48z"/>
  <path class="fil0" d="M8068.49 4948.62c-0.9,25.46 20.79,47.65 46.34,47.39 24.57,-0.26 45.35,-21.14 45.49,-45.7 0.11,-24.55 -20.48,-45.62 -45.07,-46.12 -24.5,-0.48 -45.9,19.85 -46.75,44.44z"/>
  <path class="fil0" d="M8072.02 4732.62c-0.89,23.98 16.22,43 39.83,44.22 25.02,1.29 44.57,-16.86 44.9,-41.69 0.3,-23.85 -17.41,-42.39 -41.1,-43 -23.94,-0.59 -42.72,16.83 -43.63,40.46z"/>
  <path class="fil0" d="M7858.67 4079.48c-1.96,21.12 15.96,41.84 37.58,43.46 21.09,1.57 41.67,-16.79 42.89,-38.28 1.18,-21.14 -17.56,-41.45 -39,-42.26 -20.24,-0.79 -39.57,16.51 -41.47,37.08z"/>
  <path class="fil0" d="M8073.16 5823.3c0.37,22.58 18.06,40.25 40.64,40.56 23.67,0.33 42.19,-18.24 41.82,-41.91 -0.37,-23.56 -19.59,-41.6 -43.17,-40.56 -22.51,0.98 -39.63,19.26 -39.28,41.91z"/>
  <path class="fil0" d="M8076.57 4517.72c-0.63,21.07 14.46,37.74 35.31,38.98 22.08,1.35 39.68,-14.59 40.35,-36.49 0.63,-21.07 -14.48,-37.74 -35.33,-38.98 -22.06,-1.35 -39.68,14.59 -40.33,36.49z"/>
  <path class="fil0" d="M7862.69 6474.13c-0.18,20.83 16.88,37.32 37.74,36.44 19.74,-0.81 35.03,-17.25 34.55,-37.08 -0.5,-19.81 -16.62,-35.35 -36.47,-35.18 -19.83,0.18 -35.64,15.98 -35.81,35.81z"/>
  <path class="fil0" d="M8078.75 6043.87c0.3,19.11 17.14,35.42 36.19,35.11 19.11,-0.33 35.42,-17.14 35.11,-36.2 -0.33,-19.11 -17.14,-35.42 -36.21,-35.09 -19.11,0.3 -35.42,17.12 -35.09,36.19z"/>
  <path class="fil0" d="M7650.95 3647.79c2.49,19.72 13.32,31.22 33.54,30.44 20.22,-0.76 31.27,-12.97 30.57,-33.02 -0.72,-20.22 -12.97,-31.23 -33.04,-30.59 -20.35,0.63 -29.98,13.21 -31.07,33.17z"/>
  <path class="fil0" d="M8083.19 4300.56c3.52,16.49 12.75,28.93 32.1,28.13 18.87,-0.79 30.07,-12.41 29.48,-31.31 -0.57,-18.87 -12.33,-29.98 -31.25,-29.5 -19.09,0.48 -28.41,12.73 -30.33,32.69z"/>
  <path class="fil0" d="M7870.31 3862.65c0.24,16.49 10.87,27.3 27.3,27.84 17.71,0.57 29.28,-10.22 29.7,-27.91 0.39,-17.76 -10.92,-27.45 -28.89,-29.61 -17.03,2.38 -28.37,11.83 -28.1,29.68z"/>
  <path class="fil0" d="M7656.65 6912c0.59,16.05 9.96,25.16 26.01,25.33 17.3,0.17 27.17,-9.28 27.21,-26.64 0.05,-17.49 -10.2,-25.94 -27.28,-26.95 -17.16,1.68 -26.57,10.96 -25.94,28.26z"/>
  <path class="fil0" d="M8087.79 6257.42c-0.81,15.79 7.07,26.29 23.24,27.91 16.92,1.68 28.26,-6.22 29.87,-23.7 1.57,-17.1 -7.23,-27.12 -24.18,-29.65 -17.16,0.2 -28.04,7.88 -28.93,25.44z"/>
  <path class="fil0" d="M8309.14 5387.2c0.33,16.25 9.96,25.2 26.16,25.16 16.4,-0.04 24.57,-9.7 26.2,-25.48 -1.13,-16.01 -8.97,-26.12 -25.35,-26.49 -17.49,-0.39 -27.36,9.3 -27.01,26.81z"/>
  <path class="fil0" d="M8308.11 5171.54c1.73,17.17 11.05,26.54 28.35,25.86 16.03,-0.61 25.11,-10 25.24,-26.06 0.15,-17.31 -9.35,-27.14 -26.71,-27.14 -17.49,0 -25.92,10.26 -26.88,27.34z"/>
  <path class="fil0" d="M8309.88 4949.86c0.11,15.88 9.76,25.59 25.61,25.42 16.01,-0.19 23.82,-10.68 25.42,-26.35 -3.02,-15.11 -11.43,-25.09 -27.47,-24.02 -14.44,0.94 -23.65,10.26 -23.56,24.96z"/>
  <path class="fil0" d="M7874.65 6694.52c-0.37,14.63 8.98,24.37 23.54,24.79 14.63,0.44 24.33,-8.98 24.81,-23.52 0.46,-14.72 -9.22,-22.82 -23.72,-25.35 -14.28,1.75 -24.26,9.43 -24.63,24.09z"/>
  <path class="fil0" d="M8310.93 5607.68c0.44,14.55 10.15,23.96 24.78,23.54 14.55,-0.41 23.91,-10.13 23.56,-24.79 -0.37,-14.65 -10.35,-22.34 -24.63,-24.11 -14.5,2.53 -24.18,10.63 -23.72,25.35z"/>
  <path class="fil0" d="M8314.16 4732.69c-0.92,14.17 6.48,22.69 21.01,22.84 13.17,0.13 19.89,-7.58 21.22,-20.37 -0.7,-12.91 -6.9,-20.98 -20.11,-21.64 -13,-0.63 -21.29,6.14 -22.12,19.17z"/>
  <path class="fil0" d="M8093.71 4083.76c0.7,13.1 8.74,20.24 21.75,19.61 13.08,-0.63 20.22,-8.71 19.63,-21.75 -0.61,-13.17 -8.91,-19.35 -22.01,-19.96 -12.54,1.92 -20.09,8.95 -19.37,22.1z"/>
  <path class="fil0" d="M8315.08 5822.37c-0.18,12.95 8.02,20.72 21.01,20.31 11.77,-0.35 17.89,-8.28 19.52,-19.72 -1.2,-11.7 -7.36,-19.63 -18.98,-20.38 -13.01,-0.83 -21.35,6.86 -21.55,19.79z"/>
  <path class="fil0" d="M8097.88 6473.91c0.5,7.78 3.43,16.62 10.37,15 11.25,-2.6 11.33,-16.11 15.81,-24.94 2.38,-4.67 -4.67,-5.7 -8.45,-5.83 -11.09,-0.42 -17.1,5.2 -17.73,15.76z"/>
 </g>
</svg>
